G04*
G04 #@! TF.GenerationSoftware,Altium Limited,Altium Designer,23.1.1 (15)*
G04*
G04 Layer_Color=32768*
%FSLAX23Y23*%
%MOIN*%
G70*
G04*
G04 #@! TF.SameCoordinates,B68BBF77-7371-4CB0-954A-CE103CC9DB12*
G04*
G04*
G04 #@! TF.FilePolarity,Positive*
G04*
G01*
G75*
%ADD15C,0.006*%
%ADD83C,0.004*%
%ADD84C,0.002*%
G36*
X869Y3620D02*
X875D01*
Y3512D01*
X869D01*
Y3478D01*
X629D01*
Y3512D01*
X623D01*
Y3620D01*
X629D01*
Y3654D01*
X869D01*
Y3620D01*
D02*
G37*
G36*
X870Y3419D02*
X876D01*
Y3311D01*
X870D01*
Y3277D01*
X630D01*
Y3311D01*
X624D01*
Y3419D01*
X630D01*
Y3453D01*
X870D01*
Y3419D01*
D02*
G37*
G36*
X3759Y3020D02*
X3793D01*
Y2780D01*
X3759D01*
Y2774D01*
X3651D01*
Y2780D01*
X3617D01*
Y3020D01*
X3651D01*
Y3026D01*
X3759D01*
Y3020D01*
D02*
G37*
G36*
X4465Y3018D02*
X4499D01*
Y2778D01*
X4465D01*
Y2772D01*
X4357D01*
Y2778D01*
X4323D01*
Y3018D01*
X4357D01*
Y3024D01*
X4465D01*
Y3018D01*
D02*
G37*
G36*
X4263D02*
X4297D01*
Y2778D01*
X4263D01*
Y2772D01*
X4155D01*
Y2778D01*
X4121D01*
Y3018D01*
X4155D01*
Y3024D01*
X4263D01*
Y3018D01*
D02*
G37*
G36*
X3562Y3015D02*
X3596D01*
Y2775D01*
X3562D01*
Y2769D01*
X3454D01*
Y2775D01*
X3420D01*
Y3015D01*
X3454D01*
Y3021D01*
X3562D01*
Y3015D01*
D02*
G37*
G36*
X858Y1771D02*
X813D01*
Y1773D01*
X607D01*
Y1771D01*
X562D01*
Y1929D01*
X607D01*
Y1927D01*
X813D01*
Y1929D01*
X858D01*
Y1771D01*
D02*
G37*
G36*
X855Y1379D02*
X861D01*
Y1271D01*
X855D01*
Y1237D01*
X615D01*
Y1271D01*
X609D01*
Y1379D01*
X615D01*
Y1413D01*
X855D01*
Y1379D01*
D02*
G37*
G36*
X869Y836D02*
X875D01*
Y728D01*
X869D01*
Y694D01*
X629D01*
Y728D01*
X623D01*
Y836D01*
X629D01*
Y870D01*
X869D01*
Y836D01*
D02*
G37*
D15*
X609Y1271D02*
Y1379D01*
X615D01*
X855D02*
X861D01*
Y1271D02*
Y1379D01*
X855Y1271D02*
X861D01*
X609D02*
X615D01*
Y1237D02*
Y1271D01*
Y1379D02*
Y1413D01*
X855D01*
Y1379D02*
Y1413D01*
Y1237D02*
Y1271D01*
X615Y1237D02*
X855D01*
X624Y3311D02*
Y3419D01*
X630D01*
X870D02*
X876D01*
Y3311D02*
Y3419D01*
X870Y3311D02*
X876D01*
X624D02*
X630D01*
Y3277D02*
Y3311D01*
Y3419D02*
Y3453D01*
X870D01*
Y3419D02*
Y3453D01*
Y3277D02*
Y3311D01*
X630Y3277D02*
X870D01*
X623Y3512D02*
Y3620D01*
X629D01*
X869D02*
X875D01*
Y3512D02*
Y3620D01*
X869Y3512D02*
X875D01*
X623D02*
X629D01*
Y3478D02*
Y3512D01*
Y3620D02*
Y3654D01*
X869D01*
Y3620D02*
Y3654D01*
Y3478D02*
Y3512D01*
X629Y3478D02*
X869D01*
X858Y1771D02*
Y1929D01*
X813Y1771D02*
X858D01*
X813D02*
Y1773D01*
X607D02*
X813D01*
X607Y1771D02*
Y1773D01*
X562Y1771D02*
X607D01*
X562D02*
Y1929D01*
X813D02*
X858D01*
X813Y1927D02*
Y1929D01*
X607Y1927D02*
X813D01*
X607D02*
Y1929D01*
X562D02*
X607D01*
X629Y694D02*
X869D01*
Y728D01*
Y836D02*
Y870D01*
X629D02*
X869D01*
X629Y836D02*
Y870D01*
Y694D02*
Y728D01*
X623D02*
X629D01*
X869D02*
X875D01*
Y836D01*
X869D02*
X875D01*
X623D02*
X629D01*
X623Y728D02*
Y836D01*
X3596Y2775D02*
Y3015D01*
X3562D02*
X3596D01*
X3420D02*
X3454D01*
X3420Y2775D02*
Y3015D01*
Y2775D02*
X3454D01*
X3562D02*
X3596D01*
X3562Y2769D02*
Y2775D01*
Y3015D02*
Y3021D01*
X3454D02*
X3562D01*
X3454Y3015D02*
Y3021D01*
Y2769D02*
Y2775D01*
Y2769D02*
X3562D01*
X3793Y2780D02*
Y3020D01*
X3759D02*
X3793D01*
X3617D02*
X3651D01*
X3617Y2780D02*
Y3020D01*
Y2780D02*
X3651D01*
X3759D02*
X3793D01*
X3759Y2774D02*
Y2780D01*
Y3020D02*
Y3026D01*
X3651D02*
X3759D01*
X3651Y3020D02*
Y3026D01*
Y2774D02*
Y2780D01*
Y2774D02*
X3759D01*
X4297Y2778D02*
Y3018D01*
X4263D02*
X4297D01*
X4121D02*
X4155D01*
X4121Y2778D02*
Y3018D01*
Y2778D02*
X4155D01*
X4263D02*
X4297D01*
X4263Y2772D02*
Y2778D01*
Y3018D02*
Y3024D01*
X4155D02*
X4263D01*
X4155Y3018D02*
Y3024D01*
Y2772D02*
Y2778D01*
Y2772D02*
X4263D01*
X4499Y2778D02*
Y3018D01*
X4465D02*
X4499D01*
X4323D02*
X4357D01*
X4323Y2778D02*
Y3018D01*
Y2778D02*
X4357D01*
X4465D02*
X4499D01*
X4465Y2772D02*
Y2778D01*
Y3018D02*
Y3024D01*
X4357D02*
X4465D01*
X4357Y3018D02*
Y3024D01*
Y2772D02*
Y2778D01*
Y2772D02*
X4465D01*
D83*
X700Y1050D02*
X740D01*
X720Y1030D02*
Y1070D01*
X693Y3800D02*
X733D01*
X713Y3780D02*
Y3820D01*
X716Y3885D02*
Y3925D01*
X696Y3905D02*
X736D01*
X4670Y2847D02*
Y2887D01*
X4650Y2867D02*
X4690D01*
X3980Y2843D02*
Y2883D01*
X3960Y2863D02*
X4000D01*
X5410Y3560D02*
Y3600D01*
X5390Y3580D02*
X5430D01*
X5350Y3097D02*
Y3137D01*
X5330Y3117D02*
X5370D01*
X5240Y3095D02*
Y3135D01*
X5220Y3115D02*
X5260D01*
X5425Y3270D02*
X5465D01*
X5445Y3250D02*
Y3290D01*
X5641Y2768D02*
X5681D01*
X5661Y2748D02*
Y2788D01*
X3623Y4100D02*
X3663D01*
X3643Y4080D02*
Y4120D01*
X1367Y3960D02*
X1407D01*
X1387Y3940D02*
Y3980D01*
X1315Y3800D02*
X1355D01*
X1335Y3780D02*
Y3820D01*
X6055Y3100D02*
Y3140D01*
X6035Y3120D02*
X6075D01*
X1772Y4241D02*
Y4281D01*
X1752Y4261D02*
X1792D01*
X2762Y4260D02*
X2802D01*
X2782Y4240D02*
Y4280D01*
X2502Y4260D02*
X2542D01*
X2522Y4240D02*
Y4280D01*
X2032Y4241D02*
Y4281D01*
X2012Y4261D02*
X2052D01*
X1212Y4271D02*
X1252D01*
X1232Y4251D02*
Y4291D01*
X957Y4271D02*
X997D01*
X977Y4251D02*
Y4291D01*
X6295Y3913D02*
X6345Y3963D01*
Y3913D02*
Y4098D01*
X5925D02*
X6345D01*
X5925Y3913D02*
Y4098D01*
Y3913D02*
X6345D01*
X5826D02*
X5876Y3963D01*
Y3913D02*
Y4098D01*
X5456D02*
X5876D01*
X5456Y3913D02*
Y4098D01*
Y3913D02*
X5876D01*
X6160Y3430D02*
Y3469D01*
X6140Y3449D02*
X6180D01*
X6125Y3685D02*
X6165D01*
X6145Y3665D02*
Y3705D01*
X5981Y3731D02*
Y3770D01*
X5961Y3751D02*
X6000D01*
X1335Y3353D02*
Y3393D01*
X1315Y3373D02*
X1355D01*
X1325Y2055D02*
Y2095D01*
X1305Y2075D02*
X1345D01*
X2043Y3900D02*
Y3940D01*
X2023Y3920D02*
X2063D01*
X5105Y2722D02*
Y2762D01*
X5085Y2742D02*
X5125D01*
X5510Y3370D02*
Y3410D01*
X5490Y3390D02*
X5530D01*
X3615Y3690D02*
X3655D01*
X3635Y3670D02*
Y3710D01*
X3831Y3594D02*
Y3633D01*
X3811Y3613D02*
X3851D01*
X5744Y3798D02*
X5784D01*
X5764Y3778D02*
Y3818D01*
X5854Y3797D02*
X5894D01*
X5874Y3777D02*
Y3817D01*
X5750Y3401D02*
X5790D01*
X5770Y3382D02*
Y3421D01*
X6245Y3450D02*
X6285D01*
X6265Y3430D02*
Y3470D01*
X5460Y3120D02*
X5500D01*
X5480Y3100D02*
Y3140D01*
X5585Y3098D02*
Y3138D01*
X5565Y3118D02*
X5605D01*
X6270Y3120D02*
X6310D01*
X6290Y3100D02*
Y3140D01*
X6165Y3120D02*
X6205D01*
X6185Y3100D02*
Y3140D01*
X5821Y3098D02*
Y3137D01*
X5801Y3118D02*
X5841D01*
X5930Y3120D02*
X5970D01*
X5950Y3100D02*
Y3140D01*
X5695Y3120D02*
X5735D01*
X5715Y3100D02*
Y3140D01*
X2400Y1003D02*
Y1043D01*
X2380Y1023D02*
X2420D01*
X2395Y537D02*
Y577D01*
X2375Y557D02*
X2415D01*
X1880Y965D02*
X1920D01*
X1900Y945D02*
Y985D01*
X3260Y1960D02*
X3300D01*
X3280Y1940D02*
Y1980D01*
X3260Y2220D02*
X3300D01*
X3280Y2200D02*
Y2240D01*
X925Y3150D02*
Y3190D01*
X905Y3170D02*
X945D01*
X985Y2640D02*
X1025D01*
X1005Y2620D02*
Y2660D01*
X775Y2635D02*
X815D01*
X795Y2615D02*
Y2655D01*
X3185Y470D02*
Y2870D01*
X2485D02*
X3185D01*
X2485Y470D02*
X3185D01*
X2485D02*
Y2870D01*
X1540Y965D02*
X1580D01*
X1560Y945D02*
Y985D01*
X5555Y3780D02*
X5595D01*
X5575Y3760D02*
Y3800D01*
X2405Y1267D02*
Y1306D01*
X2385Y1287D02*
X2425D01*
X2405Y1620D02*
Y1660D01*
X2385Y1640D02*
X2425D01*
X697Y1160D02*
X737D01*
X717Y1140D02*
Y1180D01*
X3864Y2843D02*
Y2883D01*
X3844Y2863D02*
X3884D01*
X4569Y2844D02*
Y2884D01*
X4549Y2864D02*
X4589D01*
X3485Y3953D02*
Y3993D01*
X3465Y3973D02*
X3505D01*
X5674Y3406D02*
Y3446D01*
X5654Y3426D02*
X5694D01*
D84*
X813Y1005D02*
Y1095D01*
X627Y1005D02*
Y1095D01*
Y1005D02*
X813D01*
X627Y1095D02*
X813D01*
X805Y3755D02*
Y3845D01*
X620Y3755D02*
Y3845D01*
Y3755D02*
X805D01*
X620Y3845D02*
X805D01*
X623Y3860D02*
X809D01*
X623Y3950D02*
X809D01*
Y3860D02*
Y3950D01*
X623Y3860D02*
Y3950D01*
X4625Y2960D02*
X4715D01*
X4625Y2775D02*
X4715D01*
Y2960D01*
X4625Y2775D02*
Y2960D01*
X3935Y2955D02*
X4025D01*
X3935Y2770D02*
X4025D01*
Y2955D01*
X3935Y2770D02*
Y2955D01*
X5721Y2402D02*
X6319D01*
X5721D02*
Y2706D01*
X6319Y2402D02*
Y2706D01*
X5721D02*
X6319D01*
X5367Y3669D02*
X5453D01*
X5367Y3491D02*
X5453D01*
Y3669D01*
X5367Y3491D02*
Y3669D01*
X5305Y3025D02*
X5395D01*
X5305Y3210D02*
X5395D01*
X5305Y3025D02*
Y3210D01*
X5395Y3025D02*
Y3210D01*
X5197Y3027D02*
X5283D01*
X5197Y3204D02*
X5283D01*
X5197Y3027D02*
Y3204D01*
X5283Y3027D02*
Y3204D01*
X5533Y3227D02*
Y3313D01*
X5356Y3227D02*
Y3313D01*
Y3227D02*
X5533D01*
X5356Y3313D02*
X5533D01*
X5750Y2725D02*
Y2811D01*
X5572Y2725D02*
Y2811D01*
Y2725D02*
X5750D01*
X5572Y2811D02*
X5750D01*
X5009Y2392D02*
X5336D01*
X5009D02*
Y2644D01*
X5336Y2392D02*
Y2644D01*
X5009D02*
X5336D01*
X5824Y3302D02*
X6104D01*
Y3610D01*
X5824Y3302D02*
Y3610D01*
X6104D01*
X1518Y4015D02*
X1826D01*
X1518Y3735D02*
X1826D01*
X1518D02*
Y4015D01*
X1826Y3735D02*
Y4015D01*
X3550Y4055D02*
Y4145D01*
Y4055D02*
X3735D01*
X3550Y4145D02*
X3735D01*
Y4055D02*
Y4145D01*
X1290Y2684D02*
Y2866D01*
Y2684D02*
X1380D01*
X1290Y2866D02*
X1380D01*
Y2684D02*
Y2866D01*
X1290Y3181D02*
X1380D01*
X1290Y2999D02*
Y3181D01*
X1380Y2999D02*
Y3181D01*
X1290Y2999D02*
X1380D01*
X1480Y3915D02*
Y4005D01*
X1295D02*
X1480D01*
X1295Y3915D02*
X1480D01*
X1295D02*
Y4005D01*
X1292Y3711D02*
Y3889D01*
X1378Y3711D02*
Y3889D01*
X1292Y3711D02*
X1378D01*
X1292Y3889D02*
X1378D01*
X6010Y3027D02*
X6100D01*
X6010D02*
Y3213D01*
X6100Y3027D02*
Y3213D01*
X6010D02*
X6100D01*
X1683Y4218D02*
X1861D01*
X1683Y4304D02*
X1861D01*
Y4218D02*
Y4304D01*
X1683Y4218D02*
Y4304D01*
X2672Y4217D02*
Y4303D01*
X2892Y4217D02*
Y4303D01*
X2672D02*
X2892D01*
X2672Y4217D02*
X2892D01*
X2433D02*
Y4303D01*
X2611Y4217D02*
Y4303D01*
X2433D02*
X2611D01*
X2433Y4217D02*
X2611D01*
X1922Y4218D02*
X2142D01*
X1922Y4304D02*
X2142D01*
Y4218D02*
Y4304D01*
X1922Y4218D02*
Y4304D01*
X1122Y4228D02*
Y4314D01*
X1342Y4228D02*
Y4314D01*
X1122D02*
X1342D01*
X1122Y4228D02*
X1342D01*
X247Y1766D02*
Y2093D01*
X498D01*
X247Y1766D02*
X498D01*
Y2093D01*
X2354Y707D02*
X2446D01*
Y893D01*
X2354D02*
X2446D01*
X2354Y707D02*
Y893D01*
X2165Y479D02*
Y661D01*
X2075D02*
X2165D01*
X2075Y479D02*
X2165D01*
X2075D02*
Y661D01*
X888Y4228D02*
Y4314D01*
X1065Y4228D02*
Y4314D01*
X888D02*
X1065D01*
X888Y4228D02*
X1065D01*
X4765Y3066D02*
Y3360D01*
X4553Y3066D02*
Y3360D01*
X4765D01*
X4553Y3066D02*
X4765D01*
X4032Y3038D02*
Y3332D01*
X3820Y3038D02*
Y3332D01*
X4032D01*
X3820Y3038D02*
X4032D01*
X889Y1005D02*
X1183D01*
X889Y1217D02*
X1183D01*
Y1005D02*
Y1217D01*
X889Y1005D02*
Y1217D01*
X884Y3733D02*
X1177D01*
X884Y3945D02*
X1177D01*
Y3733D02*
Y3945D01*
X884Y3733D02*
Y3945D01*
X6123Y3383D02*
X6197D01*
X6123Y3516D02*
X6197D01*
X6123Y3383D02*
Y3516D01*
X6197Y3383D02*
Y3516D01*
X6056Y3642D02*
Y3728D01*
X6234Y3642D02*
Y3728D01*
X6056D02*
X6234D01*
X6056Y3642D02*
X6234D01*
X5943Y3684D02*
X6018D01*
X5943Y3818D02*
X6018D01*
X5943Y3684D02*
Y3818D01*
X6018Y3684D02*
Y3818D01*
X1290Y3280D02*
X1380D01*
X1290Y3465D02*
X1380D01*
X1290Y3280D02*
Y3465D01*
X1380Y3280D02*
Y3465D01*
X548Y730D02*
Y1328D01*
X243D02*
X548D01*
X243Y730D02*
X548D01*
X243D02*
Y1328D01*
X1280Y2168D02*
X1370D01*
X1280Y1982D02*
X1370D01*
Y2168D01*
X1280Y1982D02*
Y2168D01*
X2135Y3875D02*
Y3965D01*
X1950D02*
X2135D01*
X1950Y3875D02*
X2135D01*
X1950D02*
Y3965D01*
X5012Y2697D02*
Y2787D01*
Y2697D02*
X5197D01*
X5012Y2787D02*
X5197D01*
Y2697D02*
Y2787D01*
X5599Y3347D02*
Y3433D01*
X5421D02*
X5599D01*
X5421Y3347D02*
X5599D01*
X5421D02*
Y3433D01*
X3493Y3574D02*
Y3806D01*
X3777Y3574D02*
Y3806D01*
X3493D02*
X3777D01*
X3493Y3574D02*
X3777D01*
X3794Y3547D02*
X3868D01*
X3794Y3680D02*
X3868D01*
X3794Y3547D02*
Y3680D01*
X3868Y3547D02*
Y3680D01*
X5721Y3709D02*
X5807D01*
Y3887D01*
X5721Y3709D02*
Y3887D01*
X5807D01*
X5831Y3886D02*
X5917D01*
X5831Y3709D02*
Y3886D01*
X5917Y3709D02*
Y3886D01*
X5831Y3709D02*
X5917D01*
X5733Y3335D02*
X5807D01*
Y3468D01*
X5733Y3335D02*
Y3468D01*
X5807D01*
X6222Y3361D02*
X6308D01*
Y3539D01*
X6222Y3361D02*
Y3539D01*
X6308D01*
X5437Y3209D02*
X5523D01*
Y3031D02*
Y3209D01*
X5437Y3031D02*
Y3209D01*
Y3031D02*
X5523D01*
X5540Y3210D02*
X5630D01*
Y3025D02*
Y3210D01*
X5540Y3025D02*
Y3210D01*
Y3025D02*
X5630D01*
X6245Y3213D02*
X6335D01*
Y3027D02*
Y3213D01*
X6245Y3027D02*
Y3213D01*
Y3027D02*
X6335D01*
X6142Y3209D02*
X6228D01*
Y3032D02*
Y3209D01*
X6142Y3032D02*
Y3209D01*
Y3032D02*
X6228D01*
X5776Y3210D02*
X5866D01*
Y3025D02*
Y3210D01*
X5776Y3025D02*
Y3210D01*
Y3025D02*
X5866D01*
X5907Y3209D02*
X5993D01*
Y3031D02*
Y3209D01*
X5907Y3031D02*
Y3209D01*
Y3031D02*
X5993D01*
X5672Y3209D02*
X5758D01*
Y3031D02*
Y3209D01*
X5672Y3031D02*
Y3209D01*
Y3031D02*
X5758D01*
X2355Y930D02*
X2445D01*
X2355Y1115D02*
X2445D01*
X2355Y930D02*
Y1115D01*
X2445Y930D02*
Y1115D01*
X2350Y465D02*
X2440D01*
X2350Y650D02*
X2440D01*
X2350Y465D02*
Y650D01*
X2440Y465D02*
Y650D01*
X1811Y1008D02*
X1989D01*
X1811Y922D02*
Y1008D01*
X1989Y922D02*
Y1008D01*
X1811Y922D02*
X1989D01*
X3237Y1871D02*
X3323D01*
Y2049D01*
X3237Y1871D02*
Y2049D01*
X3323D01*
X3237Y2309D02*
X3323D01*
X3237Y2131D02*
Y2309D01*
X3323Y2131D02*
Y2309D01*
X3237Y2131D02*
X3323D01*
X1014Y3127D02*
Y3213D01*
X836D02*
X1014D01*
X836Y3127D02*
X1014D01*
X836D02*
Y3213D01*
X960Y2547D02*
X1050D01*
Y2733D01*
X960Y2547D02*
Y2733D01*
X1050D01*
X750Y2542D02*
X840D01*
Y2728D01*
X750Y2542D02*
Y2728D01*
X840D01*
X1905Y479D02*
X1995D01*
Y661D01*
X1905Y479D02*
Y661D01*
X1995D01*
X1589Y1025D02*
Y1115D01*
Y1025D02*
X1771D01*
X1589Y1115D02*
X1771D01*
Y1025D02*
Y1115D01*
X2016Y1025D02*
Y1115D01*
X1834D02*
X2016D01*
X1834Y1025D02*
X2016D01*
X1834D02*
Y1115D01*
X1471Y1008D02*
X1649D01*
X1471Y922D02*
Y1008D01*
X1649Y922D02*
Y1008D01*
X1471Y922D02*
X1649D01*
X5664Y3737D02*
Y3823D01*
X5486Y3737D02*
Y3823D01*
Y3737D02*
X5664D01*
X5486Y3823D02*
X5664D01*
X2362Y1375D02*
X2448D01*
X2362Y1198D02*
X2448D01*
Y1375D01*
X2362Y1198D02*
Y1375D01*
Y1552D02*
X2448D01*
X2362Y1729D02*
X2448D01*
X2362Y1552D02*
Y1729D01*
X2448Y1552D02*
Y1729D01*
X253Y3476D02*
Y4074D01*
X558D01*
X253Y3476D02*
X558D01*
Y4074D01*
X3658Y2413D02*
X4256D01*
X3658D02*
Y2718D01*
X4256Y2413D02*
Y2718D01*
X3658D02*
X4256D01*
X4324Y2413D02*
X4922D01*
X4324D02*
Y2718D01*
X4922Y2413D02*
Y2718D01*
X4324D02*
X4922D01*
X2347Y2377D02*
Y2559D01*
Y2377D02*
X2437D01*
Y2559D01*
X2347D02*
X2437D01*
X625Y1115D02*
Y1205D01*
X810Y1115D02*
Y1205D01*
X625D02*
X810D01*
X625Y1115D02*
X810D01*
X3819Y2770D02*
X3909D01*
X3819Y2956D02*
X3909D01*
X3819Y2770D02*
Y2956D01*
X3909Y2770D02*
Y2956D01*
X4524Y2771D02*
X4614D01*
X4524Y2956D02*
X4614D01*
X4524Y2771D02*
Y2956D01*
X4614Y2771D02*
Y2956D01*
X3440Y4065D02*
X3530D01*
X3440Y3880D02*
X3530D01*
Y4065D01*
X3440Y3880D02*
Y4065D01*
X5629Y3519D02*
X5719D01*
X5629Y3333D02*
X5719D01*
Y3519D01*
X5629Y3333D02*
Y3519D01*
M02*
