G04*
G04 #@! TF.GenerationSoftware,Altium Limited,Altium Designer,23.1.1 (15)*
G04*
G04 Layer_Color=8388736*
%FSLAX23Y23*%
%MOIN*%
G70*
G04*
G04 #@! TF.SameCoordinates,15EB6A63-CFD6-40EC-87C0-43203FAF91A2*
G04*
G04*
G04 #@! TF.FilePolarity,Negative*
G04*
G01*
G75*
%ADD27R,0.086X0.087*%
%ADD29R,0.040X0.028*%
%ADD32R,0.070X0.138*%
%ADD45R,0.087X0.086*%
%ADD46R,0.059X0.079*%
%ADD47R,0.079X0.059*%
%ADD48R,0.037X0.069*%
%ADD49R,0.089X0.124*%
%ADD50R,0.073X0.055*%
%ADD51R,0.055X0.073*%
%ADD52R,0.037X0.053*%
%ADD53R,0.057X0.091*%
G04:AMPARAMS|DCode=54|XSize=70mil|YSize=24mil|CornerRadius=6mil|HoleSize=0mil|Usage=FLASHONLY|Rotation=90.000|XOffset=0mil|YOffset=0mil|HoleType=Round|Shape=RoundedRectangle|*
%AMROUNDEDRECTD54*
21,1,0.070,0.012,0,0,90.0*
21,1,0.058,0.024,0,0,90.0*
1,1,0.012,0.006,0.029*
1,1,0.012,0.006,-0.029*
1,1,0.012,-0.006,-0.029*
1,1,0.012,-0.006,0.029*
%
%ADD54ROUNDEDRECTD54*%
G04:AMPARAMS|DCode=55|XSize=70mil|YSize=24mil|CornerRadius=6mil|HoleSize=0mil|Usage=FLASHONLY|Rotation=0.000|XOffset=0mil|YOffset=0mil|HoleType=Round|Shape=RoundedRectangle|*
%AMROUNDEDRECTD55*
21,1,0.070,0.012,0,0,0.0*
21,1,0.058,0.024,0,0,0.0*
1,1,0.012,0.029,-0.006*
1,1,0.012,-0.029,-0.006*
1,1,0.012,-0.029,0.006*
1,1,0.012,0.029,0.006*
%
%ADD55ROUNDEDRECTD55*%
G04:AMPARAMS|DCode=56|XSize=52mil|YSize=51mil|CornerRadius=15mil|HoleSize=0mil|Usage=FLASHONLY|Rotation=90.000|XOffset=0mil|YOffset=0mil|HoleType=Round|Shape=RoundedRectangle|*
%AMROUNDEDRECTD56*
21,1,0.052,0.021,0,0,90.0*
21,1,0.023,0.051,0,0,90.0*
1,1,0.029,0.011,0.011*
1,1,0.029,0.011,-0.011*
1,1,0.029,-0.011,-0.011*
1,1,0.029,-0.011,0.011*
%
%ADD56ROUNDEDRECTD56*%
%ADD57R,0.067X0.071*%
%ADD58R,0.053X0.037*%
%ADD59R,0.091X0.057*%
G04:AMPARAMS|DCode=60|XSize=55mil|YSize=80mil|CornerRadius=10mil|HoleSize=0mil|Usage=FLASHONLY|Rotation=90.000|XOffset=0mil|YOffset=0mil|HoleType=Round|Shape=RoundedRectangle|*
%AMROUNDEDRECTD60*
21,1,0.055,0.060,0,0,90.0*
21,1,0.035,0.080,0,0,90.0*
1,1,0.020,0.030,0.018*
1,1,0.020,0.030,-0.018*
1,1,0.020,-0.030,-0.018*
1,1,0.020,-0.030,0.018*
%
%ADD60ROUNDEDRECTD60*%
%ADD61R,0.061X0.053*%
%ADD62R,0.069X0.037*%
%ADD63R,0.124X0.089*%
%ADD64R,0.087X0.079*%
%ADD65R,0.063X0.059*%
%ADD66O,0.069X0.032*%
G04:AMPARAMS|DCode=67|XSize=52mil|YSize=51mil|CornerRadius=15mil|HoleSize=0mil|Usage=FLASHONLY|Rotation=180.000|XOffset=0mil|YOffset=0mil|HoleType=Round|Shape=RoundedRectangle|*
%AMROUNDEDRECTD67*
21,1,0.052,0.021,0,0,180.0*
21,1,0.023,0.051,0,0,180.0*
1,1,0.029,-0.011,0.011*
1,1,0.029,0.011,0.011*
1,1,0.029,0.011,-0.011*
1,1,0.029,-0.011,-0.011*
%
%ADD67ROUNDEDRECTD67*%
%ADD68C,0.074*%
%ADD69C,0.084*%
%ADD70R,0.084X0.084*%
%ADD71C,0.138*%
G36*
X898Y1021D02*
X898Y1021D01*
X898Y1021D01*
X898Y1021D01*
X898Y1021D01*
X898Y1022D01*
X898Y1022D01*
X898Y1022D01*
X898Y1022D01*
X897Y1022D01*
X897Y1022D01*
X897Y1022D01*
X897Y1022D01*
X897Y1022D01*
X897Y1022D01*
X897Y1022D01*
X897Y1022D01*
X897Y1022D01*
X897Y1022D01*
X897Y1022D01*
X897Y1023D01*
X897Y1023D01*
X897Y1023D01*
X897Y1023D01*
X896Y1023D01*
X896Y1023D01*
X896Y1023D01*
X896Y1023D01*
X896Y1023D01*
X896Y1023D01*
Y1049D01*
X896Y1049D01*
X896Y1049D01*
X896Y1049D01*
X896Y1049D01*
X896Y1049D01*
X897Y1049D01*
X897Y1049D01*
X897Y1049D01*
X897Y1049D01*
X897Y1050D01*
X897Y1050D01*
X897Y1050D01*
X897Y1050D01*
X897Y1050D01*
X897Y1050D01*
X897Y1050D01*
X897Y1050D01*
X897Y1050D01*
X897Y1050D01*
X897Y1050D01*
X898Y1050D01*
X898Y1050D01*
X898Y1050D01*
X898Y1050D01*
X898Y1051D01*
X898Y1051D01*
X898Y1051D01*
X898Y1051D01*
X898Y1051D01*
X898Y1051D01*
X961D01*
X961Y1051D01*
X961Y1051D01*
X961Y1051D01*
X961Y1051D01*
X962Y1051D01*
X962Y1050D01*
X962Y1050D01*
X962Y1050D01*
X962Y1050D01*
X962Y1050D01*
X962Y1050D01*
X962Y1050D01*
X962Y1050D01*
X962Y1050D01*
X962Y1050D01*
X962Y1050D01*
X963Y1050D01*
X963Y1050D01*
X963Y1050D01*
X963Y1050D01*
X963Y1049D01*
X963Y1049D01*
X963Y1049D01*
X963Y1049D01*
X963Y1049D01*
X963Y1049D01*
X963Y1049D01*
X963Y1049D01*
X963Y1049D01*
X963Y1049D01*
Y1023D01*
X963Y1023D01*
X963Y1023D01*
X963Y1023D01*
X963Y1023D01*
X963Y1023D01*
X963Y1023D01*
X963Y1023D01*
X963Y1023D01*
X963Y1023D01*
X963Y1022D01*
X963Y1022D01*
X963Y1022D01*
X963Y1022D01*
X962Y1022D01*
X962Y1022D01*
X962Y1022D01*
X962Y1022D01*
X962Y1022D01*
X962Y1022D01*
X962Y1022D01*
X962Y1022D01*
X962Y1022D01*
X962Y1022D01*
X962Y1022D01*
X962Y1021D01*
X961Y1021D01*
X961Y1021D01*
X961Y1021D01*
X961Y1021D01*
X961Y1021D01*
X898D01*
X898Y1021D01*
D02*
G37*
G36*
Y1071D02*
X898Y1071D01*
X898Y1071D01*
X898Y1071D01*
X898Y1071D01*
X898Y1072D01*
X898Y1072D01*
X898Y1072D01*
X898Y1072D01*
X897Y1072D01*
X897Y1072D01*
X897Y1072D01*
X897Y1072D01*
X897Y1072D01*
X897Y1072D01*
X897Y1072D01*
X897Y1072D01*
X897Y1072D01*
X897Y1072D01*
X897Y1072D01*
X897Y1073D01*
X897Y1073D01*
X897Y1073D01*
X897Y1073D01*
X896Y1073D01*
X896Y1073D01*
X896Y1073D01*
X896Y1073D01*
X896Y1073D01*
X896Y1073D01*
Y1099D01*
X896Y1099D01*
X896Y1099D01*
X896Y1099D01*
X896Y1099D01*
X896Y1099D01*
X897Y1099D01*
X897Y1099D01*
X897Y1099D01*
X897Y1099D01*
X897Y1100D01*
X897Y1100D01*
X897Y1100D01*
X897Y1100D01*
X897Y1100D01*
X897Y1100D01*
X897Y1100D01*
X897Y1100D01*
X897Y1100D01*
X897Y1100D01*
X897Y1100D01*
X898Y1100D01*
X898Y1100D01*
X898Y1100D01*
X898Y1100D01*
X898Y1100D01*
X898Y1101D01*
X898Y1101D01*
X898Y1101D01*
X898Y1101D01*
X898Y1101D01*
X961D01*
X961Y1101D01*
X961Y1101D01*
X961Y1101D01*
X961Y1101D01*
X962Y1100D01*
X962Y1100D01*
X962Y1100D01*
X962Y1100D01*
X962Y1100D01*
X962Y1100D01*
X962Y1100D01*
X962Y1100D01*
X962Y1100D01*
X962Y1100D01*
X962Y1100D01*
X962Y1100D01*
X963Y1100D01*
X963Y1100D01*
X963Y1100D01*
X963Y1100D01*
X963Y1099D01*
X963Y1099D01*
X963Y1099D01*
X963Y1099D01*
X963Y1099D01*
X963Y1099D01*
X963Y1099D01*
X963Y1099D01*
X963Y1099D01*
X963Y1099D01*
Y1073D01*
X963Y1073D01*
X963Y1073D01*
X963Y1073D01*
X963Y1073D01*
X963Y1073D01*
X963Y1073D01*
X963Y1073D01*
X963Y1073D01*
X963Y1073D01*
X963Y1072D01*
X963Y1072D01*
X963Y1072D01*
X963Y1072D01*
X962Y1072D01*
X962Y1072D01*
X962Y1072D01*
X962Y1072D01*
X962Y1072D01*
X962Y1072D01*
X962Y1072D01*
X962Y1072D01*
X962Y1072D01*
X962Y1072D01*
X962Y1072D01*
X962Y1071D01*
X961Y1071D01*
X961Y1071D01*
X961Y1071D01*
X961Y1071D01*
X961Y1071D01*
X898D01*
X898Y1071D01*
D02*
G37*
G36*
Y1121D02*
X898Y1121D01*
X898Y1121D01*
X898Y1121D01*
X898Y1122D01*
X898Y1122D01*
X898Y1122D01*
X898Y1122D01*
X898Y1122D01*
X897Y1122D01*
X897Y1122D01*
X897Y1122D01*
X897Y1122D01*
X897Y1122D01*
X897Y1122D01*
X897Y1122D01*
X897Y1122D01*
X897Y1122D01*
X897Y1122D01*
X897Y1122D01*
X897Y1123D01*
X897Y1123D01*
X897Y1123D01*
X897Y1123D01*
X896Y1123D01*
X896Y1123D01*
X896Y1123D01*
X896Y1123D01*
X896Y1123D01*
X896Y1123D01*
Y1149D01*
X896Y1149D01*
X896Y1149D01*
X896Y1149D01*
X896Y1149D01*
X896Y1149D01*
X897Y1149D01*
X897Y1149D01*
X897Y1149D01*
X897Y1149D01*
X897Y1150D01*
X897Y1150D01*
X897Y1150D01*
X897Y1150D01*
X897Y1150D01*
X897Y1150D01*
X897Y1150D01*
X897Y1150D01*
X897Y1150D01*
X897Y1150D01*
X897Y1150D01*
X898Y1150D01*
X898Y1150D01*
X898Y1150D01*
X898Y1150D01*
X898Y1151D01*
X898Y1151D01*
X898Y1151D01*
X898Y1151D01*
X898Y1151D01*
X898Y1151D01*
X961D01*
X961Y1151D01*
X961Y1151D01*
X961Y1151D01*
X961Y1151D01*
X962Y1151D01*
X962Y1150D01*
X962Y1150D01*
X962Y1150D01*
X962Y1150D01*
X962Y1150D01*
X962Y1150D01*
X962Y1150D01*
X962Y1150D01*
X962Y1150D01*
X962Y1150D01*
X962Y1150D01*
X963Y1150D01*
X963Y1150D01*
X963Y1150D01*
X963Y1150D01*
X963Y1149D01*
X963Y1149D01*
X963Y1149D01*
X963Y1149D01*
X963Y1149D01*
X963Y1149D01*
X963Y1149D01*
X963Y1149D01*
X963Y1149D01*
X963Y1149D01*
Y1123D01*
X963Y1123D01*
X963Y1123D01*
X963Y1123D01*
X963Y1123D01*
X963Y1123D01*
X963Y1123D01*
X963Y1123D01*
X963Y1123D01*
X963Y1123D01*
X963Y1122D01*
X963Y1122D01*
X963Y1122D01*
X963Y1122D01*
X962Y1122D01*
X962Y1122D01*
X962Y1122D01*
X962Y1122D01*
X962Y1122D01*
X962Y1122D01*
X962Y1122D01*
X962Y1122D01*
X962Y1122D01*
X962Y1122D01*
X962Y1122D01*
X962Y1122D01*
X961Y1121D01*
X961Y1121D01*
X961Y1121D01*
X961Y1121D01*
X961Y1121D01*
X898D01*
X898Y1121D01*
D02*
G37*
G36*
Y1171D02*
X898Y1171D01*
X898Y1171D01*
X898Y1171D01*
X898Y1171D01*
X898Y1172D01*
X898Y1172D01*
X898Y1172D01*
X898Y1172D01*
X897Y1172D01*
X897Y1172D01*
X897Y1172D01*
X897Y1172D01*
X897Y1172D01*
X897Y1172D01*
X897Y1172D01*
X897Y1172D01*
X897Y1172D01*
X897Y1172D01*
X897Y1172D01*
X897Y1173D01*
X897Y1173D01*
X897Y1173D01*
X897Y1173D01*
X896Y1173D01*
X896Y1173D01*
X896Y1173D01*
X896Y1173D01*
X896Y1173D01*
X896Y1173D01*
Y1199D01*
X896Y1199D01*
X896Y1199D01*
X896Y1199D01*
X896Y1199D01*
X896Y1199D01*
X897Y1199D01*
X897Y1199D01*
X897Y1199D01*
X897Y1199D01*
X897Y1200D01*
X897Y1200D01*
X897Y1200D01*
X897Y1200D01*
X897Y1200D01*
X897Y1200D01*
X897Y1200D01*
X897Y1200D01*
X897Y1200D01*
X897Y1200D01*
X897Y1200D01*
X898Y1200D01*
X898Y1200D01*
X898Y1200D01*
X898Y1200D01*
X898Y1201D01*
X898Y1201D01*
X898Y1201D01*
X898Y1201D01*
X898Y1201D01*
X898Y1201D01*
X961D01*
X961Y1201D01*
X961Y1201D01*
X961Y1201D01*
X961Y1201D01*
X962Y1201D01*
X962Y1200D01*
X962Y1200D01*
X962Y1200D01*
X962Y1200D01*
X962Y1200D01*
X962Y1200D01*
X962Y1200D01*
X962Y1200D01*
X962Y1200D01*
X962Y1200D01*
X962Y1200D01*
X963Y1200D01*
X963Y1200D01*
X963Y1200D01*
X963Y1200D01*
X963Y1199D01*
X963Y1199D01*
X963Y1199D01*
X963Y1199D01*
X963Y1199D01*
X963Y1199D01*
X963Y1199D01*
X963Y1199D01*
X963Y1199D01*
X963Y1199D01*
Y1173D01*
X963Y1173D01*
X963Y1173D01*
X963Y1173D01*
X963Y1173D01*
X963Y1173D01*
X963Y1173D01*
X963Y1173D01*
X963Y1173D01*
X963Y1173D01*
X963Y1172D01*
X963Y1172D01*
X963Y1172D01*
X963Y1172D01*
X962Y1172D01*
X962Y1172D01*
X962Y1172D01*
X962Y1172D01*
X962Y1172D01*
X962Y1172D01*
X962Y1172D01*
X962Y1172D01*
X962Y1172D01*
X962Y1172D01*
X962Y1172D01*
X962Y1171D01*
X961Y1171D01*
X961Y1171D01*
X961Y1171D01*
X961Y1171D01*
X961Y1171D01*
X898D01*
X898Y1171D01*
D02*
G37*
G36*
X1174Y1201D02*
X1174Y1201D01*
X1174Y1201D01*
X1174Y1201D01*
X1174Y1201D01*
X1174Y1200D01*
X1174Y1200D01*
X1174Y1200D01*
X1174Y1200D01*
X1175Y1200D01*
X1175Y1200D01*
X1175Y1200D01*
X1175Y1200D01*
X1175Y1200D01*
X1175Y1200D01*
X1175Y1200D01*
X1175Y1200D01*
X1175Y1200D01*
X1175Y1200D01*
X1175Y1200D01*
X1175Y1199D01*
X1175Y1199D01*
X1175Y1199D01*
X1175Y1199D01*
X1176Y1199D01*
X1176Y1199D01*
X1176Y1199D01*
X1176Y1199D01*
X1176Y1199D01*
X1176Y1199D01*
Y1173D01*
X1176Y1173D01*
X1176Y1173D01*
X1176Y1173D01*
X1176Y1173D01*
X1176Y1173D01*
X1175Y1173D01*
X1175Y1173D01*
X1175Y1173D01*
X1175Y1173D01*
X1175Y1172D01*
X1175Y1172D01*
X1175Y1172D01*
X1175Y1172D01*
X1175Y1172D01*
X1175Y1172D01*
X1175Y1172D01*
X1175Y1172D01*
X1175Y1172D01*
X1175Y1172D01*
X1175Y1172D01*
X1174Y1172D01*
X1174Y1172D01*
X1174Y1172D01*
X1174Y1172D01*
X1174Y1171D01*
X1174Y1171D01*
X1174Y1171D01*
X1174Y1171D01*
X1174Y1171D01*
X1174Y1171D01*
X1111D01*
X1111Y1171D01*
X1111Y1171D01*
X1111Y1171D01*
X1111Y1171D01*
X1110Y1171D01*
X1110Y1172D01*
X1110Y1172D01*
X1110Y1172D01*
X1110Y1172D01*
X1110Y1172D01*
X1110Y1172D01*
X1110Y1172D01*
X1110Y1172D01*
X1110Y1172D01*
X1110Y1172D01*
X1110Y1172D01*
X1109Y1172D01*
X1109Y1172D01*
X1109Y1172D01*
X1109Y1172D01*
X1109Y1173D01*
X1109Y1173D01*
X1109Y1173D01*
X1109Y1173D01*
X1109Y1173D01*
X1109Y1173D01*
X1109Y1173D01*
X1109Y1173D01*
X1109Y1173D01*
X1109Y1173D01*
Y1199D01*
X1109Y1199D01*
X1109Y1199D01*
X1109Y1199D01*
X1109Y1199D01*
X1109Y1199D01*
X1109Y1199D01*
X1109Y1199D01*
X1109Y1199D01*
X1109Y1199D01*
X1109Y1200D01*
X1109Y1200D01*
X1109Y1200D01*
X1109Y1200D01*
X1110Y1200D01*
X1110Y1200D01*
X1110Y1200D01*
X1110Y1200D01*
X1110Y1200D01*
X1110Y1200D01*
X1110Y1200D01*
X1110Y1200D01*
X1110Y1200D01*
X1110Y1200D01*
X1110Y1200D01*
X1110Y1201D01*
X1111Y1201D01*
X1111Y1201D01*
X1111Y1201D01*
X1111Y1201D01*
X1111Y1201D01*
X1174D01*
X1174Y1201D01*
D02*
G37*
G36*
Y1151D02*
X1174Y1151D01*
X1174Y1151D01*
X1174Y1151D01*
X1174Y1151D01*
X1174Y1150D01*
X1174Y1150D01*
X1174Y1150D01*
X1174Y1150D01*
X1175Y1150D01*
X1175Y1150D01*
X1175Y1150D01*
X1175Y1150D01*
X1175Y1150D01*
X1175Y1150D01*
X1175Y1150D01*
X1175Y1150D01*
X1175Y1150D01*
X1175Y1150D01*
X1175Y1150D01*
X1175Y1149D01*
X1175Y1149D01*
X1175Y1149D01*
X1175Y1149D01*
X1176Y1149D01*
X1176Y1149D01*
X1176Y1149D01*
X1176Y1149D01*
X1176Y1149D01*
X1176Y1149D01*
Y1123D01*
X1176Y1123D01*
X1176Y1123D01*
X1176Y1123D01*
X1176Y1123D01*
X1176Y1123D01*
X1175Y1123D01*
X1175Y1123D01*
X1175Y1123D01*
X1175Y1123D01*
X1175Y1122D01*
X1175Y1122D01*
X1175Y1122D01*
X1175Y1122D01*
X1175Y1122D01*
X1175Y1122D01*
X1175Y1122D01*
X1175Y1122D01*
X1175Y1122D01*
X1175Y1122D01*
X1175Y1122D01*
X1174Y1122D01*
X1174Y1122D01*
X1174Y1122D01*
X1174Y1122D01*
X1174Y1122D01*
X1174Y1121D01*
X1174Y1121D01*
X1174Y1121D01*
X1174Y1121D01*
X1174Y1121D01*
X1111D01*
X1111Y1121D01*
X1111Y1121D01*
X1111Y1121D01*
X1111Y1121D01*
X1110Y1122D01*
X1110Y1122D01*
X1110Y1122D01*
X1110Y1122D01*
X1110Y1122D01*
X1110Y1122D01*
X1110Y1122D01*
X1110Y1122D01*
X1110Y1122D01*
X1110Y1122D01*
X1110Y1122D01*
X1110Y1122D01*
X1109Y1122D01*
X1109Y1122D01*
X1109Y1122D01*
X1109Y1122D01*
X1109Y1123D01*
X1109Y1123D01*
X1109Y1123D01*
X1109Y1123D01*
X1109Y1123D01*
X1109Y1123D01*
X1109Y1123D01*
X1109Y1123D01*
X1109Y1123D01*
X1109Y1123D01*
Y1149D01*
X1109Y1149D01*
X1109Y1149D01*
X1109Y1149D01*
X1109Y1149D01*
X1109Y1149D01*
X1109Y1149D01*
X1109Y1149D01*
X1109Y1149D01*
X1109Y1149D01*
X1109Y1150D01*
X1109Y1150D01*
X1109Y1150D01*
X1109Y1150D01*
X1110Y1150D01*
X1110Y1150D01*
X1110Y1150D01*
X1110Y1150D01*
X1110Y1150D01*
X1110Y1150D01*
X1110Y1150D01*
X1110Y1150D01*
X1110Y1150D01*
X1110Y1150D01*
X1110Y1150D01*
X1110Y1151D01*
X1111Y1151D01*
X1111Y1151D01*
X1111Y1151D01*
X1111Y1151D01*
X1111Y1151D01*
X1174D01*
X1174Y1151D01*
D02*
G37*
G36*
Y1101D02*
X1174Y1101D01*
X1174Y1101D01*
X1174Y1101D01*
X1174Y1100D01*
X1174Y1100D01*
X1174Y1100D01*
X1174Y1100D01*
X1174Y1100D01*
X1175Y1100D01*
X1175Y1100D01*
X1175Y1100D01*
X1175Y1100D01*
X1175Y1100D01*
X1175Y1100D01*
X1175Y1100D01*
X1175Y1100D01*
X1175Y1100D01*
X1175Y1100D01*
X1175Y1100D01*
X1175Y1099D01*
X1175Y1099D01*
X1175Y1099D01*
X1175Y1099D01*
X1176Y1099D01*
X1176Y1099D01*
X1176Y1099D01*
X1176Y1099D01*
X1176Y1099D01*
X1176Y1099D01*
Y1073D01*
X1176Y1073D01*
X1176Y1073D01*
X1176Y1073D01*
X1176Y1073D01*
X1176Y1073D01*
X1175Y1073D01*
X1175Y1073D01*
X1175Y1073D01*
X1175Y1073D01*
X1175Y1072D01*
X1175Y1072D01*
X1175Y1072D01*
X1175Y1072D01*
X1175Y1072D01*
X1175Y1072D01*
X1175Y1072D01*
X1175Y1072D01*
X1175Y1072D01*
X1175Y1072D01*
X1175Y1072D01*
X1174Y1072D01*
X1174Y1072D01*
X1174Y1072D01*
X1174Y1072D01*
X1174Y1071D01*
X1174Y1071D01*
X1174Y1071D01*
X1174Y1071D01*
X1174Y1071D01*
X1174Y1071D01*
X1111D01*
X1111Y1071D01*
X1111Y1071D01*
X1111Y1071D01*
X1111Y1071D01*
X1110Y1071D01*
X1110Y1072D01*
X1110Y1072D01*
X1110Y1072D01*
X1110Y1072D01*
X1110Y1072D01*
X1110Y1072D01*
X1110Y1072D01*
X1110Y1072D01*
X1110Y1072D01*
X1110Y1072D01*
X1110Y1072D01*
X1109Y1072D01*
X1109Y1072D01*
X1109Y1072D01*
X1109Y1072D01*
X1109Y1073D01*
X1109Y1073D01*
X1109Y1073D01*
X1109Y1073D01*
X1109Y1073D01*
X1109Y1073D01*
X1109Y1073D01*
X1109Y1073D01*
X1109Y1073D01*
X1109Y1073D01*
Y1099D01*
X1109Y1099D01*
X1109Y1099D01*
X1109Y1099D01*
X1109Y1099D01*
X1109Y1099D01*
X1109Y1099D01*
X1109Y1099D01*
X1109Y1099D01*
X1109Y1099D01*
X1109Y1100D01*
X1109Y1100D01*
X1109Y1100D01*
X1109Y1100D01*
X1110Y1100D01*
X1110Y1100D01*
X1110Y1100D01*
X1110Y1100D01*
X1110Y1100D01*
X1110Y1100D01*
X1110Y1100D01*
X1110Y1100D01*
X1110Y1100D01*
X1110Y1100D01*
X1110Y1100D01*
X1110Y1100D01*
X1111Y1101D01*
X1111Y1101D01*
X1111Y1101D01*
X1111Y1101D01*
X1111Y1101D01*
X1174D01*
X1174Y1101D01*
D02*
G37*
G36*
X1089Y1044D02*
X983D01*
Y1178D01*
X1089D01*
Y1044D01*
D02*
G37*
G36*
X1174Y1051D02*
X1174Y1051D01*
X1174Y1051D01*
X1174Y1051D01*
X1174Y1051D01*
X1174Y1050D01*
X1174Y1050D01*
X1174Y1050D01*
X1174Y1050D01*
X1175Y1050D01*
X1175Y1050D01*
X1175Y1050D01*
X1175Y1050D01*
X1175Y1050D01*
X1175Y1050D01*
X1175Y1050D01*
X1175Y1050D01*
X1175Y1050D01*
X1175Y1050D01*
X1175Y1050D01*
X1175Y1049D01*
X1175Y1049D01*
X1175Y1049D01*
X1175Y1049D01*
X1176Y1049D01*
X1176Y1049D01*
X1176Y1049D01*
X1176Y1049D01*
X1176Y1049D01*
X1176Y1049D01*
Y1023D01*
X1176Y1023D01*
X1176Y1023D01*
X1176Y1023D01*
X1176Y1023D01*
X1176Y1023D01*
X1175Y1023D01*
X1175Y1023D01*
X1175Y1023D01*
X1175Y1023D01*
X1175Y1022D01*
X1175Y1022D01*
X1175Y1022D01*
X1175Y1022D01*
X1175Y1022D01*
X1175Y1022D01*
X1175Y1022D01*
X1175Y1022D01*
X1175Y1022D01*
X1175Y1022D01*
X1175Y1022D01*
X1174Y1022D01*
X1174Y1022D01*
X1174Y1022D01*
X1174Y1022D01*
X1174Y1021D01*
X1174Y1021D01*
X1174Y1021D01*
X1174Y1021D01*
X1174Y1021D01*
X1174Y1021D01*
X1111D01*
X1111Y1021D01*
X1111Y1021D01*
X1111Y1021D01*
X1111Y1021D01*
X1110Y1021D01*
X1110Y1022D01*
X1110Y1022D01*
X1110Y1022D01*
X1110Y1022D01*
X1110Y1022D01*
X1110Y1022D01*
X1110Y1022D01*
X1110Y1022D01*
X1110Y1022D01*
X1110Y1022D01*
X1110Y1022D01*
X1109Y1022D01*
X1109Y1022D01*
X1109Y1022D01*
X1109Y1022D01*
X1109Y1023D01*
X1109Y1023D01*
X1109Y1023D01*
X1109Y1023D01*
X1109Y1023D01*
X1109Y1023D01*
X1109Y1023D01*
X1109Y1023D01*
X1109Y1023D01*
X1109Y1023D01*
Y1049D01*
X1109Y1049D01*
X1109Y1049D01*
X1109Y1049D01*
X1109Y1049D01*
X1109Y1049D01*
X1109Y1049D01*
X1109Y1049D01*
X1109Y1049D01*
X1109Y1049D01*
X1109Y1050D01*
X1109Y1050D01*
X1109Y1050D01*
X1109Y1050D01*
X1110Y1050D01*
X1110Y1050D01*
X1110Y1050D01*
X1110Y1050D01*
X1110Y1050D01*
X1110Y1050D01*
X1110Y1050D01*
X1110Y1050D01*
X1110Y1050D01*
X1110Y1050D01*
X1110Y1050D01*
X1110Y1051D01*
X1111Y1051D01*
X1111Y1051D01*
X1111Y1051D01*
X1111Y1051D01*
X1111Y1051D01*
X1174D01*
X1174Y1051D01*
D02*
G37*
G36*
X956Y3929D02*
X956Y3929D01*
X956Y3929D01*
X956Y3929D01*
X956Y3928D01*
X956Y3928D01*
X956Y3928D01*
X957Y3928D01*
X957Y3928D01*
X957Y3928D01*
X957Y3928D01*
X957Y3928D01*
X957Y3928D01*
X957Y3928D01*
X957Y3928D01*
X957Y3928D01*
X957Y3928D01*
X957Y3928D01*
X957Y3928D01*
X957Y3928D01*
X957Y3927D01*
X957Y3927D01*
X958Y3927D01*
X958Y3927D01*
X958Y3927D01*
X958Y3927D01*
X958Y3927D01*
X958Y3927D01*
X958Y3927D01*
X958Y3927D01*
Y3901D01*
X958Y3901D01*
X958Y3901D01*
X958Y3901D01*
X958Y3901D01*
X958Y3901D01*
X958Y3901D01*
X958Y3901D01*
X957Y3901D01*
X957Y3901D01*
X957Y3900D01*
X957Y3900D01*
X957Y3900D01*
X957Y3900D01*
X957Y3900D01*
X957Y3900D01*
X957Y3900D01*
X957Y3900D01*
X957Y3900D01*
X957Y3900D01*
X957Y3900D01*
X957Y3900D01*
X957Y3900D01*
X956Y3900D01*
X956Y3900D01*
X956Y3899D01*
X956Y3899D01*
X956Y3899D01*
X956Y3899D01*
X956Y3899D01*
X956Y3899D01*
X893D01*
X893Y3899D01*
X893Y3899D01*
X893Y3899D01*
X893Y3899D01*
X893Y3899D01*
X892Y3900D01*
X892Y3900D01*
X892Y3900D01*
X892Y3900D01*
X892Y3900D01*
X892Y3900D01*
X892Y3900D01*
X892Y3900D01*
X892Y3900D01*
X892Y3900D01*
X892Y3900D01*
X892Y3900D01*
X892Y3900D01*
X891Y3900D01*
X891Y3900D01*
X891Y3901D01*
X891Y3901D01*
X891Y3901D01*
X891Y3901D01*
X891Y3901D01*
X891Y3901D01*
X891Y3901D01*
X891Y3901D01*
X891Y3901D01*
X891Y3901D01*
Y3927D01*
X891Y3927D01*
X891Y3927D01*
X891Y3927D01*
X891Y3927D01*
X891Y3927D01*
X891Y3927D01*
X891Y3927D01*
X891Y3927D01*
X891Y3927D01*
X891Y3928D01*
X891Y3928D01*
X892Y3928D01*
X892Y3928D01*
X892Y3928D01*
X892Y3928D01*
X892Y3928D01*
X892Y3928D01*
X892Y3928D01*
X892Y3928D01*
X892Y3928D01*
X892Y3928D01*
X892Y3928D01*
X892Y3928D01*
X892Y3928D01*
X893Y3928D01*
X893Y3929D01*
X893Y3929D01*
X893Y3929D01*
X893Y3929D01*
X893Y3929D01*
X956D01*
X956Y3929D01*
D02*
G37*
G36*
Y3879D02*
X956Y3879D01*
X956Y3879D01*
X956Y3879D01*
X956Y3878D01*
X956Y3878D01*
X956Y3878D01*
X957Y3878D01*
X957Y3878D01*
X957Y3878D01*
X957Y3878D01*
X957Y3878D01*
X957Y3878D01*
X957Y3878D01*
X957Y3878D01*
X957Y3878D01*
X957Y3878D01*
X957Y3878D01*
X957Y3878D01*
X957Y3878D01*
X957Y3877D01*
X957Y3877D01*
X958Y3877D01*
X958Y3877D01*
X958Y3877D01*
X958Y3877D01*
X958Y3877D01*
X958Y3877D01*
X958Y3877D01*
X958Y3877D01*
Y3851D01*
X958Y3851D01*
X958Y3851D01*
X958Y3851D01*
X958Y3851D01*
X958Y3851D01*
X958Y3851D01*
X958Y3851D01*
X957Y3851D01*
X957Y3851D01*
X957Y3850D01*
X957Y3850D01*
X957Y3850D01*
X957Y3850D01*
X957Y3850D01*
X957Y3850D01*
X957Y3850D01*
X957Y3850D01*
X957Y3850D01*
X957Y3850D01*
X957Y3850D01*
X957Y3850D01*
X957Y3850D01*
X956Y3850D01*
X956Y3850D01*
X956Y3849D01*
X956Y3849D01*
X956Y3849D01*
X956Y3849D01*
X956Y3849D01*
X956Y3849D01*
X893D01*
X893Y3849D01*
X893Y3849D01*
X893Y3849D01*
X893Y3849D01*
X893Y3849D01*
X892Y3850D01*
X892Y3850D01*
X892Y3850D01*
X892Y3850D01*
X892Y3850D01*
X892Y3850D01*
X892Y3850D01*
X892Y3850D01*
X892Y3850D01*
X892Y3850D01*
X892Y3850D01*
X892Y3850D01*
X892Y3850D01*
X891Y3850D01*
X891Y3850D01*
X891Y3851D01*
X891Y3851D01*
X891Y3851D01*
X891Y3851D01*
X891Y3851D01*
X891Y3851D01*
X891Y3851D01*
X891Y3851D01*
X891Y3851D01*
X891Y3851D01*
Y3877D01*
X891Y3877D01*
X891Y3877D01*
X891Y3877D01*
X891Y3877D01*
X891Y3877D01*
X891Y3877D01*
X891Y3877D01*
X891Y3877D01*
X891Y3877D01*
X891Y3878D01*
X891Y3878D01*
X892Y3878D01*
X892Y3878D01*
X892Y3878D01*
X892Y3878D01*
X892Y3878D01*
X892Y3878D01*
X892Y3878D01*
X892Y3878D01*
X892Y3878D01*
X892Y3878D01*
X892Y3878D01*
X892Y3878D01*
X892Y3878D01*
X893Y3878D01*
X893Y3879D01*
X893Y3879D01*
X893Y3879D01*
X893Y3879D01*
X893Y3879D01*
X956D01*
X956Y3879D01*
D02*
G37*
G36*
Y3829D02*
X956Y3829D01*
X956Y3829D01*
X956Y3829D01*
X956Y3829D01*
X956Y3828D01*
X956Y3828D01*
X957Y3828D01*
X957Y3828D01*
X957Y3828D01*
X957Y3828D01*
X957Y3828D01*
X957Y3828D01*
X957Y3828D01*
X957Y3828D01*
X957Y3828D01*
X957Y3828D01*
X957Y3828D01*
X957Y3828D01*
X957Y3828D01*
X957Y3827D01*
X957Y3827D01*
X958Y3827D01*
X958Y3827D01*
X958Y3827D01*
X958Y3827D01*
X958Y3827D01*
X958Y3827D01*
X958Y3827D01*
X958Y3827D01*
Y3801D01*
X958Y3801D01*
X958Y3801D01*
X958Y3801D01*
X958Y3801D01*
X958Y3801D01*
X958Y3801D01*
X958Y3801D01*
X957Y3801D01*
X957Y3801D01*
X957Y3800D01*
X957Y3800D01*
X957Y3800D01*
X957Y3800D01*
X957Y3800D01*
X957Y3800D01*
X957Y3800D01*
X957Y3800D01*
X957Y3800D01*
X957Y3800D01*
X957Y3800D01*
X957Y3800D01*
X957Y3800D01*
X956Y3800D01*
X956Y3800D01*
X956Y3799D01*
X956Y3799D01*
X956Y3799D01*
X956Y3799D01*
X956Y3799D01*
X956Y3799D01*
X893D01*
X893Y3799D01*
X893Y3799D01*
X893Y3799D01*
X893Y3799D01*
X893Y3799D01*
X892Y3800D01*
X892Y3800D01*
X892Y3800D01*
X892Y3800D01*
X892Y3800D01*
X892Y3800D01*
X892Y3800D01*
X892Y3800D01*
X892Y3800D01*
X892Y3800D01*
X892Y3800D01*
X892Y3800D01*
X892Y3800D01*
X891Y3800D01*
X891Y3800D01*
X891Y3801D01*
X891Y3801D01*
X891Y3801D01*
X891Y3801D01*
X891Y3801D01*
X891Y3801D01*
X891Y3801D01*
X891Y3801D01*
X891Y3801D01*
X891Y3801D01*
Y3827D01*
X891Y3827D01*
X891Y3827D01*
X891Y3827D01*
X891Y3827D01*
X891Y3827D01*
X891Y3827D01*
X891Y3827D01*
X891Y3827D01*
X891Y3827D01*
X891Y3828D01*
X891Y3828D01*
X892Y3828D01*
X892Y3828D01*
X892Y3828D01*
X892Y3828D01*
X892Y3828D01*
X892Y3828D01*
X892Y3828D01*
X892Y3828D01*
X892Y3828D01*
X892Y3828D01*
X892Y3828D01*
X892Y3828D01*
X892Y3828D01*
X893Y3829D01*
X893Y3829D01*
X893Y3829D01*
X893Y3829D01*
X893Y3829D01*
X893Y3829D01*
X956D01*
X956Y3829D01*
D02*
G37*
G36*
X1084Y3772D02*
X977D01*
Y3906D01*
X1084D01*
Y3772D01*
D02*
G37*
G36*
X956Y3779D02*
X956Y3779D01*
X956Y3779D01*
X956Y3779D01*
X956Y3779D01*
X956Y3778D01*
X956Y3778D01*
X957Y3778D01*
X957Y3778D01*
X957Y3778D01*
X957Y3778D01*
X957Y3778D01*
X957Y3778D01*
X957Y3778D01*
X957Y3778D01*
X957Y3778D01*
X957Y3778D01*
X957Y3778D01*
X957Y3778D01*
X957Y3778D01*
X957Y3777D01*
X957Y3777D01*
X958Y3777D01*
X958Y3777D01*
X958Y3777D01*
X958Y3777D01*
X958Y3777D01*
X958Y3777D01*
X958Y3777D01*
X958Y3777D01*
Y3751D01*
X958Y3751D01*
X958Y3751D01*
X958Y3751D01*
X958Y3751D01*
X958Y3751D01*
X958Y3751D01*
X958Y3751D01*
X957Y3751D01*
X957Y3751D01*
X957Y3750D01*
X957Y3750D01*
X957Y3750D01*
X957Y3750D01*
X957Y3750D01*
X957Y3750D01*
X957Y3750D01*
X957Y3750D01*
X957Y3750D01*
X957Y3750D01*
X957Y3750D01*
X957Y3750D01*
X957Y3750D01*
X956Y3750D01*
X956Y3750D01*
X956Y3750D01*
X956Y3749D01*
X956Y3749D01*
X956Y3749D01*
X956Y3749D01*
X956Y3749D01*
X893D01*
X893Y3749D01*
X893Y3749D01*
X893Y3749D01*
X893Y3749D01*
X893Y3750D01*
X892Y3750D01*
X892Y3750D01*
X892Y3750D01*
X892Y3750D01*
X892Y3750D01*
X892Y3750D01*
X892Y3750D01*
X892Y3750D01*
X892Y3750D01*
X892Y3750D01*
X892Y3750D01*
X892Y3750D01*
X892Y3750D01*
X891Y3750D01*
X891Y3750D01*
X891Y3751D01*
X891Y3751D01*
X891Y3751D01*
X891Y3751D01*
X891Y3751D01*
X891Y3751D01*
X891Y3751D01*
X891Y3751D01*
X891Y3751D01*
X891Y3751D01*
Y3777D01*
X891Y3777D01*
X891Y3777D01*
X891Y3777D01*
X891Y3777D01*
X891Y3777D01*
X891Y3777D01*
X891Y3777D01*
X891Y3777D01*
X891Y3777D01*
X891Y3778D01*
X891Y3778D01*
X892Y3778D01*
X892Y3778D01*
X892Y3778D01*
X892Y3778D01*
X892Y3778D01*
X892Y3778D01*
X892Y3778D01*
X892Y3778D01*
X892Y3778D01*
X892Y3778D01*
X892Y3778D01*
X892Y3778D01*
X892Y3778D01*
X893Y3779D01*
X893Y3779D01*
X893Y3779D01*
X893Y3779D01*
X893Y3779D01*
X893Y3779D01*
X956D01*
X956Y3779D01*
D02*
G37*
G36*
X1106Y3749D02*
X1105Y3749D01*
X1105Y3749D01*
X1105Y3749D01*
X1105Y3750D01*
X1105Y3750D01*
X1105Y3750D01*
X1105Y3750D01*
X1105Y3750D01*
X1105Y3750D01*
X1105Y3750D01*
X1105Y3750D01*
X1104Y3750D01*
X1104Y3750D01*
X1104Y3750D01*
X1104Y3750D01*
X1104Y3750D01*
X1104Y3750D01*
X1104Y3750D01*
X1104Y3750D01*
X1104Y3751D01*
X1104Y3751D01*
X1104Y3751D01*
X1104Y3751D01*
X1104Y3751D01*
X1104Y3751D01*
X1104Y3751D01*
X1104Y3751D01*
X1104Y3751D01*
X1104Y3751D01*
Y3777D01*
X1104Y3777D01*
X1104Y3777D01*
X1104Y3777D01*
X1104Y3777D01*
X1104Y3777D01*
X1104Y3777D01*
X1104Y3777D01*
X1104Y3777D01*
X1104Y3777D01*
X1104Y3778D01*
X1104Y3778D01*
X1104Y3778D01*
X1104Y3778D01*
X1104Y3778D01*
X1104Y3778D01*
X1104Y3778D01*
X1104Y3778D01*
X1105Y3778D01*
X1105Y3778D01*
X1105Y3778D01*
X1105Y3778D01*
X1105Y3778D01*
X1105Y3778D01*
X1105Y3778D01*
X1105Y3779D01*
X1105Y3779D01*
X1105Y3779D01*
X1105Y3779D01*
X1106Y3779D01*
X1106Y3779D01*
X1168D01*
X1168Y3779D01*
X1169Y3779D01*
X1169Y3779D01*
X1169Y3779D01*
X1169Y3779D01*
X1169Y3778D01*
X1169Y3778D01*
X1169Y3778D01*
X1169Y3778D01*
X1169Y3778D01*
X1169Y3778D01*
X1169Y3778D01*
X1170Y3778D01*
X1170Y3778D01*
X1170Y3778D01*
X1170Y3778D01*
X1170Y3778D01*
X1170Y3778D01*
X1170Y3778D01*
X1170Y3778D01*
X1170Y3777D01*
X1170Y3777D01*
X1170Y3777D01*
X1170Y3777D01*
X1170Y3777D01*
X1170Y3777D01*
X1170Y3777D01*
X1170Y3777D01*
X1170Y3777D01*
X1170Y3777D01*
Y3751D01*
X1170Y3751D01*
X1170Y3751D01*
X1170Y3751D01*
X1170Y3751D01*
X1170Y3751D01*
X1170Y3751D01*
X1170Y3751D01*
X1170Y3751D01*
X1170Y3751D01*
X1170Y3750D01*
X1170Y3750D01*
X1170Y3750D01*
X1170Y3750D01*
X1170Y3750D01*
X1170Y3750D01*
X1170Y3750D01*
X1170Y3750D01*
X1169Y3750D01*
X1169Y3750D01*
X1169Y3750D01*
X1169Y3750D01*
X1169Y3750D01*
X1169Y3750D01*
X1169Y3750D01*
X1169Y3750D01*
X1169Y3749D01*
X1169Y3749D01*
X1169Y3749D01*
X1168Y3749D01*
X1168Y3749D01*
X1106D01*
X1106Y3749D01*
D02*
G37*
G36*
Y3799D02*
X1105Y3799D01*
X1105Y3799D01*
X1105Y3799D01*
X1105Y3799D01*
X1105Y3800D01*
X1105Y3800D01*
X1105Y3800D01*
X1105Y3800D01*
X1105Y3800D01*
X1105Y3800D01*
X1105Y3800D01*
X1104Y3800D01*
X1104Y3800D01*
X1104Y3800D01*
X1104Y3800D01*
X1104Y3800D01*
X1104Y3800D01*
X1104Y3800D01*
X1104Y3800D01*
X1104Y3801D01*
X1104Y3801D01*
X1104Y3801D01*
X1104Y3801D01*
X1104Y3801D01*
X1104Y3801D01*
X1104Y3801D01*
X1104Y3801D01*
X1104Y3801D01*
X1104Y3801D01*
Y3827D01*
X1104Y3827D01*
X1104Y3827D01*
X1104Y3827D01*
X1104Y3827D01*
X1104Y3827D01*
X1104Y3827D01*
X1104Y3827D01*
X1104Y3827D01*
X1104Y3827D01*
X1104Y3828D01*
X1104Y3828D01*
X1104Y3828D01*
X1104Y3828D01*
X1104Y3828D01*
X1104Y3828D01*
X1104Y3828D01*
X1104Y3828D01*
X1105Y3828D01*
X1105Y3828D01*
X1105Y3828D01*
X1105Y3828D01*
X1105Y3828D01*
X1105Y3828D01*
X1105Y3828D01*
X1105Y3829D01*
X1105Y3829D01*
X1105Y3829D01*
X1105Y3829D01*
X1106Y3829D01*
X1106Y3829D01*
X1168D01*
X1168Y3829D01*
X1169Y3829D01*
X1169Y3829D01*
X1169Y3829D01*
X1169Y3829D01*
X1169Y3828D01*
X1169Y3828D01*
X1169Y3828D01*
X1169Y3828D01*
X1169Y3828D01*
X1169Y3828D01*
X1169Y3828D01*
X1170Y3828D01*
X1170Y3828D01*
X1170Y3828D01*
X1170Y3828D01*
X1170Y3828D01*
X1170Y3828D01*
X1170Y3828D01*
X1170Y3828D01*
X1170Y3827D01*
X1170Y3827D01*
X1170Y3827D01*
X1170Y3827D01*
X1170Y3827D01*
X1170Y3827D01*
X1170Y3827D01*
X1170Y3827D01*
X1170Y3827D01*
X1170Y3827D01*
Y3801D01*
X1170Y3801D01*
X1170Y3801D01*
X1170Y3801D01*
X1170Y3801D01*
X1170Y3801D01*
X1170Y3801D01*
X1170Y3801D01*
X1170Y3801D01*
X1170Y3801D01*
X1170Y3800D01*
X1170Y3800D01*
X1170Y3800D01*
X1170Y3800D01*
X1170Y3800D01*
X1170Y3800D01*
X1170Y3800D01*
X1170Y3800D01*
X1169Y3800D01*
X1169Y3800D01*
X1169Y3800D01*
X1169Y3800D01*
X1169Y3800D01*
X1169Y3800D01*
X1169Y3800D01*
X1169Y3799D01*
X1169Y3799D01*
X1169Y3799D01*
X1169Y3799D01*
X1168Y3799D01*
X1168Y3799D01*
X1106D01*
X1106Y3799D01*
D02*
G37*
G36*
Y3849D02*
X1105Y3849D01*
X1105Y3849D01*
X1105Y3849D01*
X1105Y3849D01*
X1105Y3850D01*
X1105Y3850D01*
X1105Y3850D01*
X1105Y3850D01*
X1105Y3850D01*
X1105Y3850D01*
X1105Y3850D01*
X1104Y3850D01*
X1104Y3850D01*
X1104Y3850D01*
X1104Y3850D01*
X1104Y3850D01*
X1104Y3850D01*
X1104Y3850D01*
X1104Y3850D01*
X1104Y3851D01*
X1104Y3851D01*
X1104Y3851D01*
X1104Y3851D01*
X1104Y3851D01*
X1104Y3851D01*
X1104Y3851D01*
X1104Y3851D01*
X1104Y3851D01*
X1104Y3851D01*
Y3877D01*
X1104Y3877D01*
X1104Y3877D01*
X1104Y3877D01*
X1104Y3877D01*
X1104Y3877D01*
X1104Y3877D01*
X1104Y3877D01*
X1104Y3877D01*
X1104Y3877D01*
X1104Y3878D01*
X1104Y3878D01*
X1104Y3878D01*
X1104Y3878D01*
X1104Y3878D01*
X1104Y3878D01*
X1104Y3878D01*
X1104Y3878D01*
X1105Y3878D01*
X1105Y3878D01*
X1105Y3878D01*
X1105Y3878D01*
X1105Y3878D01*
X1105Y3878D01*
X1105Y3878D01*
X1105Y3878D01*
X1105Y3879D01*
X1105Y3879D01*
X1105Y3879D01*
X1106Y3879D01*
X1106Y3879D01*
X1168D01*
X1168Y3879D01*
X1169Y3879D01*
X1169Y3879D01*
X1169Y3879D01*
X1169Y3878D01*
X1169Y3878D01*
X1169Y3878D01*
X1169Y3878D01*
X1169Y3878D01*
X1169Y3878D01*
X1169Y3878D01*
X1169Y3878D01*
X1170Y3878D01*
X1170Y3878D01*
X1170Y3878D01*
X1170Y3878D01*
X1170Y3878D01*
X1170Y3878D01*
X1170Y3878D01*
X1170Y3878D01*
X1170Y3877D01*
X1170Y3877D01*
X1170Y3877D01*
X1170Y3877D01*
X1170Y3877D01*
X1170Y3877D01*
X1170Y3877D01*
X1170Y3877D01*
X1170Y3877D01*
X1170Y3877D01*
Y3851D01*
X1170Y3851D01*
X1170Y3851D01*
X1170Y3851D01*
X1170Y3851D01*
X1170Y3851D01*
X1170Y3851D01*
X1170Y3851D01*
X1170Y3851D01*
X1170Y3851D01*
X1170Y3850D01*
X1170Y3850D01*
X1170Y3850D01*
X1170Y3850D01*
X1170Y3850D01*
X1170Y3850D01*
X1170Y3850D01*
X1170Y3850D01*
X1169Y3850D01*
X1169Y3850D01*
X1169Y3850D01*
X1169Y3850D01*
X1169Y3850D01*
X1169Y3850D01*
X1169Y3850D01*
X1169Y3849D01*
X1169Y3849D01*
X1169Y3849D01*
X1169Y3849D01*
X1168Y3849D01*
X1168Y3849D01*
X1106D01*
X1106Y3849D01*
D02*
G37*
G36*
Y3899D02*
X1105Y3899D01*
X1105Y3899D01*
X1105Y3899D01*
X1105Y3899D01*
X1105Y3900D01*
X1105Y3900D01*
X1105Y3900D01*
X1105Y3900D01*
X1105Y3900D01*
X1105Y3900D01*
X1105Y3900D01*
X1104Y3900D01*
X1104Y3900D01*
X1104Y3900D01*
X1104Y3900D01*
X1104Y3900D01*
X1104Y3900D01*
X1104Y3900D01*
X1104Y3900D01*
X1104Y3901D01*
X1104Y3901D01*
X1104Y3901D01*
X1104Y3901D01*
X1104Y3901D01*
X1104Y3901D01*
X1104Y3901D01*
X1104Y3901D01*
X1104Y3901D01*
X1104Y3901D01*
Y3927D01*
X1104Y3927D01*
X1104Y3927D01*
X1104Y3927D01*
X1104Y3927D01*
X1104Y3927D01*
X1104Y3927D01*
X1104Y3927D01*
X1104Y3927D01*
X1104Y3927D01*
X1104Y3928D01*
X1104Y3928D01*
X1104Y3928D01*
X1104Y3928D01*
X1104Y3928D01*
X1104Y3928D01*
X1104Y3928D01*
X1104Y3928D01*
X1105Y3928D01*
X1105Y3928D01*
X1105Y3928D01*
X1105Y3928D01*
X1105Y3928D01*
X1105Y3928D01*
X1105Y3928D01*
X1105Y3928D01*
X1105Y3929D01*
X1105Y3929D01*
X1105Y3929D01*
X1106Y3929D01*
X1106Y3929D01*
X1168D01*
X1168Y3929D01*
X1169Y3929D01*
X1169Y3929D01*
X1169Y3929D01*
X1169Y3928D01*
X1169Y3928D01*
X1169Y3928D01*
X1169Y3928D01*
X1169Y3928D01*
X1169Y3928D01*
X1169Y3928D01*
X1169Y3928D01*
X1170Y3928D01*
X1170Y3928D01*
X1170Y3928D01*
X1170Y3928D01*
X1170Y3928D01*
X1170Y3928D01*
X1170Y3928D01*
X1170Y3928D01*
X1170Y3927D01*
X1170Y3927D01*
X1170Y3927D01*
X1170Y3927D01*
X1170Y3927D01*
X1170Y3927D01*
X1170Y3927D01*
X1170Y3927D01*
X1170Y3927D01*
X1170Y3927D01*
Y3901D01*
X1170Y3901D01*
X1170Y3901D01*
X1170Y3901D01*
X1170Y3901D01*
X1170Y3901D01*
X1170Y3901D01*
X1170Y3901D01*
X1170Y3901D01*
X1170Y3901D01*
X1170Y3900D01*
X1170Y3900D01*
X1170Y3900D01*
X1170Y3900D01*
X1170Y3900D01*
X1170Y3900D01*
X1170Y3900D01*
X1170Y3900D01*
X1169Y3900D01*
X1169Y3900D01*
X1169Y3900D01*
X1169Y3900D01*
X1169Y3900D01*
X1169Y3900D01*
X1169Y3900D01*
X1169Y3899D01*
X1169Y3899D01*
X1169Y3899D01*
X1169Y3899D01*
X1168Y3899D01*
X1168Y3899D01*
X1106D01*
X1106Y3899D01*
D02*
G37*
G36*
X3993Y3132D02*
X3859D01*
Y3238D01*
X3993D01*
Y3132D01*
D02*
G37*
G36*
X4014Y3112D02*
X4014Y3112D01*
X4014Y3112D01*
X4014Y3112D01*
X4014Y3112D01*
X4014Y3112D01*
X4014Y3112D01*
X4014Y3112D01*
X4014Y3112D01*
X4015Y3112D01*
X4015Y3112D01*
X4015Y3112D01*
X4015Y3112D01*
X4015Y3111D01*
X4015Y3111D01*
X4015Y3111D01*
X4015Y3111D01*
X4015Y3111D01*
X4015Y3111D01*
X4015Y3111D01*
X4015Y3111D01*
X4015Y3111D01*
X4015Y3111D01*
X4015Y3111D01*
X4016Y3111D01*
X4016Y3110D01*
X4016Y3110D01*
X4016Y3110D01*
X4016Y3110D01*
X4016Y3110D01*
Y3047D01*
X4016Y3047D01*
X4016Y3047D01*
X4016Y3047D01*
X4016Y3047D01*
X4016Y3047D01*
X4015Y3047D01*
X4015Y3047D01*
X4015Y3047D01*
X4015Y3047D01*
X4015Y3046D01*
X4015Y3046D01*
X4015Y3046D01*
X4015Y3046D01*
X4015Y3046D01*
X4015Y3046D01*
X4015Y3046D01*
X4015Y3046D01*
X4015Y3046D01*
X4015Y3046D01*
X4015Y3046D01*
X4014Y3046D01*
X4014Y3046D01*
X4014Y3046D01*
X4014Y3046D01*
X4014Y3046D01*
X4014Y3045D01*
X4014Y3045D01*
X4014Y3045D01*
X4014Y3045D01*
X4014Y3045D01*
X3988D01*
X3988Y3045D01*
X3988Y3045D01*
X3988Y3045D01*
X3988Y3045D01*
X3988Y3046D01*
X3988Y3046D01*
X3988Y3046D01*
X3988Y3046D01*
X3988Y3046D01*
X3987Y3046D01*
X3987Y3046D01*
X3987Y3046D01*
X3987Y3046D01*
X3987Y3046D01*
X3987Y3046D01*
X3987Y3046D01*
X3987Y3046D01*
X3987Y3046D01*
X3987Y3046D01*
X3987Y3046D01*
X3987Y3047D01*
X3987Y3047D01*
X3987Y3047D01*
X3987Y3047D01*
X3987Y3047D01*
X3986Y3047D01*
X3986Y3047D01*
X3986Y3047D01*
X3986Y3047D01*
X3986Y3047D01*
Y3110D01*
X3986Y3110D01*
X3986Y3110D01*
X3986Y3110D01*
X3986Y3110D01*
X3987Y3111D01*
X3987Y3111D01*
X3987Y3111D01*
X3987Y3111D01*
X3987Y3111D01*
X3987Y3111D01*
X3987Y3111D01*
X3987Y3111D01*
X3987Y3111D01*
X3987Y3111D01*
X3987Y3111D01*
X3987Y3111D01*
X3987Y3112D01*
X3987Y3112D01*
X3987Y3112D01*
X3987Y3112D01*
X3988Y3112D01*
X3988Y3112D01*
X3988Y3112D01*
X3988Y3112D01*
X3988Y3112D01*
X3988Y3112D01*
X3988Y3112D01*
X3988Y3112D01*
X3988Y3112D01*
X3988Y3112D01*
X4014D01*
X4014Y3112D01*
D02*
G37*
G36*
X3964D02*
X3964Y3112D01*
X3964Y3112D01*
X3964Y3112D01*
X3964Y3112D01*
X3964Y3112D01*
X3964Y3112D01*
X3964Y3112D01*
X3964Y3112D01*
X3965Y3112D01*
X3965Y3112D01*
X3965Y3112D01*
X3965Y3112D01*
X3965Y3111D01*
X3965Y3111D01*
X3965Y3111D01*
X3965Y3111D01*
X3965Y3111D01*
X3965Y3111D01*
X3965Y3111D01*
X3965Y3111D01*
X3965Y3111D01*
X3965Y3111D01*
X3965Y3111D01*
X3966Y3111D01*
X3966Y3110D01*
X3966Y3110D01*
X3966Y3110D01*
X3966Y3110D01*
X3966Y3110D01*
Y3047D01*
X3966Y3047D01*
X3966Y3047D01*
X3966Y3047D01*
X3966Y3047D01*
X3966Y3047D01*
X3965Y3047D01*
X3965Y3047D01*
X3965Y3047D01*
X3965Y3047D01*
X3965Y3046D01*
X3965Y3046D01*
X3965Y3046D01*
X3965Y3046D01*
X3965Y3046D01*
X3965Y3046D01*
X3965Y3046D01*
X3965Y3046D01*
X3965Y3046D01*
X3965Y3046D01*
X3965Y3046D01*
X3964Y3046D01*
X3964Y3046D01*
X3964Y3046D01*
X3964Y3046D01*
X3964Y3046D01*
X3964Y3045D01*
X3964Y3045D01*
X3964Y3045D01*
X3964Y3045D01*
X3964Y3045D01*
X3938D01*
X3938Y3045D01*
X3938Y3045D01*
X3938Y3045D01*
X3938Y3045D01*
X3938Y3046D01*
X3938Y3046D01*
X3938Y3046D01*
X3938Y3046D01*
X3938Y3046D01*
X3937Y3046D01*
X3937Y3046D01*
X3937Y3046D01*
X3937Y3046D01*
X3937Y3046D01*
X3937Y3046D01*
X3937Y3046D01*
X3937Y3046D01*
X3937Y3046D01*
X3937Y3046D01*
X3937Y3046D01*
X3937Y3047D01*
X3937Y3047D01*
X3937Y3047D01*
X3937Y3047D01*
X3937Y3047D01*
X3936Y3047D01*
X3936Y3047D01*
X3936Y3047D01*
X3936Y3047D01*
X3936Y3047D01*
Y3110D01*
X3936Y3110D01*
X3936Y3110D01*
X3936Y3110D01*
X3936Y3110D01*
X3937Y3111D01*
X3937Y3111D01*
X3937Y3111D01*
X3937Y3111D01*
X3937Y3111D01*
X3937Y3111D01*
X3937Y3111D01*
X3937Y3111D01*
X3937Y3111D01*
X3937Y3111D01*
X3937Y3111D01*
X3937Y3111D01*
X3937Y3112D01*
X3937Y3112D01*
X3937Y3112D01*
X3937Y3112D01*
X3938Y3112D01*
X3938Y3112D01*
X3938Y3112D01*
X3938Y3112D01*
X3938Y3112D01*
X3938Y3112D01*
X3938Y3112D01*
X3938Y3112D01*
X3938Y3112D01*
X3938Y3112D01*
X3964D01*
X3964Y3112D01*
D02*
G37*
G36*
X3914D02*
X3914Y3112D01*
X3914Y3112D01*
X3914Y3112D01*
X3914Y3112D01*
X3914Y3112D01*
X3914Y3112D01*
X3914Y3112D01*
X3914Y3112D01*
X3915Y3112D01*
X3915Y3112D01*
X3915Y3112D01*
X3915Y3112D01*
X3915Y3111D01*
X3915Y3111D01*
X3915Y3111D01*
X3915Y3111D01*
X3915Y3111D01*
X3915Y3111D01*
X3915Y3111D01*
X3915Y3111D01*
X3915Y3111D01*
X3915Y3111D01*
X3915Y3111D01*
X3915Y3111D01*
X3916Y3110D01*
X3916Y3110D01*
X3916Y3110D01*
X3916Y3110D01*
X3916Y3110D01*
Y3047D01*
X3916Y3047D01*
X3916Y3047D01*
X3916Y3047D01*
X3916Y3047D01*
X3915Y3047D01*
X3915Y3047D01*
X3915Y3047D01*
X3915Y3047D01*
X3915Y3047D01*
X3915Y3046D01*
X3915Y3046D01*
X3915Y3046D01*
X3915Y3046D01*
X3915Y3046D01*
X3915Y3046D01*
X3915Y3046D01*
X3915Y3046D01*
X3915Y3046D01*
X3915Y3046D01*
X3915Y3046D01*
X3914Y3046D01*
X3914Y3046D01*
X3914Y3046D01*
X3914Y3046D01*
X3914Y3046D01*
X3914Y3045D01*
X3914Y3045D01*
X3914Y3045D01*
X3914Y3045D01*
X3914Y3045D01*
X3888D01*
X3888Y3045D01*
X3888Y3045D01*
X3888Y3045D01*
X3888Y3045D01*
X3888Y3046D01*
X3888Y3046D01*
X3888Y3046D01*
X3888Y3046D01*
X3888Y3046D01*
X3887Y3046D01*
X3887Y3046D01*
X3887Y3046D01*
X3887Y3046D01*
X3887Y3046D01*
X3887Y3046D01*
X3887Y3046D01*
X3887Y3046D01*
X3887Y3046D01*
X3887Y3046D01*
X3887Y3046D01*
X3887Y3047D01*
X3887Y3047D01*
X3887Y3047D01*
X3887Y3047D01*
X3886Y3047D01*
X3886Y3047D01*
X3886Y3047D01*
X3886Y3047D01*
X3886Y3047D01*
X3886Y3047D01*
Y3110D01*
X3886Y3110D01*
X3886Y3110D01*
X3886Y3110D01*
X3886Y3110D01*
X3886Y3111D01*
X3887Y3111D01*
X3887Y3111D01*
X3887Y3111D01*
X3887Y3111D01*
X3887Y3111D01*
X3887Y3111D01*
X3887Y3111D01*
X3887Y3111D01*
X3887Y3111D01*
X3887Y3111D01*
X3887Y3111D01*
X3887Y3112D01*
X3887Y3112D01*
X3887Y3112D01*
X3887Y3112D01*
X3888Y3112D01*
X3888Y3112D01*
X3888Y3112D01*
X3888Y3112D01*
X3888Y3112D01*
X3888Y3112D01*
X3888Y3112D01*
X3888Y3112D01*
X3888Y3112D01*
X3888Y3112D01*
X3914D01*
X3914Y3112D01*
D02*
G37*
G36*
X3864D02*
X3864Y3112D01*
X3864Y3112D01*
X3864Y3112D01*
X3864Y3112D01*
X3864Y3112D01*
X3864Y3112D01*
X3864Y3112D01*
X3864Y3112D01*
X3865Y3112D01*
X3865Y3112D01*
X3865Y3112D01*
X3865Y3112D01*
X3865Y3111D01*
X3865Y3111D01*
X3865Y3111D01*
X3865Y3111D01*
X3865Y3111D01*
X3865Y3111D01*
X3865Y3111D01*
X3865Y3111D01*
X3865Y3111D01*
X3865Y3111D01*
X3865Y3111D01*
X3865Y3111D01*
X3866Y3110D01*
X3866Y3110D01*
X3866Y3110D01*
X3866Y3110D01*
X3866Y3110D01*
Y3047D01*
X3866Y3047D01*
X3866Y3047D01*
X3866Y3047D01*
X3866Y3047D01*
X3865Y3047D01*
X3865Y3047D01*
X3865Y3047D01*
X3865Y3047D01*
X3865Y3047D01*
X3865Y3046D01*
X3865Y3046D01*
X3865Y3046D01*
X3865Y3046D01*
X3865Y3046D01*
X3865Y3046D01*
X3865Y3046D01*
X3865Y3046D01*
X3865Y3046D01*
X3865Y3046D01*
X3865Y3046D01*
X3864Y3046D01*
X3864Y3046D01*
X3864Y3046D01*
X3864Y3046D01*
X3864Y3046D01*
X3864Y3045D01*
X3864Y3045D01*
X3864Y3045D01*
X3864Y3045D01*
X3864Y3045D01*
X3838D01*
X3838Y3045D01*
X3838Y3045D01*
X3838Y3045D01*
X3838Y3045D01*
X3838Y3046D01*
X3838Y3046D01*
X3838Y3046D01*
X3838Y3046D01*
X3838Y3046D01*
X3837Y3046D01*
X3837Y3046D01*
X3837Y3046D01*
X3837Y3046D01*
X3837Y3046D01*
X3837Y3046D01*
X3837Y3046D01*
X3837Y3046D01*
X3837Y3046D01*
X3837Y3046D01*
X3837Y3046D01*
X3837Y3047D01*
X3837Y3047D01*
X3837Y3047D01*
X3837Y3047D01*
X3836Y3047D01*
X3836Y3047D01*
X3836Y3047D01*
X3836Y3047D01*
X3836Y3047D01*
X3836Y3047D01*
Y3110D01*
X3836Y3110D01*
X3836Y3110D01*
X3836Y3110D01*
X3836Y3110D01*
X3836Y3111D01*
X3837Y3111D01*
X3837Y3111D01*
X3837Y3111D01*
X3837Y3111D01*
X3837Y3111D01*
X3837Y3111D01*
X3837Y3111D01*
X3837Y3111D01*
X3837Y3111D01*
X3837Y3111D01*
X3837Y3111D01*
X3837Y3112D01*
X3837Y3112D01*
X3837Y3112D01*
X3837Y3112D01*
X3838Y3112D01*
X3838Y3112D01*
X3838Y3112D01*
X3838Y3112D01*
X3838Y3112D01*
X3838Y3112D01*
X3838Y3112D01*
X3838Y3112D01*
X3838Y3112D01*
X3838Y3112D01*
X3864D01*
X3864Y3112D01*
D02*
G37*
G36*
X3866Y3260D02*
X3866Y3260D01*
X3866Y3260D01*
X3866Y3260D01*
X3865Y3259D01*
X3865Y3259D01*
X3865Y3259D01*
X3865Y3259D01*
X3865Y3259D01*
X3865Y3259D01*
X3865Y3259D01*
X3865Y3259D01*
X3865Y3259D01*
X3865Y3259D01*
X3865Y3259D01*
X3865Y3259D01*
X3865Y3258D01*
X3865Y3258D01*
X3865Y3258D01*
X3865Y3258D01*
X3864Y3258D01*
X3864Y3258D01*
X3864Y3258D01*
X3864Y3258D01*
X3864Y3258D01*
X3864Y3258D01*
X3864Y3258D01*
X3864Y3258D01*
X3864Y3258D01*
X3864Y3258D01*
X3838D01*
X3838Y3258D01*
X3838Y3258D01*
X3838Y3258D01*
X3838Y3258D01*
X3838Y3258D01*
X3838Y3258D01*
X3838Y3258D01*
X3838Y3258D01*
X3838Y3258D01*
X3837Y3258D01*
X3837Y3258D01*
X3837Y3258D01*
X3837Y3258D01*
X3837Y3259D01*
X3837Y3259D01*
X3837Y3259D01*
X3837Y3259D01*
X3837Y3259D01*
X3837Y3259D01*
X3837Y3259D01*
X3837Y3259D01*
X3837Y3259D01*
X3837Y3259D01*
X3837Y3259D01*
X3836Y3259D01*
X3836Y3260D01*
X3836Y3260D01*
X3836Y3260D01*
X3836Y3260D01*
X3836Y3260D01*
Y3323D01*
X3836Y3323D01*
X3836Y3323D01*
X3836Y3323D01*
X3836Y3323D01*
X3836Y3323D01*
X3837Y3323D01*
X3837Y3323D01*
X3837Y3323D01*
X3837Y3323D01*
X3837Y3324D01*
X3837Y3324D01*
X3837Y3324D01*
X3837Y3324D01*
X3837Y3324D01*
X3837Y3324D01*
X3837Y3324D01*
X3837Y3324D01*
X3837Y3324D01*
X3837Y3324D01*
X3837Y3324D01*
X3838Y3324D01*
X3838Y3324D01*
X3838Y3324D01*
X3838Y3324D01*
X3838Y3325D01*
X3838Y3325D01*
X3838Y3325D01*
X3838Y3325D01*
X3838Y3325D01*
X3838Y3325D01*
X3864D01*
X3864Y3325D01*
X3864Y3325D01*
X3864Y3325D01*
X3864Y3325D01*
X3864Y3325D01*
X3864Y3324D01*
X3864Y3324D01*
X3864Y3324D01*
X3864Y3324D01*
X3865Y3324D01*
X3865Y3324D01*
X3865Y3324D01*
X3865Y3324D01*
X3865Y3324D01*
X3865Y3324D01*
X3865Y3324D01*
X3865Y3324D01*
X3865Y3324D01*
X3865Y3324D01*
X3865Y3324D01*
X3865Y3323D01*
X3865Y3323D01*
X3865Y3323D01*
X3865Y3323D01*
X3865Y3323D01*
X3866Y3323D01*
X3866Y3323D01*
X3866Y3323D01*
X3866Y3323D01*
X3866Y3323D01*
Y3260D01*
X3866Y3260D01*
D02*
G37*
G36*
X3916D02*
X3916Y3260D01*
X3916Y3260D01*
X3916Y3260D01*
X3915Y3259D01*
X3915Y3259D01*
X3915Y3259D01*
X3915Y3259D01*
X3915Y3259D01*
X3915Y3259D01*
X3915Y3259D01*
X3915Y3259D01*
X3915Y3259D01*
X3915Y3259D01*
X3915Y3259D01*
X3915Y3259D01*
X3915Y3258D01*
X3915Y3258D01*
X3915Y3258D01*
X3915Y3258D01*
X3914Y3258D01*
X3914Y3258D01*
X3914Y3258D01*
X3914Y3258D01*
X3914Y3258D01*
X3914Y3258D01*
X3914Y3258D01*
X3914Y3258D01*
X3914Y3258D01*
X3914Y3258D01*
X3888D01*
X3888Y3258D01*
X3888Y3258D01*
X3888Y3258D01*
X3888Y3258D01*
X3888Y3258D01*
X3888Y3258D01*
X3888Y3258D01*
X3888Y3258D01*
X3888Y3258D01*
X3887Y3258D01*
X3887Y3258D01*
X3887Y3258D01*
X3887Y3258D01*
X3887Y3259D01*
X3887Y3259D01*
X3887Y3259D01*
X3887Y3259D01*
X3887Y3259D01*
X3887Y3259D01*
X3887Y3259D01*
X3887Y3259D01*
X3887Y3259D01*
X3887Y3259D01*
X3887Y3259D01*
X3886Y3259D01*
X3886Y3260D01*
X3886Y3260D01*
X3886Y3260D01*
X3886Y3260D01*
X3886Y3260D01*
Y3323D01*
X3886Y3323D01*
X3886Y3323D01*
X3886Y3323D01*
X3886Y3323D01*
X3886Y3323D01*
X3887Y3323D01*
X3887Y3323D01*
X3887Y3323D01*
X3887Y3323D01*
X3887Y3324D01*
X3887Y3324D01*
X3887Y3324D01*
X3887Y3324D01*
X3887Y3324D01*
X3887Y3324D01*
X3887Y3324D01*
X3887Y3324D01*
X3887Y3324D01*
X3887Y3324D01*
X3887Y3324D01*
X3888Y3324D01*
X3888Y3324D01*
X3888Y3324D01*
X3888Y3324D01*
X3888Y3325D01*
X3888Y3325D01*
X3888Y3325D01*
X3888Y3325D01*
X3888Y3325D01*
X3888Y3325D01*
X3914D01*
X3914Y3325D01*
X3914Y3325D01*
X3914Y3325D01*
X3914Y3325D01*
X3914Y3325D01*
X3914Y3324D01*
X3914Y3324D01*
X3914Y3324D01*
X3914Y3324D01*
X3915Y3324D01*
X3915Y3324D01*
X3915Y3324D01*
X3915Y3324D01*
X3915Y3324D01*
X3915Y3324D01*
X3915Y3324D01*
X3915Y3324D01*
X3915Y3324D01*
X3915Y3324D01*
X3915Y3324D01*
X3915Y3323D01*
X3915Y3323D01*
X3915Y3323D01*
X3915Y3323D01*
X3915Y3323D01*
X3916Y3323D01*
X3916Y3323D01*
X3916Y3323D01*
X3916Y3323D01*
X3916Y3323D01*
Y3260D01*
X3916Y3260D01*
D02*
G37*
G36*
X3966D02*
X3966Y3260D01*
X3966Y3260D01*
X3966Y3260D01*
X3966Y3259D01*
X3965Y3259D01*
X3965Y3259D01*
X3965Y3259D01*
X3965Y3259D01*
X3965Y3259D01*
X3965Y3259D01*
X3965Y3259D01*
X3965Y3259D01*
X3965Y3259D01*
X3965Y3259D01*
X3965Y3259D01*
X3965Y3258D01*
X3965Y3258D01*
X3965Y3258D01*
X3965Y3258D01*
X3964Y3258D01*
X3964Y3258D01*
X3964Y3258D01*
X3964Y3258D01*
X3964Y3258D01*
X3964Y3258D01*
X3964Y3258D01*
X3964Y3258D01*
X3964Y3258D01*
X3964Y3258D01*
X3938D01*
X3938Y3258D01*
X3938Y3258D01*
X3938Y3258D01*
X3938Y3258D01*
X3938Y3258D01*
X3938Y3258D01*
X3938Y3258D01*
X3938Y3258D01*
X3938Y3258D01*
X3937Y3258D01*
X3937Y3258D01*
X3937Y3258D01*
X3937Y3258D01*
X3937Y3259D01*
X3937Y3259D01*
X3937Y3259D01*
X3937Y3259D01*
X3937Y3259D01*
X3937Y3259D01*
X3937Y3259D01*
X3937Y3259D01*
X3937Y3259D01*
X3937Y3259D01*
X3937Y3259D01*
X3937Y3259D01*
X3936Y3260D01*
X3936Y3260D01*
X3936Y3260D01*
X3936Y3260D01*
X3936Y3260D01*
Y3323D01*
X3936Y3323D01*
X3936Y3323D01*
X3936Y3323D01*
X3936Y3323D01*
X3937Y3323D01*
X3937Y3323D01*
X3937Y3323D01*
X3937Y3323D01*
X3937Y3323D01*
X3937Y3324D01*
X3937Y3324D01*
X3937Y3324D01*
X3937Y3324D01*
X3937Y3324D01*
X3937Y3324D01*
X3937Y3324D01*
X3937Y3324D01*
X3937Y3324D01*
X3937Y3324D01*
X3937Y3324D01*
X3938Y3324D01*
X3938Y3324D01*
X3938Y3324D01*
X3938Y3324D01*
X3938Y3325D01*
X3938Y3325D01*
X3938Y3325D01*
X3938Y3325D01*
X3938Y3325D01*
X3938Y3325D01*
X3964D01*
X3964Y3325D01*
X3964Y3325D01*
X3964Y3325D01*
X3964Y3325D01*
X3964Y3325D01*
X3964Y3324D01*
X3964Y3324D01*
X3964Y3324D01*
X3964Y3324D01*
X3965Y3324D01*
X3965Y3324D01*
X3965Y3324D01*
X3965Y3324D01*
X3965Y3324D01*
X3965Y3324D01*
X3965Y3324D01*
X3965Y3324D01*
X3965Y3324D01*
X3965Y3324D01*
X3965Y3324D01*
X3965Y3323D01*
X3965Y3323D01*
X3965Y3323D01*
X3965Y3323D01*
X3966Y3323D01*
X3966Y3323D01*
X3966Y3323D01*
X3966Y3323D01*
X3966Y3323D01*
X3966Y3323D01*
Y3260D01*
X3966Y3260D01*
D02*
G37*
G36*
X4016D02*
X4016Y3260D01*
X4016Y3260D01*
X4016Y3260D01*
X4016Y3259D01*
X4015Y3259D01*
X4015Y3259D01*
X4015Y3259D01*
X4015Y3259D01*
X4015Y3259D01*
X4015Y3259D01*
X4015Y3259D01*
X4015Y3259D01*
X4015Y3259D01*
X4015Y3259D01*
X4015Y3259D01*
X4015Y3258D01*
X4015Y3258D01*
X4015Y3258D01*
X4015Y3258D01*
X4014Y3258D01*
X4014Y3258D01*
X4014Y3258D01*
X4014Y3258D01*
X4014Y3258D01*
X4014Y3258D01*
X4014Y3258D01*
X4014Y3258D01*
X4014Y3258D01*
X4014Y3258D01*
X3988D01*
X3988Y3258D01*
X3988Y3258D01*
X3988Y3258D01*
X3988Y3258D01*
X3988Y3258D01*
X3988Y3258D01*
X3988Y3258D01*
X3988Y3258D01*
X3988Y3258D01*
X3987Y3258D01*
X3987Y3258D01*
X3987Y3258D01*
X3987Y3258D01*
X3987Y3259D01*
X3987Y3259D01*
X3987Y3259D01*
X3987Y3259D01*
X3987Y3259D01*
X3987Y3259D01*
X3987Y3259D01*
X3987Y3259D01*
X3987Y3259D01*
X3987Y3259D01*
X3987Y3259D01*
X3987Y3259D01*
X3986Y3260D01*
X3986Y3260D01*
X3986Y3260D01*
X3986Y3260D01*
X3986Y3260D01*
Y3323D01*
X3986Y3323D01*
X3986Y3323D01*
X3986Y3323D01*
X3986Y3323D01*
X3987Y3323D01*
X3987Y3323D01*
X3987Y3323D01*
X3987Y3323D01*
X3987Y3323D01*
X3987Y3324D01*
X3987Y3324D01*
X3987Y3324D01*
X3987Y3324D01*
X3987Y3324D01*
X3987Y3324D01*
X3987Y3324D01*
X3987Y3324D01*
X3987Y3324D01*
X3987Y3324D01*
X3987Y3324D01*
X3988Y3324D01*
X3988Y3324D01*
X3988Y3324D01*
X3988Y3324D01*
X3988Y3325D01*
X3988Y3325D01*
X3988Y3325D01*
X3988Y3325D01*
X3988Y3325D01*
X3988Y3325D01*
X4014D01*
X4014Y3325D01*
X4014Y3325D01*
X4014Y3325D01*
X4014Y3325D01*
X4014Y3325D01*
X4014Y3324D01*
X4014Y3324D01*
X4014Y3324D01*
X4014Y3324D01*
X4015Y3324D01*
X4015Y3324D01*
X4015Y3324D01*
X4015Y3324D01*
X4015Y3324D01*
X4015Y3324D01*
X4015Y3324D01*
X4015Y3324D01*
X4015Y3324D01*
X4015Y3324D01*
X4015Y3324D01*
X4015Y3323D01*
X4015Y3323D01*
X4015Y3323D01*
X4015Y3323D01*
X4016Y3323D01*
X4016Y3323D01*
X4016Y3323D01*
X4016Y3323D01*
X4016Y3323D01*
X4016Y3323D01*
Y3260D01*
X4016Y3260D01*
D02*
G37*
G36*
X4726Y3160D02*
X4592D01*
Y3266D01*
X4726D01*
Y3160D01*
D02*
G37*
G36*
X4747Y3140D02*
X4747Y3140D01*
X4747Y3140D01*
X4747Y3140D01*
X4747Y3140D01*
X4747Y3140D01*
X4747Y3140D01*
X4747Y3140D01*
X4747Y3140D01*
X4748Y3140D01*
X4748Y3140D01*
X4748Y3140D01*
X4748Y3140D01*
X4748Y3139D01*
X4748Y3139D01*
X4748Y3139D01*
X4748Y3139D01*
X4748Y3139D01*
X4748Y3139D01*
X4748Y3139D01*
X4748Y3139D01*
X4748Y3139D01*
X4748Y3139D01*
X4748Y3139D01*
X4748Y3139D01*
X4749Y3138D01*
X4749Y3138D01*
X4749Y3138D01*
X4749Y3138D01*
X4749Y3138D01*
Y3075D01*
X4749Y3075D01*
X4749Y3075D01*
X4749Y3075D01*
X4749Y3075D01*
X4748Y3075D01*
X4748Y3075D01*
X4748Y3075D01*
X4748Y3075D01*
X4748Y3075D01*
X4748Y3074D01*
X4748Y3074D01*
X4748Y3074D01*
X4748Y3074D01*
X4748Y3074D01*
X4748Y3074D01*
X4748Y3074D01*
X4748Y3074D01*
X4748Y3074D01*
X4748Y3074D01*
X4748Y3074D01*
X4747Y3074D01*
X4747Y3074D01*
X4747Y3074D01*
X4747Y3074D01*
X4747Y3073D01*
X4747Y3073D01*
X4747Y3073D01*
X4747Y3073D01*
X4747Y3073D01*
X4747Y3073D01*
X4721D01*
X4721Y3073D01*
X4721Y3073D01*
X4721Y3073D01*
X4721Y3073D01*
X4721Y3073D01*
X4721Y3074D01*
X4721Y3074D01*
X4721Y3074D01*
X4721Y3074D01*
X4720Y3074D01*
X4720Y3074D01*
X4720Y3074D01*
X4720Y3074D01*
X4720Y3074D01*
X4720Y3074D01*
X4720Y3074D01*
X4720Y3074D01*
X4720Y3074D01*
X4720Y3074D01*
X4720Y3074D01*
X4720Y3075D01*
X4720Y3075D01*
X4720Y3075D01*
X4720Y3075D01*
X4720Y3075D01*
X4719Y3075D01*
X4719Y3075D01*
X4719Y3075D01*
X4719Y3075D01*
X4719Y3075D01*
Y3138D01*
X4719Y3138D01*
X4719Y3138D01*
X4719Y3138D01*
X4719Y3138D01*
X4720Y3139D01*
X4720Y3139D01*
X4720Y3139D01*
X4720Y3139D01*
X4720Y3139D01*
X4720Y3139D01*
X4720Y3139D01*
X4720Y3139D01*
X4720Y3139D01*
X4720Y3139D01*
X4720Y3139D01*
X4720Y3139D01*
X4720Y3140D01*
X4720Y3140D01*
X4720Y3140D01*
X4720Y3140D01*
X4721Y3140D01*
X4721Y3140D01*
X4721Y3140D01*
X4721Y3140D01*
X4721Y3140D01*
X4721Y3140D01*
X4721Y3140D01*
X4721Y3140D01*
X4721Y3140D01*
X4721Y3140D01*
X4747D01*
X4747Y3140D01*
D02*
G37*
G36*
X4697D02*
X4697Y3140D01*
X4697Y3140D01*
X4697Y3140D01*
X4697Y3140D01*
X4697Y3140D01*
X4697Y3140D01*
X4697Y3140D01*
X4697Y3140D01*
X4698Y3140D01*
X4698Y3140D01*
X4698Y3140D01*
X4698Y3140D01*
X4698Y3139D01*
X4698Y3139D01*
X4698Y3139D01*
X4698Y3139D01*
X4698Y3139D01*
X4698Y3139D01*
X4698Y3139D01*
X4698Y3139D01*
X4698Y3139D01*
X4698Y3139D01*
X4698Y3139D01*
X4699Y3139D01*
X4699Y3138D01*
X4699Y3138D01*
X4699Y3138D01*
X4699Y3138D01*
X4699Y3138D01*
Y3075D01*
X4699Y3075D01*
X4699Y3075D01*
X4699Y3075D01*
X4699Y3075D01*
X4699Y3075D01*
X4698Y3075D01*
X4698Y3075D01*
X4698Y3075D01*
X4698Y3075D01*
X4698Y3074D01*
X4698Y3074D01*
X4698Y3074D01*
X4698Y3074D01*
X4698Y3074D01*
X4698Y3074D01*
X4698Y3074D01*
X4698Y3074D01*
X4698Y3074D01*
X4698Y3074D01*
X4698Y3074D01*
X4697Y3074D01*
X4697Y3074D01*
X4697Y3074D01*
X4697Y3074D01*
X4697Y3073D01*
X4697Y3073D01*
X4697Y3073D01*
X4697Y3073D01*
X4697Y3073D01*
X4697Y3073D01*
X4671D01*
X4671Y3073D01*
X4671Y3073D01*
X4671Y3073D01*
X4671Y3073D01*
X4671Y3073D01*
X4671Y3074D01*
X4671Y3074D01*
X4671Y3074D01*
X4671Y3074D01*
X4670Y3074D01*
X4670Y3074D01*
X4670Y3074D01*
X4670Y3074D01*
X4670Y3074D01*
X4670Y3074D01*
X4670Y3074D01*
X4670Y3074D01*
X4670Y3074D01*
X4670Y3074D01*
X4670Y3074D01*
X4670Y3075D01*
X4670Y3075D01*
X4670Y3075D01*
X4670Y3075D01*
X4669Y3075D01*
X4669Y3075D01*
X4669Y3075D01*
X4669Y3075D01*
X4669Y3075D01*
X4669Y3075D01*
Y3138D01*
X4669Y3138D01*
X4669Y3138D01*
X4669Y3138D01*
X4669Y3138D01*
X4669Y3139D01*
X4670Y3139D01*
X4670Y3139D01*
X4670Y3139D01*
X4670Y3139D01*
X4670Y3139D01*
X4670Y3139D01*
X4670Y3139D01*
X4670Y3139D01*
X4670Y3139D01*
X4670Y3139D01*
X4670Y3139D01*
X4670Y3140D01*
X4670Y3140D01*
X4670Y3140D01*
X4670Y3140D01*
X4671Y3140D01*
X4671Y3140D01*
X4671Y3140D01*
X4671Y3140D01*
X4671Y3140D01*
X4671Y3140D01*
X4671Y3140D01*
X4671Y3140D01*
X4671Y3140D01*
X4671Y3140D01*
X4697D01*
X4697Y3140D01*
D02*
G37*
G36*
X4647D02*
X4647Y3140D01*
X4647Y3140D01*
X4647Y3140D01*
X4647Y3140D01*
X4647Y3140D01*
X4647Y3140D01*
X4647Y3140D01*
X4647Y3140D01*
X4648Y3140D01*
X4648Y3140D01*
X4648Y3140D01*
X4648Y3140D01*
X4648Y3139D01*
X4648Y3139D01*
X4648Y3139D01*
X4648Y3139D01*
X4648Y3139D01*
X4648Y3139D01*
X4648Y3139D01*
X4648Y3139D01*
X4648Y3139D01*
X4648Y3139D01*
X4648Y3139D01*
X4648Y3139D01*
X4649Y3138D01*
X4649Y3138D01*
X4649Y3138D01*
X4649Y3138D01*
X4649Y3138D01*
Y3075D01*
X4649Y3075D01*
X4649Y3075D01*
X4649Y3075D01*
X4649Y3075D01*
X4648Y3075D01*
X4648Y3075D01*
X4648Y3075D01*
X4648Y3075D01*
X4648Y3075D01*
X4648Y3074D01*
X4648Y3074D01*
X4648Y3074D01*
X4648Y3074D01*
X4648Y3074D01*
X4648Y3074D01*
X4648Y3074D01*
X4648Y3074D01*
X4648Y3074D01*
X4648Y3074D01*
X4648Y3074D01*
X4647Y3074D01*
X4647Y3074D01*
X4647Y3074D01*
X4647Y3074D01*
X4647Y3073D01*
X4647Y3073D01*
X4647Y3073D01*
X4647Y3073D01*
X4647Y3073D01*
X4647Y3073D01*
X4621D01*
X4621Y3073D01*
X4621Y3073D01*
X4621Y3073D01*
X4621Y3073D01*
X4621Y3073D01*
X4621Y3074D01*
X4621Y3074D01*
X4621Y3074D01*
X4621Y3074D01*
X4620Y3074D01*
X4620Y3074D01*
X4620Y3074D01*
X4620Y3074D01*
X4620Y3074D01*
X4620Y3074D01*
X4620Y3074D01*
X4620Y3074D01*
X4620Y3074D01*
X4620Y3074D01*
X4620Y3074D01*
X4620Y3075D01*
X4620Y3075D01*
X4620Y3075D01*
X4620Y3075D01*
X4620Y3075D01*
X4619Y3075D01*
X4619Y3075D01*
X4619Y3075D01*
X4619Y3075D01*
X4619Y3075D01*
Y3138D01*
X4619Y3138D01*
X4619Y3138D01*
X4619Y3138D01*
X4619Y3138D01*
X4620Y3139D01*
X4620Y3139D01*
X4620Y3139D01*
X4620Y3139D01*
X4620Y3139D01*
X4620Y3139D01*
X4620Y3139D01*
X4620Y3139D01*
X4620Y3139D01*
X4620Y3139D01*
X4620Y3139D01*
X4620Y3139D01*
X4620Y3140D01*
X4620Y3140D01*
X4620Y3140D01*
X4620Y3140D01*
X4621Y3140D01*
X4621Y3140D01*
X4621Y3140D01*
X4621Y3140D01*
X4621Y3140D01*
X4621Y3140D01*
X4621Y3140D01*
X4621Y3140D01*
X4621Y3140D01*
X4621Y3140D01*
X4647D01*
X4647Y3140D01*
D02*
G37*
G36*
X4597D02*
X4597Y3140D01*
X4597Y3140D01*
X4597Y3140D01*
X4597Y3140D01*
X4597Y3140D01*
X4597Y3140D01*
X4597Y3140D01*
X4597Y3140D01*
X4598Y3140D01*
X4598Y3140D01*
X4598Y3140D01*
X4598Y3140D01*
X4598Y3139D01*
X4598Y3139D01*
X4598Y3139D01*
X4598Y3139D01*
X4598Y3139D01*
X4598Y3139D01*
X4598Y3139D01*
X4598Y3139D01*
X4598Y3139D01*
X4598Y3139D01*
X4598Y3139D01*
X4598Y3139D01*
X4599Y3138D01*
X4599Y3138D01*
X4599Y3138D01*
X4599Y3138D01*
X4599Y3138D01*
Y3075D01*
X4599Y3075D01*
X4599Y3075D01*
X4599Y3075D01*
X4599Y3075D01*
X4598Y3075D01*
X4598Y3075D01*
X4598Y3075D01*
X4598Y3075D01*
X4598Y3075D01*
X4598Y3074D01*
X4598Y3074D01*
X4598Y3074D01*
X4598Y3074D01*
X4598Y3074D01*
X4598Y3074D01*
X4598Y3074D01*
X4598Y3074D01*
X4598Y3074D01*
X4598Y3074D01*
X4598Y3074D01*
X4597Y3074D01*
X4597Y3074D01*
X4597Y3074D01*
X4597Y3074D01*
X4597Y3073D01*
X4597Y3073D01*
X4597Y3073D01*
X4597Y3073D01*
X4597Y3073D01*
X4597Y3073D01*
X4571D01*
X4571Y3073D01*
X4571Y3073D01*
X4571Y3073D01*
X4571Y3073D01*
X4571Y3073D01*
X4571Y3074D01*
X4571Y3074D01*
X4571Y3074D01*
X4571Y3074D01*
X4570Y3074D01*
X4570Y3074D01*
X4570Y3074D01*
X4570Y3074D01*
X4570Y3074D01*
X4570Y3074D01*
X4570Y3074D01*
X4570Y3074D01*
X4570Y3074D01*
X4570Y3074D01*
X4570Y3074D01*
X4570Y3075D01*
X4570Y3075D01*
X4570Y3075D01*
X4570Y3075D01*
X4569Y3075D01*
X4569Y3075D01*
X4569Y3075D01*
X4569Y3075D01*
X4569Y3075D01*
X4569Y3075D01*
Y3138D01*
X4569Y3138D01*
X4569Y3138D01*
X4569Y3138D01*
X4569Y3138D01*
X4569Y3139D01*
X4570Y3139D01*
X4570Y3139D01*
X4570Y3139D01*
X4570Y3139D01*
X4570Y3139D01*
X4570Y3139D01*
X4570Y3139D01*
X4570Y3139D01*
X4570Y3139D01*
X4570Y3139D01*
X4570Y3139D01*
X4570Y3140D01*
X4570Y3140D01*
X4570Y3140D01*
X4570Y3140D01*
X4571Y3140D01*
X4571Y3140D01*
X4571Y3140D01*
X4571Y3140D01*
X4571Y3140D01*
X4571Y3140D01*
X4571Y3140D01*
X4571Y3140D01*
X4571Y3140D01*
X4571Y3140D01*
X4597D01*
X4597Y3140D01*
D02*
G37*
G36*
X4599Y3288D02*
X4599Y3288D01*
X4599Y3288D01*
X4599Y3288D01*
X4598Y3287D01*
X4598Y3287D01*
X4598Y3287D01*
X4598Y3287D01*
X4598Y3287D01*
X4598Y3287D01*
X4598Y3287D01*
X4598Y3287D01*
X4598Y3287D01*
X4598Y3287D01*
X4598Y3287D01*
X4598Y3287D01*
X4598Y3286D01*
X4598Y3286D01*
X4598Y3286D01*
X4598Y3286D01*
X4597Y3286D01*
X4597Y3286D01*
X4597Y3286D01*
X4597Y3286D01*
X4597Y3286D01*
X4597Y3286D01*
X4597Y3286D01*
X4597Y3286D01*
X4597Y3286D01*
X4597Y3286D01*
X4571D01*
X4571Y3286D01*
X4571Y3286D01*
X4571Y3286D01*
X4571Y3286D01*
X4571Y3286D01*
X4571Y3286D01*
X4571Y3286D01*
X4571Y3286D01*
X4571Y3286D01*
X4570Y3286D01*
X4570Y3286D01*
X4570Y3286D01*
X4570Y3286D01*
X4570Y3287D01*
X4570Y3287D01*
X4570Y3287D01*
X4570Y3287D01*
X4570Y3287D01*
X4570Y3287D01*
X4570Y3287D01*
X4570Y3287D01*
X4570Y3287D01*
X4570Y3287D01*
X4570Y3287D01*
X4569Y3287D01*
X4569Y3288D01*
X4569Y3288D01*
X4569Y3288D01*
X4569Y3288D01*
X4569Y3288D01*
Y3351D01*
X4569Y3351D01*
X4569Y3351D01*
X4569Y3351D01*
X4569Y3351D01*
X4569Y3351D01*
X4570Y3351D01*
X4570Y3351D01*
X4570Y3351D01*
X4570Y3351D01*
X4570Y3352D01*
X4570Y3352D01*
X4570Y3352D01*
X4570Y3352D01*
X4570Y3352D01*
X4570Y3352D01*
X4570Y3352D01*
X4570Y3352D01*
X4570Y3352D01*
X4570Y3352D01*
X4570Y3352D01*
X4571Y3352D01*
X4571Y3352D01*
X4571Y3352D01*
X4571Y3352D01*
X4571Y3352D01*
X4571Y3353D01*
X4571Y3353D01*
X4571Y3353D01*
X4571Y3353D01*
X4571Y3353D01*
X4597D01*
X4597Y3353D01*
X4597Y3353D01*
X4597Y3353D01*
X4597Y3353D01*
X4597Y3352D01*
X4597Y3352D01*
X4597Y3352D01*
X4597Y3352D01*
X4597Y3352D01*
X4598Y3352D01*
X4598Y3352D01*
X4598Y3352D01*
X4598Y3352D01*
X4598Y3352D01*
X4598Y3352D01*
X4598Y3352D01*
X4598Y3352D01*
X4598Y3352D01*
X4598Y3352D01*
X4598Y3352D01*
X4598Y3351D01*
X4598Y3351D01*
X4598Y3351D01*
X4598Y3351D01*
X4598Y3351D01*
X4599Y3351D01*
X4599Y3351D01*
X4599Y3351D01*
X4599Y3351D01*
X4599Y3351D01*
Y3288D01*
X4599Y3288D01*
D02*
G37*
G36*
X4649D02*
X4649Y3288D01*
X4649Y3288D01*
X4649Y3288D01*
X4648Y3287D01*
X4648Y3287D01*
X4648Y3287D01*
X4648Y3287D01*
X4648Y3287D01*
X4648Y3287D01*
X4648Y3287D01*
X4648Y3287D01*
X4648Y3287D01*
X4648Y3287D01*
X4648Y3287D01*
X4648Y3287D01*
X4648Y3286D01*
X4648Y3286D01*
X4648Y3286D01*
X4648Y3286D01*
X4647Y3286D01*
X4647Y3286D01*
X4647Y3286D01*
X4647Y3286D01*
X4647Y3286D01*
X4647Y3286D01*
X4647Y3286D01*
X4647Y3286D01*
X4647Y3286D01*
X4647Y3286D01*
X4621D01*
X4621Y3286D01*
X4621Y3286D01*
X4621Y3286D01*
X4621Y3286D01*
X4621Y3286D01*
X4621Y3286D01*
X4621Y3286D01*
X4621Y3286D01*
X4621Y3286D01*
X4620Y3286D01*
X4620Y3286D01*
X4620Y3286D01*
X4620Y3286D01*
X4620Y3287D01*
X4620Y3287D01*
X4620Y3287D01*
X4620Y3287D01*
X4620Y3287D01*
X4620Y3287D01*
X4620Y3287D01*
X4620Y3287D01*
X4620Y3287D01*
X4620Y3287D01*
X4620Y3287D01*
X4620Y3287D01*
X4619Y3288D01*
X4619Y3288D01*
X4619Y3288D01*
X4619Y3288D01*
X4619Y3288D01*
Y3351D01*
X4619Y3351D01*
X4619Y3351D01*
X4619Y3351D01*
X4619Y3351D01*
X4620Y3351D01*
X4620Y3351D01*
X4620Y3351D01*
X4620Y3351D01*
X4620Y3351D01*
X4620Y3352D01*
X4620Y3352D01*
X4620Y3352D01*
X4620Y3352D01*
X4620Y3352D01*
X4620Y3352D01*
X4620Y3352D01*
X4620Y3352D01*
X4620Y3352D01*
X4620Y3352D01*
X4620Y3352D01*
X4621Y3352D01*
X4621Y3352D01*
X4621Y3352D01*
X4621Y3352D01*
X4621Y3352D01*
X4621Y3353D01*
X4621Y3353D01*
X4621Y3353D01*
X4621Y3353D01*
X4621Y3353D01*
X4647D01*
X4647Y3353D01*
X4647Y3353D01*
X4647Y3353D01*
X4647Y3353D01*
X4647Y3352D01*
X4647Y3352D01*
X4647Y3352D01*
X4647Y3352D01*
X4647Y3352D01*
X4648Y3352D01*
X4648Y3352D01*
X4648Y3352D01*
X4648Y3352D01*
X4648Y3352D01*
X4648Y3352D01*
X4648Y3352D01*
X4648Y3352D01*
X4648Y3352D01*
X4648Y3352D01*
X4648Y3352D01*
X4648Y3351D01*
X4648Y3351D01*
X4648Y3351D01*
X4648Y3351D01*
X4648Y3351D01*
X4649Y3351D01*
X4649Y3351D01*
X4649Y3351D01*
X4649Y3351D01*
X4649Y3351D01*
Y3288D01*
X4649Y3288D01*
D02*
G37*
G36*
X4699D02*
X4699Y3288D01*
X4699Y3288D01*
X4699Y3288D01*
X4699Y3287D01*
X4698Y3287D01*
X4698Y3287D01*
X4698Y3287D01*
X4698Y3287D01*
X4698Y3287D01*
X4698Y3287D01*
X4698Y3287D01*
X4698Y3287D01*
X4698Y3287D01*
X4698Y3287D01*
X4698Y3287D01*
X4698Y3286D01*
X4698Y3286D01*
X4698Y3286D01*
X4698Y3286D01*
X4697Y3286D01*
X4697Y3286D01*
X4697Y3286D01*
X4697Y3286D01*
X4697Y3286D01*
X4697Y3286D01*
X4697Y3286D01*
X4697Y3286D01*
X4697Y3286D01*
X4697Y3286D01*
X4671D01*
X4671Y3286D01*
X4671Y3286D01*
X4671Y3286D01*
X4671Y3286D01*
X4671Y3286D01*
X4671Y3286D01*
X4671Y3286D01*
X4671Y3286D01*
X4671Y3286D01*
X4670Y3286D01*
X4670Y3286D01*
X4670Y3286D01*
X4670Y3286D01*
X4670Y3287D01*
X4670Y3287D01*
X4670Y3287D01*
X4670Y3287D01*
X4670Y3287D01*
X4670Y3287D01*
X4670Y3287D01*
X4670Y3287D01*
X4670Y3287D01*
X4670Y3287D01*
X4670Y3287D01*
X4669Y3287D01*
X4669Y3288D01*
X4669Y3288D01*
X4669Y3288D01*
X4669Y3288D01*
X4669Y3288D01*
Y3351D01*
X4669Y3351D01*
X4669Y3351D01*
X4669Y3351D01*
X4669Y3351D01*
X4669Y3351D01*
X4670Y3351D01*
X4670Y3351D01*
X4670Y3351D01*
X4670Y3351D01*
X4670Y3352D01*
X4670Y3352D01*
X4670Y3352D01*
X4670Y3352D01*
X4670Y3352D01*
X4670Y3352D01*
X4670Y3352D01*
X4670Y3352D01*
X4670Y3352D01*
X4670Y3352D01*
X4670Y3352D01*
X4671Y3352D01*
X4671Y3352D01*
X4671Y3352D01*
X4671Y3352D01*
X4671Y3352D01*
X4671Y3353D01*
X4671Y3353D01*
X4671Y3353D01*
X4671Y3353D01*
X4671Y3353D01*
X4697D01*
X4697Y3353D01*
X4697Y3353D01*
X4697Y3353D01*
X4697Y3353D01*
X4697Y3352D01*
X4697Y3352D01*
X4697Y3352D01*
X4697Y3352D01*
X4697Y3352D01*
X4698Y3352D01*
X4698Y3352D01*
X4698Y3352D01*
X4698Y3352D01*
X4698Y3352D01*
X4698Y3352D01*
X4698Y3352D01*
X4698Y3352D01*
X4698Y3352D01*
X4698Y3352D01*
X4698Y3352D01*
X4698Y3351D01*
X4698Y3351D01*
X4698Y3351D01*
X4698Y3351D01*
X4699Y3351D01*
X4699Y3351D01*
X4699Y3351D01*
X4699Y3351D01*
X4699Y3351D01*
X4699Y3351D01*
Y3288D01*
X4699Y3288D01*
D02*
G37*
G36*
X4749D02*
X4749Y3288D01*
X4749Y3288D01*
X4749Y3288D01*
X4748Y3287D01*
X4748Y3287D01*
X4748Y3287D01*
X4748Y3287D01*
X4748Y3287D01*
X4748Y3287D01*
X4748Y3287D01*
X4748Y3287D01*
X4748Y3287D01*
X4748Y3287D01*
X4748Y3287D01*
X4748Y3287D01*
X4748Y3286D01*
X4748Y3286D01*
X4748Y3286D01*
X4748Y3286D01*
X4747Y3286D01*
X4747Y3286D01*
X4747Y3286D01*
X4747Y3286D01*
X4747Y3286D01*
X4747Y3286D01*
X4747Y3286D01*
X4747Y3286D01*
X4747Y3286D01*
X4747Y3286D01*
X4721D01*
X4721Y3286D01*
X4721Y3286D01*
X4721Y3286D01*
X4721Y3286D01*
X4721Y3286D01*
X4721Y3286D01*
X4721Y3286D01*
X4721Y3286D01*
X4721Y3286D01*
X4720Y3286D01*
X4720Y3286D01*
X4720Y3286D01*
X4720Y3286D01*
X4720Y3287D01*
X4720Y3287D01*
X4720Y3287D01*
X4720Y3287D01*
X4720Y3287D01*
X4720Y3287D01*
X4720Y3287D01*
X4720Y3287D01*
X4720Y3287D01*
X4720Y3287D01*
X4720Y3287D01*
X4720Y3287D01*
X4719Y3288D01*
X4719Y3288D01*
X4719Y3288D01*
X4719Y3288D01*
X4719Y3288D01*
Y3351D01*
X4719Y3351D01*
X4719Y3351D01*
X4719Y3351D01*
X4719Y3351D01*
X4720Y3351D01*
X4720Y3351D01*
X4720Y3351D01*
X4720Y3351D01*
X4720Y3351D01*
X4720Y3352D01*
X4720Y3352D01*
X4720Y3352D01*
X4720Y3352D01*
X4720Y3352D01*
X4720Y3352D01*
X4720Y3352D01*
X4720Y3352D01*
X4720Y3352D01*
X4720Y3352D01*
X4720Y3352D01*
X4721Y3352D01*
X4721Y3352D01*
X4721Y3352D01*
X4721Y3352D01*
X4721Y3352D01*
X4721Y3353D01*
X4721Y3353D01*
X4721Y3353D01*
X4721Y3353D01*
X4721Y3353D01*
X4747D01*
X4747Y3353D01*
X4747Y3353D01*
X4747Y3353D01*
X4747Y3353D01*
X4747Y3352D01*
X4747Y3352D01*
X4747Y3352D01*
X4747Y3352D01*
X4747Y3352D01*
X4748Y3352D01*
X4748Y3352D01*
X4748Y3352D01*
X4748Y3352D01*
X4748Y3352D01*
X4748Y3352D01*
X4748Y3352D01*
X4748Y3352D01*
X4748Y3352D01*
X4748Y3352D01*
X4748Y3352D01*
X4748Y3351D01*
X4748Y3351D01*
X4748Y3351D01*
X4748Y3351D01*
X4748Y3351D01*
X4749Y3351D01*
X4749Y3351D01*
X4749Y3351D01*
X4749Y3351D01*
X4749Y3351D01*
Y3288D01*
X4749Y3288D01*
D02*
G37*
D27*
X662Y1325D02*
D03*
X808D02*
D03*
X677Y3365D02*
D03*
X823D02*
D03*
X676Y3566D02*
D03*
X822D02*
D03*
Y782D02*
D03*
X676D02*
D03*
D29*
X3588Y3941D02*
D03*
Y3978D02*
D03*
Y4015D02*
D03*
X3678D02*
D03*
Y3978D02*
D03*
Y3941D02*
D03*
D32*
X813Y1850D02*
D03*
X607D02*
D03*
D45*
X3508Y2968D02*
D03*
X3705Y2973D02*
D03*
X4209Y2971D02*
D03*
X4411D02*
D03*
X3508Y2822D02*
D03*
X3705Y2827D02*
D03*
X4209Y2825D02*
D03*
X4411D02*
D03*
D46*
X777Y1050D02*
D03*
X663D02*
D03*
X770Y3800D02*
D03*
X656D02*
D03*
X773Y3905D02*
D03*
X659D02*
D03*
X3586Y4100D02*
D03*
X3700D02*
D03*
X1444Y3960D02*
D03*
X1330D02*
D03*
X2100Y3920D02*
D03*
X1986D02*
D03*
X5048Y2742D02*
D03*
X5162D02*
D03*
X660Y1160D02*
D03*
X774D02*
D03*
D47*
X4670Y2924D02*
D03*
Y2810D02*
D03*
X3980Y2920D02*
D03*
Y2806D02*
D03*
X5350Y3060D02*
D03*
Y3174D02*
D03*
X6055Y3063D02*
D03*
Y3177D02*
D03*
X1335Y3316D02*
D03*
Y3430D02*
D03*
X1325Y2132D02*
D03*
Y2018D02*
D03*
X5585Y3175D02*
D03*
Y3061D02*
D03*
X6290Y3177D02*
D03*
Y3063D02*
D03*
X5821Y3175D02*
D03*
Y3060D02*
D03*
X2400Y966D02*
D03*
Y1080D02*
D03*
X2395Y500D02*
D03*
Y614D02*
D03*
X1005Y2583D02*
D03*
Y2697D02*
D03*
X795Y2578D02*
D03*
Y2692D02*
D03*
X3864Y2806D02*
D03*
X4569Y2807D02*
D03*
X3485Y4030D02*
D03*
X5674Y3483D02*
D03*
X3864Y2920D02*
D03*
X4569Y2921D02*
D03*
X3485Y3916D02*
D03*
X5674Y3369D02*
D03*
D48*
X5897Y2648D02*
D03*
X5946D02*
D03*
X5995D02*
D03*
X6045D02*
D03*
X6094D02*
D03*
X6143D02*
D03*
X3982Y2660D02*
D03*
X4648D02*
D03*
X3834D02*
D03*
X3883D02*
D03*
X3932D02*
D03*
X4031D02*
D03*
X4080D02*
D03*
X4500D02*
D03*
X4549D02*
D03*
X4598D02*
D03*
X4697D02*
D03*
X4746D02*
D03*
D49*
X6243Y2534D02*
D03*
X5797D02*
D03*
X3734Y2546D02*
D03*
X4180D02*
D03*
X4400D02*
D03*
X4846D02*
D03*
D50*
X5410Y3635D02*
D03*
Y3525D02*
D03*
X5240Y3060D02*
D03*
Y3170D02*
D03*
X6185Y3065D02*
D03*
X5715Y3065D02*
D03*
X5950D02*
D03*
X1335Y3745D02*
D03*
Y3855D02*
D03*
X5764Y3743D02*
D03*
Y3853D02*
D03*
X5874Y3852D02*
D03*
Y3742D02*
D03*
X6265Y3395D02*
D03*
Y3505D02*
D03*
X5480Y3175D02*
D03*
Y3065D02*
D03*
X6185Y3175D02*
D03*
X5950Y3175D02*
D03*
X5715D02*
D03*
X3280Y1905D02*
D03*
Y2015D02*
D03*
Y2275D02*
D03*
Y2165D02*
D03*
X2405Y1585D02*
D03*
Y1342D02*
D03*
Y1232D02*
D03*
Y1695D02*
D03*
D51*
X5500Y3270D02*
D03*
X5390D02*
D03*
X5716Y2768D02*
D03*
X5606D02*
D03*
X1827Y4261D02*
D03*
X1717D02*
D03*
X2467Y4260D02*
D03*
X2577D02*
D03*
X922Y4271D02*
D03*
X1032D02*
D03*
X6090Y3685D02*
D03*
X6200D02*
D03*
X5565Y3390D02*
D03*
X5455D02*
D03*
X1845Y965D02*
D03*
X1955D02*
D03*
X980Y3170D02*
D03*
X870D02*
D03*
X1615Y965D02*
D03*
X1505D02*
D03*
X5630Y3780D02*
D03*
X5520D02*
D03*
D52*
X5197Y2586D02*
D03*
X5148D02*
D03*
D53*
X5272Y2496D02*
D03*
X5073D02*
D03*
D54*
X6002Y3343D02*
D03*
X6028D02*
D03*
X5977D02*
D03*
X6079D02*
D03*
X6054D02*
D03*
X5874D02*
D03*
X5849D02*
D03*
X5926D02*
D03*
X5951D02*
D03*
X5900D02*
D03*
X6054Y3569D02*
D03*
X6079D02*
D03*
X6028D02*
D03*
X5849D02*
D03*
X5874D02*
D03*
X5977D02*
D03*
X6002D02*
D03*
X5900D02*
D03*
X5951D02*
D03*
X5926D02*
D03*
D55*
X1559Y3990D02*
D03*
Y3965D02*
D03*
Y3939D02*
D03*
Y3913D02*
D03*
Y3888D02*
D03*
Y3862D02*
D03*
Y3837D02*
D03*
Y3811D02*
D03*
Y3785D02*
D03*
Y3760D02*
D03*
X1785D02*
D03*
Y3785D02*
D03*
Y3811D02*
D03*
Y3837D02*
D03*
Y3862D02*
D03*
Y3888D02*
D03*
Y3913D02*
D03*
Y3939D02*
D03*
Y3965D02*
D03*
Y3990D02*
D03*
D56*
X1335Y2710D02*
D03*
Y2838D02*
D03*
Y3155D02*
D03*
Y3027D02*
D03*
X2120Y507D02*
D03*
Y635D02*
D03*
X2392Y2405D02*
D03*
Y2533D02*
D03*
X1950Y635D02*
D03*
Y507D02*
D03*
D57*
X2711Y4260D02*
D03*
X2853D02*
D03*
X2103Y4261D02*
D03*
X1961D02*
D03*
X1161Y4271D02*
D03*
X1303D02*
D03*
D58*
X440Y1905D02*
D03*
Y1954D02*
D03*
D59*
X350Y1830D02*
D03*
Y2029D02*
D03*
D60*
X2400Y859D02*
D03*
Y741D02*
D03*
D61*
X6160Y3415D02*
D03*
Y3484D02*
D03*
X5981Y3716D02*
D03*
Y3785D02*
D03*
D62*
X490Y1103D02*
D03*
Y1005D02*
D03*
Y906D02*
D03*
Y955D02*
D03*
Y1054D02*
D03*
Y1152D02*
D03*
X500Y3751D02*
D03*
Y3898D02*
D03*
Y3849D02*
D03*
Y3800D02*
D03*
Y3702D02*
D03*
Y3652D02*
D03*
D63*
X376Y1253D02*
D03*
Y806D02*
D03*
X386Y3999D02*
D03*
Y3552D02*
D03*
D64*
X3546Y3690D02*
D03*
X3724D02*
D03*
D65*
X3831Y3582D02*
D03*
Y3645D02*
D03*
X5770Y3370D02*
D03*
Y3433D02*
D03*
D66*
X1001Y2980D02*
D03*
Y2930D02*
D03*
Y3030D02*
D03*
Y2830D02*
D03*
Y2880D02*
D03*
Y3080D02*
D03*
Y2780D02*
D03*
X789Y2830D02*
D03*
Y2880D02*
D03*
Y3030D02*
D03*
Y3080D02*
D03*
Y2930D02*
D03*
Y2980D02*
D03*
Y2780D02*
D03*
D67*
X1617Y1070D02*
D03*
X1988D02*
D03*
X1860D02*
D03*
X1745D02*
D03*
D68*
X4130Y3690D02*
D03*
Y3790D02*
D03*
Y3890D02*
D03*
X4485Y3942D02*
D03*
X4879D02*
D03*
X4682D02*
D03*
X1632Y3230D02*
D03*
Y3130D02*
D03*
Y3030D02*
D03*
Y2930D02*
D03*
X1740Y3330D02*
D03*
Y3230D02*
D03*
Y3130D02*
D03*
Y3030D02*
D03*
Y2930D02*
D03*
Y2830D02*
D03*
X1755Y380D02*
D03*
X1655D02*
D03*
X1555D02*
D03*
X1455D02*
D03*
X1255D02*
D03*
X1355D02*
D03*
X1055D02*
D03*
X1155D02*
D03*
X2260Y650D02*
D03*
Y750D02*
D03*
X1525Y2140D02*
D03*
Y2040D02*
D03*
Y1940D02*
D03*
Y1840D02*
D03*
Y1740D02*
D03*
Y1640D02*
D03*
Y1540D02*
D03*
X2535Y1520D02*
D03*
Y1420D02*
D03*
X3135Y2120D02*
D03*
Y2020D02*
D03*
Y520D02*
D03*
X2535Y620D02*
D03*
X5326Y3926D02*
D03*
X385Y2870D02*
D03*
X390Y2465D02*
D03*
X2535Y2220D02*
D03*
X3135Y1820D02*
D03*
Y1920D02*
D03*
Y1720D02*
D03*
Y1420D02*
D03*
Y1320D02*
D03*
Y1620D02*
D03*
Y1520D02*
D03*
Y2520D02*
D03*
Y2620D02*
D03*
Y2420D02*
D03*
Y2820D02*
D03*
Y2720D02*
D03*
Y2320D02*
D03*
Y2220D02*
D03*
X2940Y2320D02*
D03*
X3040D02*
D03*
X3135Y820D02*
D03*
Y720D02*
D03*
Y620D02*
D03*
Y1120D02*
D03*
Y1220D02*
D03*
Y1020D02*
D03*
X3015Y1170D02*
D03*
Y1070D02*
D03*
X3135Y920D02*
D03*
X3015Y770D02*
D03*
Y970D02*
D03*
Y870D02*
D03*
X2740Y2320D02*
D03*
X2640D02*
D03*
X2840D02*
D03*
X2535Y1720D02*
D03*
Y1620D02*
D03*
Y1920D02*
D03*
Y1820D02*
D03*
Y2520D02*
D03*
Y2620D02*
D03*
Y2420D02*
D03*
Y2820D02*
D03*
Y2720D02*
D03*
Y2120D02*
D03*
Y2020D02*
D03*
Y2320D02*
D03*
Y720D02*
D03*
Y820D02*
D03*
Y920D02*
D03*
X2635Y620D02*
D03*
X2535Y520D02*
D03*
Y1120D02*
D03*
Y1020D02*
D03*
Y1320D02*
D03*
Y1220D02*
D03*
X5326Y3826D02*
D03*
X385Y3070D02*
D03*
Y2970D02*
D03*
X390Y2665D02*
D03*
Y2565D02*
D03*
D69*
X6035Y4040D02*
D03*
X6135D02*
D03*
X5566D02*
D03*
X5666D02*
D03*
D70*
X6235D02*
D03*
X5766D02*
D03*
D71*
X6505Y2549D02*
D03*
X6502Y4310D02*
D03*
X3343Y413D02*
D03*
X431Y431D02*
D03*
X434Y4298D02*
D03*
M02*
