M48
;Layer_Color=9474304
;FILE_FORMAT=4:3
METRIC,LZ
;TYPE=PLATED
T1F00S00C0.305
T2F00S00C1.110
T3F00S00C1.280
T4F00S00C3.000
%
T01
X001524Y000762
X002286
X003048
Y002286
X00381
X003429Y003048
X0029284Y0032033
X0026695Y0031699
X0025952
Y0032461
X0026695
Y0033223
X0025952
X0021844Y0030734
X0021101
Y0029972
X0021844
Y002921
X0021101
X0022057Y0028338
X00222Y0025814
X0014648Y0025877
Y002662
X0014605Y002794
Y0028726
X0014648Y0025134
Y0024391
Y0023648
X001524Y002286
X0010922Y0025507
X0010179
Y0026269
X0010922
Y0027031
X0010179
X000762Y002286
X001143Y001524
X001905
X001524Y00381
X002286
X000762
X004572
X004848Y0038698
X0049301Y0038659
X005334Y00381
X0055271Y0039269
X0062414Y0036134
X0059182Y0030734
X0059195Y00254
X0058452
X0057709
X0056966
X0056223
Y0024638
X0056966
X0057709
X0058452
X0059195
Y0023876
X0058452
X0057709
X0056966
X0056223
X005334Y002286
X004953Y003048
X004191
X007239
X00762Y00381
X007239Y001524
X006858Y0007938
X00762
X0053649Y00103
X0050902Y000795
X008382Y000762
X0082372Y0012167
X0081763Y0013056
X008763Y001524
X008382Y002286
X008763Y003048
X0084054Y0037866
X0119463Y0069647
X0120205
X0120948
X0121691
X012192Y006858
X012954
X0120956Y0077365
X0117729Y0076581
X0116586
Y0077324
X0115824
Y0076581
Y0075838
X0116586
X0115062
Y0076581
Y0077324
X011049Y00762
X0110007Y0069418
Y0068675
Y0067932
Y0067189
Y0066446
X0116713Y006604
X0116714Y0065298
X0117475Y0065297
Y006604
X0118237
Y0065297
X011872Y0069647
X011557
X0114808Y0069672
X010348Y0069647
X0102737
X0101994
X0101251
X0100508
X0098882Y0069571
X0097968Y0069621
X0099645Y0066006
Y0065263
X0100407
Y0066006
X0101169
Y0065263
X0093167Y0065094
Y0065837
Y006658
Y0067323
Y0068066
X0097282Y0075711
Y0076454
X0098044
Y0075711
X0098806
Y0076454
X0099746Y007653
X0101185Y007634
X010287Y00762
X008001
X0081827Y006244
X0083566Y0059436
X0087525Y0060996
X008382Y005334
X0083312Y0046736
X008763Y004572
X0072174
X0071247Y0041783
X0061722Y0044958
X0057178Y0045692
X006096Y005334
X005334
X004572
X004191Y004572
Y006096
X004953
X005715
X0062501Y005993
X0066692Y0050103
X00762Y005334
X007112Y0069901
X007239Y00762
X004572Y006858
X00381
X003048
X0027686Y0071882
Y0073152
X002667Y00762
X002286Y006858
X0018542Y0068707
X0017799
Y0067945
X0018542
Y0067183
X0017799
X001524Y006858
X000762
X001143Y00762
Y006096
X001905
X002667
X003429
X003048Y005334
X002286
X0022574Y0047803
X0023317
Y0047041
X0022574
Y0046279
X0023317
X002667Y004572
X001905
X001143
X001524Y005334
X000762
X003429Y004572
X003048Y0083693
X00254Y0083293
Y008255
X0024638
Y0083293
X002286Y008382
X001524
X000762
X0010433Y0094869
X0011176
Y0095631
X0010433
Y0096393
X0011176
X0014859Y0096698
Y0095955
Y0095212
Y0094469
X0014887Y0093754
X0014847Y0097852
X0014896Y0099069
X0021101Y0099314
X0021844
Y0098552
X0021101
Y0100076
X0021844
X002192Y0097663
X0022008Y0095335
X0027229Y0094463
X002667Y009144
X0026492Y0101092
X0025749
Y0101854
X0026492
Y0102616
X0025749
X002667Y010668
X0021387Y0108483
X001905Y010668
X001143
X000762Y009906
X0029464Y0100838
X0030121Y0101819
X0034109Y0102509
X0034852
X003683Y0102489
X0038227
X0035814Y0098806
Y0098044
Y0097282
X0036554Y0096126
X0037168Y0095674
X003429Y010668
X004191
X004158Y0108356
X004953Y010668
X0049022Y0100438
Y0099695
X004826
Y0100438
X0047498
X0047548Y0099745
X0054864Y009993
Y0099187
X0055626
Y009993
X0056388
Y0099187
X005715Y010668
X0060884Y0108204
X006477Y010668
X007239
X00762Y009906
X006858
X006477Y009144
X005715
X004953
X0042294Y0091824
X007239Y009144
X00762Y008382
X006858
X008001Y009144
X008763
X009144Y008382
X0096086Y0082579
X0096139Y0081261
Y0080518
X0095377
X0095457Y008114
X0094691Y0081128
X0094615Y0080518
X0099085Y0085649
X010033Y0085674
X010668Y008382
X0114374Y0083849
X0114452Y0082347
X0114427Y0081642
X0113665Y0081534
Y0082277
X0112903
Y0081534
X0117729Y0086436
X0118948
X011811Y009144
X011049
X0104902Y0090932
X010287Y0091529
X0098679Y0094361
Y0095104
Y0095847
Y009659
Y0097333
Y0098076
Y0098819
X0097917
Y0098076
Y0097333
Y009659
Y0095847
Y0095104
Y0094361
X0097155
Y0095104
Y0095847
Y009659
Y0097333
Y0098076
Y0098819
X0097028Y0101873
Y0102616
X0096266
Y0101873
X0095504
Y0102616
X009525Y010668
X008763
X008001
X008382Y009906
X010287Y010668
X011049
X012573
X013335
X014097
X014859
X015621
X01524Y009906
X014478
X0137422Y0099322
X014097Y009144
X013335
X0128041Y0084753
Y008401
Y0083268
Y0082525
Y0081782
Y0081039
Y0080296
X0127279
Y0081039
Y0081782
Y0082525
Y0083268
Y008401
Y0084753
X0126517
Y008401
Y0083268
Y0082525
Y0081782
Y0081039
Y0080296
X0125755
Y0081039
Y0081782
Y0082525
Y0083268
Y008401
Y0084753
X0124993
Y008401
Y0083268
Y0082525
Y0081782
Y0081039
Y0080296
X016383Y009144
X016002Y009906
X016383Y010668
T02
X0026797Y0009652
X0029337
X0031877
X0034417
X0036957
X0039497
X0038735Y0039116
X0064389Y0038608
Y0036068
Y0033528
Y0030988
Y0028448
Y0025908
Y0023368
Y0020828
Y0018288
Y0015748
X0066929
X0064389Y0013208
X0057404Y001651
Y001905
X0076579Y0019558
Y0022098
Y0024638
Y0027178
Y0029718
X0044577Y0009652
X0042037
X0079629Y0013208
Y0015748
Y0018288
Y0020828
Y0023368
Y0025908
Y0028448
Y0030988
Y0033528
Y0036068
Y0038608
Y0041148
Y0043688
Y0046228
Y0048768
Y0051308
Y0053848
Y0056388
Y0058928
Y0061468
Y0064008
Y0066548
Y0069088
Y0071628
X0077216Y0058928
X0074676
X0072136
X0069596
X0067056
X0064389
Y0056388
Y0053848
Y0051308
Y0048768
Y0046228
Y0043688
Y0041148
Y0061468
Y0064008
Y0066548
Y0069088
Y0071628
X0044196Y0071882
Y0074422
Y0076962
X0041455Y0076963
Y0074423
X0038735Y0054356
Y0051816
Y0049276
Y0046736
Y0044196
Y0041656
X0009906Y0062611
Y0065151
Y0067691
X0009779Y0072898
Y0075438
Y0077978
X0041455Y0079503
Y0082043
X0044196Y0082042
Y0084582
Y0079502
X0104902Y0093726
Y0096266
Y0098806
X0113919Y0100127
X0118919
X0123919
X013528Y009972
Y009718
T03
X0141376Y0102616
X0143916
X0146456
X0153289
X0155829
X0158369
T04
X0010947Y0010938
X0084912Y001049
X0165227Y0064745
X001103Y0109174
X0165151Y0109474
M30
