G04*
G04 #@! TF.GenerationSoftware,Altium Limited,Altium Designer,23.1.1 (15)*
G04*
G04 Layer_Physical_Order=4*
G04 Layer_Color=16711680*
%FSLAX23Y23*%
%MOIN*%
G70*
G04*
G04 #@! TF.SameCoordinates,15EB6A63-CFD6-40EC-87C0-43203FAF91A2*
G04*
G04*
G04 #@! TF.FilePolarity,Positive*
G04*
G01*
G75*
%ADD16C,0.010*%
%ADD78C,0.066*%
%ADD79C,0.076*%
%ADD80R,0.076X0.076*%
%ADD81C,0.017*%
%ADD82C,0.130*%
G36*
X6560Y4435D02*
X6567D01*
X6582Y4432D01*
X6595Y4426D01*
X6608Y4418D01*
X6618Y4408D01*
X6626Y4395D01*
X6632Y4382D01*
X6635Y4367D01*
X6635Y4360D01*
X6635Y2530D01*
Y2524D01*
X6633Y2511D01*
X6630Y2499D01*
X6625Y2488D01*
X6619Y2477D01*
X6611Y2467D01*
X6603Y2459D01*
X6593Y2451D01*
X6582Y2445D01*
X6571Y2440D01*
X6559Y2437D01*
X6546Y2435D01*
X6540Y2435D01*
X3555D01*
X3555Y2435D01*
X3555Y2435D01*
X3547Y2435D01*
X3546Y2435D01*
X3545D01*
X3530Y2432D01*
X3529Y2431D01*
X3528Y2431D01*
X3513Y2425D01*
X3513Y2424D01*
X3512Y2424D01*
X3499Y2415D01*
X3498Y2415D01*
X3497Y2414D01*
X3486Y2403D01*
X3485Y2402D01*
X3485Y2401D01*
X3476Y2388D01*
X3476Y2387D01*
X3475Y2387D01*
X3469Y2372D01*
X3469Y2371D01*
X3469Y2370D01*
X3465Y2355D01*
Y2354D01*
X3465Y2353D01*
X3465Y2346D01*
X3465Y2345D01*
X3465Y2345D01*
Y2336D01*
X3465Y355D01*
X3465Y348D01*
X3462Y333D01*
X3456Y320D01*
X3448Y307D01*
X3438Y297D01*
X3425Y289D01*
X3412Y283D01*
X3397Y280D01*
X3390Y280D01*
X2057D01*
X2055Y285D01*
X2160Y390D01*
X3169D01*
X3175Y391D01*
X3180Y394D01*
X3246Y461D01*
X3247D01*
X3253Y463D01*
X3259Y469D01*
X3261Y475D01*
Y483D01*
X3259Y489D01*
X3253Y495D01*
X3247Y498D01*
X3239D01*
X3233Y495D01*
X3230Y498D01*
X3235Y504D01*
X3237Y510D01*
Y518D01*
X3235Y524D01*
X3229Y530D01*
X3223Y533D01*
X3215D01*
X3209Y530D01*
X3203Y524D01*
X3201Y518D01*
Y517D01*
X3128Y444D01*
X2030D01*
X2024Y443D01*
X2019Y440D01*
X1909Y329D01*
X1427D01*
X1394Y362D01*
X1395Y363D01*
X1398Y374D01*
Y386D01*
X1395Y397D01*
X1389Y406D01*
X1381Y414D01*
X1372Y420D01*
X1361Y423D01*
X1349D01*
X1338Y420D01*
X1329Y414D01*
X1321Y406D01*
X1315Y397D01*
X1312Y386D01*
Y374D01*
X1315Y363D01*
X1321Y354D01*
X1329Y346D01*
X1338Y340D01*
X1349Y337D01*
X1361D01*
X1372Y340D01*
X1373Y341D01*
X1404Y309D01*
X1402Y305D01*
X1361D01*
X1296Y369D01*
X1298Y374D01*
Y386D01*
X1295Y397D01*
X1289Y406D01*
X1281Y414D01*
X1272Y420D01*
X1261Y423D01*
X1249D01*
X1238Y420D01*
X1229Y414D01*
X1221Y406D01*
X1215Y397D01*
X1212Y386D01*
Y374D01*
X1215Y363D01*
X1221Y354D01*
X1229Y346D01*
X1238Y340D01*
X1249Y337D01*
X1261D01*
X1272Y340D01*
X1278Y344D01*
X1338Y285D01*
X1336Y280D01*
X346D01*
X332Y283D01*
X319Y288D01*
X307Y296D01*
X296Y307D01*
X288Y319D01*
X283Y332D01*
X280Y346D01*
Y353D01*
Y4380D01*
Y4385D01*
X282Y4396D01*
X286Y4406D01*
X292Y4415D01*
X300Y4423D01*
X309Y4429D01*
X319Y4433D01*
X330Y4435D01*
X335Y4435D01*
X6560Y4435D01*
D02*
G37*
%LPC*%
G36*
X1641Y4285D02*
X1633D01*
X1627Y4282D01*
X1621Y4276D01*
X1618Y4270D01*
Y4262D01*
X1621Y4256D01*
X1627Y4250D01*
X1633Y4247D01*
X1641D01*
X1647Y4250D01*
X1653Y4256D01*
X1656Y4262D01*
Y4270D01*
X1653Y4276D01*
X1647Y4282D01*
X1641Y4285D01*
D02*
G37*
G36*
X2401Y4279D02*
X2393D01*
X2387Y4276D01*
X2381Y4270D01*
X2378Y4264D01*
Y4256D01*
X2381Y4250D01*
X2387Y4244D01*
X2393Y4241D01*
X2401D01*
X2407Y4244D01*
X2413Y4250D01*
X2415Y4256D01*
Y4264D01*
X2413Y4270D01*
X2407Y4276D01*
X2401Y4279D01*
D02*
G37*
G36*
X6509Y4385D02*
X6495D01*
X6480Y4382D01*
X6466Y4376D01*
X6454Y4368D01*
X6444Y4358D01*
X6436Y4346D01*
X6430Y4332D01*
X6427Y4317D01*
Y4303D01*
X6430Y4288D01*
X6436Y4274D01*
X6444Y4262D01*
X6454Y4252D01*
X6466Y4244D01*
X6480Y4238D01*
X6495Y4235D01*
X6509D01*
X6524Y4238D01*
X6538Y4244D01*
X6550Y4252D01*
X6560Y4262D01*
X6568Y4274D01*
X6574Y4288D01*
X6577Y4303D01*
Y4317D01*
X6574Y4332D01*
X6568Y4346D01*
X6560Y4358D01*
X6550Y4368D01*
X6538Y4376D01*
X6524Y4382D01*
X6509Y4385D01*
D02*
G37*
G36*
X442Y4373D02*
X427D01*
X412Y4370D01*
X399Y4365D01*
X386Y4356D01*
X376Y4346D01*
X368Y4334D01*
X362Y4320D01*
X359Y4306D01*
Y4291D01*
X362Y4276D01*
X368Y4263D01*
X376Y4250D01*
X386Y4240D01*
X399Y4232D01*
X412Y4226D01*
X427Y4223D01*
X442D01*
X456Y4226D01*
X470Y4232D01*
X482Y4240D01*
X493Y4250D01*
X501Y4263D01*
X506Y4276D01*
X509Y4291D01*
Y4306D01*
X506Y4320D01*
X501Y4334D01*
X493Y4346D01*
X482Y4356D01*
X470Y4365D01*
X456Y4370D01*
X442Y4373D01*
D02*
G37*
G36*
X3824Y4058D02*
X3816D01*
X3810Y4056D01*
X3805Y4051D01*
X3800Y4056D01*
X3794Y4058D01*
X3786D01*
X3780Y4056D01*
X3775Y4051D01*
X3770Y4056D01*
X3764Y4058D01*
X3756D01*
X3750Y4056D01*
X3744Y4050D01*
X3741Y4044D01*
Y4036D01*
X3744Y4030D01*
X3748Y4025D01*
X3744Y4021D01*
X3741Y4014D01*
Y4007D01*
X3744Y4000D01*
X3750Y3995D01*
X3756Y3992D01*
X3764D01*
X3770Y3995D01*
X3775Y4000D01*
X3780Y3995D01*
X3786Y3992D01*
X3794D01*
X3800Y3995D01*
X3805Y4000D01*
X3810Y3995D01*
X3816Y3992D01*
X3824D01*
X3830Y3995D01*
X3836Y4000D01*
X3839Y4007D01*
Y4014D01*
X3836Y4021D01*
X3832Y4025D01*
X3836Y4030D01*
X3839Y4036D01*
Y4044D01*
X3836Y4050D01*
X3830Y4056D01*
X3824Y4058D01*
D02*
G37*
G36*
X6283Y4088D02*
X6187D01*
Y4049D01*
X6182Y4048D01*
X6180Y4058D01*
X6173Y4069D01*
X6164Y4078D01*
X6153Y4085D01*
X6141Y4088D01*
X6129D01*
X6117Y4085D01*
X6106Y4078D01*
X6097Y4069D01*
X6090Y4058D01*
X6088Y4048D01*
X6082D01*
X6080Y4058D01*
X6073Y4069D01*
X6064Y4078D01*
X6053Y4085D01*
X6041Y4088D01*
X6029D01*
X6017Y4085D01*
X6006Y4078D01*
X5997Y4069D01*
X5990Y4058D01*
X5987Y4046D01*
Y4034D01*
X5990Y4022D01*
X5997Y4011D01*
X6006Y4002D01*
X6017Y3995D01*
X6029Y3992D01*
X6041D01*
X6053Y3995D01*
X6064Y4002D01*
X6073Y4011D01*
X6080Y4022D01*
X6082Y4032D01*
X6088D01*
X6090Y4022D01*
X6097Y4011D01*
X6106Y4002D01*
X6117Y3995D01*
X6129Y3992D01*
X6141D01*
X6153Y3995D01*
X6164Y4002D01*
X6173Y4011D01*
X6180Y4022D01*
X6182Y4032D01*
X6187Y4031D01*
Y3992D01*
X6283D01*
Y4088D01*
D02*
G37*
G36*
X5814D02*
X5718D01*
Y4049D01*
X5713Y4048D01*
X5711Y4058D01*
X5704Y4069D01*
X5695Y4078D01*
X5684Y4085D01*
X5672Y4088D01*
X5660D01*
X5648Y4085D01*
X5637Y4078D01*
X5628Y4069D01*
X5621Y4058D01*
X5618Y4046D01*
Y4034D01*
X5621Y4022D01*
X5628Y4011D01*
X5637Y4002D01*
X5648Y3995D01*
X5660Y3992D01*
X5672D01*
X5684Y3995D01*
X5695Y4002D01*
X5704Y4011D01*
X5711Y4022D01*
X5713Y4032D01*
X5718Y4031D01*
Y3992D01*
X5814D01*
Y4088D01*
D02*
G37*
G36*
X1934Y3973D02*
X1926D01*
X1920Y3970D01*
X1915Y3965D01*
X1910Y3970D01*
X1904Y3973D01*
X1896D01*
X1890Y3970D01*
X1885Y3965D01*
X1880Y3970D01*
X1874Y3973D01*
X1866D01*
X1860Y3970D01*
X1854Y3965D01*
X1852Y3958D01*
Y3951D01*
X1854Y3944D01*
X1858Y3940D01*
X1856Y3937D01*
X1853Y3931D01*
Y3923D01*
X1856Y3916D01*
X1861Y3911D01*
X1868Y3908D01*
X1876D01*
X1882Y3911D01*
X1885Y3914D01*
X1890Y3909D01*
X1896Y3907D01*
X1904D01*
X1910Y3909D01*
X1915Y3914D01*
X1920Y3909D01*
X1926Y3907D01*
X1934D01*
X1940Y3909D01*
X1946Y3915D01*
X1949Y3921D01*
Y3929D01*
X1946Y3935D01*
X1942Y3940D01*
X1946Y3944D01*
X1949Y3951D01*
Y3958D01*
X1946Y3965D01*
X1940Y3970D01*
X1934Y3973D01*
D02*
G37*
G36*
X864Y3958D02*
X856D01*
X850Y3956D01*
X845Y3952D01*
X841Y3956D01*
X834Y3958D01*
X827D01*
X820Y3956D01*
X815Y3950D01*
X812Y3944D01*
Y3936D01*
X815Y3930D01*
X820Y3925D01*
X815Y3920D01*
X812Y3914D01*
Y3906D01*
X815Y3900D01*
X820Y3895D01*
X815Y3890D01*
X812Y3884D01*
Y3876D01*
X815Y3870D01*
X819Y3865D01*
X818Y3861D01*
X818Y3860D01*
X648D01*
X605Y3903D01*
Y3904D01*
X602Y3911D01*
X597Y3916D01*
X590Y3919D01*
X583D01*
X576Y3916D01*
X571Y3911D01*
X568Y3904D01*
Y3897D01*
X571Y3890D01*
X576Y3885D01*
X583Y3882D01*
X583D01*
X590Y3876D01*
X589Y3874D01*
X587Y3871D01*
X581D01*
X574Y3868D01*
X569Y3863D01*
X566Y3856D01*
Y3849D01*
X569Y3842D01*
X574Y3837D01*
X581Y3834D01*
X581D01*
X612Y3803D01*
X617Y3800D01*
X623Y3799D01*
X799D01*
X848Y3750D01*
Y3750D01*
X851Y3743D01*
X856Y3738D01*
X863Y3735D01*
X870D01*
X877Y3738D01*
X882Y3743D01*
X885Y3750D01*
Y3757D01*
X882Y3764D01*
X877Y3769D01*
X870Y3772D01*
X870D01*
X817Y3825D01*
X817Y3825D01*
X818Y3830D01*
X852D01*
X853Y3829D01*
X859Y3826D01*
X867D01*
X873Y3829D01*
X879Y3835D01*
X882Y3841D01*
Y3849D01*
X879Y3855D01*
X873Y3861D01*
X873Y3866D01*
X876Y3870D01*
X878Y3876D01*
Y3884D01*
X876Y3890D01*
X871Y3895D01*
X876Y3900D01*
X878Y3906D01*
Y3914D01*
X876Y3920D01*
X871Y3925D01*
X876Y3930D01*
X878Y3936D01*
Y3944D01*
X876Y3950D01*
X870Y3956D01*
X864Y3958D01*
D02*
G37*
G36*
X1164Y3989D02*
X1156D01*
X1150Y3986D01*
X1144Y3980D01*
X1141Y3974D01*
Y3966D01*
X1144Y3960D01*
X1150Y3954D01*
X1156Y3951D01*
X1164D01*
X1170Y3954D01*
X1176Y3960D01*
X1179Y3966D01*
Y3974D01*
X1176Y3980D01*
X1170Y3986D01*
X1164Y3989D01*
D02*
G37*
G36*
X846Y4290D02*
X838D01*
X832Y4287D01*
X826Y4281D01*
X823Y4275D01*
Y4267D01*
X826Y4261D01*
X832Y4255D01*
X838Y4253D01*
X846D01*
X852Y4255D01*
X853Y4256D01*
X1433D01*
X1529Y4160D01*
Y3980D01*
X1454Y3905D01*
X1421D01*
X1420Y3906D01*
X1414Y3908D01*
X1407D01*
X1405Y3911D01*
X1405Y3913D01*
X1508Y4016D01*
X1509D01*
X1515Y4019D01*
X1521Y4025D01*
X1523Y4031D01*
Y4039D01*
X1521Y4045D01*
X1515Y4051D01*
X1509Y4054D01*
X1501D01*
X1495Y4051D01*
X1489Y4045D01*
X1487Y4039D01*
Y4038D01*
X1370Y3922D01*
X1365Y3923D01*
Y3929D01*
X1453Y4016D01*
X1454D01*
X1460Y4019D01*
X1466Y4025D01*
X1469Y4031D01*
Y4039D01*
X1466Y4045D01*
X1460Y4051D01*
X1454Y4054D01*
X1446D01*
X1440Y4051D01*
X1434Y4045D01*
X1431Y4039D01*
Y4038D01*
X1339Y3946D01*
X1336Y3941D01*
X1335Y3935D01*
Y3888D01*
X1330Y3886D01*
X1204Y4012D01*
Y4012D01*
X1202Y4019D01*
X1196Y4024D01*
X1190Y4027D01*
X1182D01*
X1175Y4024D01*
X1170Y4019D01*
X1167Y4012D01*
Y4005D01*
X1170Y3998D01*
X1175Y3993D01*
X1182Y3990D01*
X1183D01*
X1313Y3860D01*
Y3795D01*
X1314Y3790D01*
X1318Y3785D01*
X1675Y3428D01*
Y3312D01*
X1676Y3307D01*
X1679Y3302D01*
X1712Y3269D01*
X1713Y3266D01*
X1712Y3262D01*
X1706Y3256D01*
X1704Y3253D01*
X1698Y3253D01*
X1222Y3730D01*
X1217Y3733D01*
X1211Y3734D01*
X1083D01*
X1082Y3735D01*
X1076Y3737D01*
X1068D01*
X1062Y3735D01*
X1056Y3729D01*
X1054Y3723D01*
Y3715D01*
X1056Y3709D01*
X1062Y3703D01*
X1068Y3701D01*
X1076D01*
X1082Y3703D01*
X1083Y3704D01*
X1204D01*
X1631Y3277D01*
X1629Y3273D01*
X1626D01*
X1616Y3270D01*
X1606Y3264D01*
X1598Y3256D01*
X1592Y3247D01*
X1589Y3236D01*
Y3224D01*
X1592Y3214D01*
X1598Y3204D01*
X1606Y3196D01*
X1616Y3190D01*
X1626Y3187D01*
X1638D01*
X1649Y3190D01*
X1658Y3196D01*
X1666Y3204D01*
X1669Y3208D01*
X1672Y3208D01*
X1674Y3208D01*
X1677Y3203D01*
X1714Y3167D01*
X1719Y3164D01*
X1725Y3162D01*
X1814D01*
X2197Y2780D01*
X2195Y2775D01*
X1250D01*
X1134Y2891D01*
X1129Y2894D01*
X1123Y2895D01*
X1101D01*
X1100Y2896D01*
X1094Y2898D01*
X1086D01*
X1080Y2896D01*
X1074Y2890D01*
X1071Y2884D01*
Y2876D01*
X1074Y2870D01*
X1080Y2864D01*
X1086Y2862D01*
X1094D01*
X1100Y2864D01*
X1101Y2865D01*
X1117D01*
X1222Y2760D01*
X1220Y2755D01*
X1186D01*
X1109Y2833D01*
Y2834D01*
X1106Y2840D01*
X1100Y2846D01*
X1094Y2849D01*
X1086D01*
X1080Y2846D01*
X1074Y2840D01*
X1071Y2834D01*
Y2826D01*
X1074Y2820D01*
X1080Y2814D01*
X1086Y2812D01*
X1087D01*
X1169Y2729D01*
X1174Y2726D01*
X1180Y2725D01*
X2194D01*
X2492Y2426D01*
X2492Y2426D01*
Y2414D01*
X2495Y2403D01*
X2501Y2394D01*
X2509Y2386D01*
X2518Y2380D01*
X2529Y2377D01*
X2541D01*
X2552Y2380D01*
X2561Y2386D01*
X2563Y2387D01*
X2567Y2385D01*
Y2355D01*
X2563Y2353D01*
X2561Y2354D01*
X2552Y2360D01*
X2541Y2363D01*
X2529D01*
X2518Y2360D01*
X2509Y2354D01*
X2501Y2346D01*
X2495Y2337D01*
X2492Y2326D01*
Y2314D01*
X2495Y2303D01*
X2501Y2294D01*
X2509Y2286D01*
X2518Y2280D01*
X2529Y2277D01*
X2541D01*
X2552Y2280D01*
X2561Y2286D01*
X2563Y2287D01*
X2567Y2285D01*
Y2255D01*
X2563Y2253D01*
X2561Y2254D01*
X2552Y2260D01*
X2541Y2263D01*
X2529D01*
X2518Y2260D01*
X2509Y2254D01*
X2501Y2246D01*
X2495Y2237D01*
X2492Y2226D01*
Y2214D01*
X2495Y2203D01*
X2501Y2194D01*
X2509Y2186D01*
X2518Y2180D01*
X2529Y2177D01*
X2541D01*
X2552Y2180D01*
X2561Y2186D01*
X2563Y2187D01*
X2567Y2185D01*
Y2174D01*
X2553Y2159D01*
X2552Y2160D01*
X2541Y2163D01*
X2529D01*
X2518Y2160D01*
X2509Y2154D01*
X2501Y2146D01*
X2495Y2137D01*
X2492Y2126D01*
Y2114D01*
X2495Y2103D01*
X2501Y2094D01*
X2509Y2086D01*
X2518Y2080D01*
X2529Y2077D01*
X2541D01*
X2552Y2080D01*
X2561Y2086D01*
X2569Y2094D01*
X2575Y2103D01*
X2578Y2114D01*
Y2126D01*
X2575Y2137D01*
X2574Y2138D01*
X2594Y2157D01*
X2597Y2162D01*
X2598Y2168D01*
Y2297D01*
X2603Y2298D01*
X2606Y2294D01*
X2614Y2286D01*
X2623Y2280D01*
X2634Y2277D01*
X2646D01*
X2657Y2280D01*
X2666Y2286D01*
X2668Y2287D01*
X2672Y2285D01*
Y1230D01*
X2674Y1224D01*
X2677Y1219D01*
X2987Y909D01*
X2988Y906D01*
X2987Y902D01*
X2981Y896D01*
X2975Y887D01*
X2972Y876D01*
Y864D01*
X2975Y853D01*
X2981Y844D01*
X2989Y836D01*
X2998Y830D01*
X3009Y827D01*
X3021D01*
X3031Y830D01*
X3041Y836D01*
X3049Y844D01*
X3055Y853D01*
X3058Y864D01*
Y876D01*
X3055Y887D01*
X3051Y894D01*
X3053Y899D01*
X3053Y899D01*
X3054Y900D01*
X3104Y849D01*
X3101Y846D01*
X3095Y837D01*
X3092Y826D01*
Y814D01*
X3095Y803D01*
X3101Y794D01*
X3108Y787D01*
X3108Y786D01*
X3108Y783D01*
X3108Y781D01*
X3104Y779D01*
X3063Y738D01*
X3049D01*
X3048Y742D01*
X3049Y744D01*
X3055Y753D01*
X3058Y764D01*
Y776D01*
X3055Y787D01*
X3049Y796D01*
X3041Y804D01*
X3031Y810D01*
X3021Y813D01*
X3009D01*
X2998Y810D01*
X2989Y804D01*
X2981Y796D01*
X2975Y787D01*
X2972Y776D01*
Y773D01*
X2968Y771D01*
X2960Y779D01*
Y910D01*
X2959Y916D01*
X2956Y921D01*
X2574Y1302D01*
X2575Y1303D01*
X2578Y1314D01*
Y1326D01*
X2575Y1337D01*
X2569Y1346D01*
X2561Y1354D01*
X2552Y1360D01*
X2541Y1363D01*
X2529D01*
X2518Y1360D01*
X2509Y1354D01*
X2501Y1346D01*
X2495Y1337D01*
X2492Y1326D01*
Y1314D01*
X2495Y1303D01*
X2501Y1294D01*
X2509Y1286D01*
X2518Y1280D01*
X2529Y1277D01*
X2541D01*
X2552Y1280D01*
X2553Y1281D01*
X2930Y904D01*
Y788D01*
X2925Y786D01*
X2587Y1124D01*
X2582Y1127D01*
X2577Y1128D01*
X2575Y1137D01*
X2569Y1146D01*
X2561Y1154D01*
X2552Y1160D01*
X2541Y1163D01*
X2529D01*
X2518Y1160D01*
X2509Y1154D01*
X2501Y1146D01*
X2495Y1137D01*
X2492Y1126D01*
Y1114D01*
X2495Y1103D01*
X2501Y1094D01*
X2509Y1086D01*
X2518Y1080D01*
X2529Y1077D01*
X2541D01*
X2552Y1080D01*
X2561Y1086D01*
X2568Y1092D01*
X2574Y1093D01*
X3006Y661D01*
X3011Y658D01*
X3017Y657D01*
X3104D01*
X3106Y652D01*
X3101Y646D01*
X3095Y637D01*
X3092Y626D01*
Y614D01*
X3095Y603D01*
X3101Y594D01*
X3102Y592D01*
X3100Y588D01*
X2989D01*
X2574Y1002D01*
X2575Y1003D01*
X2578Y1014D01*
Y1026D01*
X2575Y1037D01*
X2569Y1046D01*
X2561Y1054D01*
X2552Y1060D01*
X2541Y1063D01*
X2529D01*
X2518Y1060D01*
X2509Y1054D01*
X2501Y1046D01*
X2495Y1037D01*
X2492Y1026D01*
Y1014D01*
X2495Y1003D01*
X2501Y994D01*
X2509Y986D01*
X2518Y980D01*
X2529Y977D01*
X2541D01*
X2552Y980D01*
X2553Y981D01*
X2972Y561D01*
X2977Y558D01*
X2983Y557D01*
X3155D01*
X3161Y558D01*
X3166Y561D01*
X3273Y669D01*
X3276Y674D01*
X3277Y679D01*
Y1658D01*
X3406Y1786D01*
X3409Y1791D01*
X3410Y1797D01*
Y2396D01*
X3523Y2509D01*
X4004D01*
X4010Y2510D01*
X4015Y2513D01*
X4311Y2810D01*
X4315Y2815D01*
X4316Y2820D01*
Y2885D01*
X4694Y3263D01*
X4697Y3268D01*
X4698Y3274D01*
Y3392D01*
X4699Y3393D01*
X4701Y3399D01*
Y3407D01*
X4699Y3413D01*
X4693Y3419D01*
X4687Y3421D01*
X4679D01*
X4673Y3419D01*
X4667Y3413D01*
X4665Y3407D01*
Y3399D01*
X4667Y3393D01*
X4668Y3392D01*
Y3280D01*
X4300Y2913D01*
X4296Y2915D01*
Y3108D01*
X4482Y3294D01*
X4486Y3293D01*
X4487Y3291D01*
X4492Y3285D01*
X4499Y3283D01*
X4507D01*
X4513Y3285D01*
X4519Y3291D01*
X4521Y3297D01*
Y3305D01*
X4519Y3312D01*
X4513Y3317D01*
X4512Y3318D01*
X4511Y3322D01*
X4576Y3388D01*
X4624D01*
X4625Y3387D01*
X4631Y3385D01*
X4639D01*
X4645Y3387D01*
X4651Y3393D01*
X4654Y3399D01*
Y3407D01*
X4651Y3413D01*
X4645Y3419D01*
X4639Y3421D01*
X4631D01*
X4625Y3419D01*
X4624Y3418D01*
X4569D01*
X4564Y3417D01*
X4559Y3414D01*
X4270Y3125D01*
X4266Y3120D01*
X4265Y3114D01*
Y2838D01*
X4004Y2577D01*
X4000Y2578D01*
X3999Y2580D01*
X3995Y2584D01*
X3999Y2588D01*
X4002Y2595D01*
Y2602D01*
X3999Y2609D01*
X3994Y2614D01*
X3987Y2617D01*
X3979D01*
X3973Y2614D01*
X3968Y2610D01*
X3964Y2614D01*
X3957Y2617D01*
X3949D01*
X3943Y2614D01*
X3938Y2610D01*
X3934Y2614D01*
X3927Y2617D01*
X3919D01*
X3913Y2614D01*
X3907Y2609D01*
X3905Y2602D01*
Y2595D01*
X3907Y2588D01*
X3912Y2584D01*
X3907Y2580D01*
X3905Y2573D01*
Y2566D01*
X3905Y2564D01*
X3903Y2560D01*
X3508D01*
X3503Y2559D01*
X3498Y2555D01*
X3375Y2433D01*
X3370Y2434D01*
Y2564D01*
X3809Y3002D01*
X3814Y3001D01*
X3814Y3000D01*
X3818Y2995D01*
X3814Y2991D01*
X3812Y2984D01*
Y2977D01*
X3814Y2970D01*
X3820Y2965D01*
X3826Y2962D01*
X3834D01*
X3840Y2965D01*
X3845Y2970D01*
X3850Y2965D01*
X3856Y2962D01*
X3864D01*
X3870Y2965D01*
X3875Y2970D01*
X3880Y2965D01*
X3886Y2962D01*
X3894D01*
X3900Y2965D01*
X3906Y2970D01*
X3907Y2973D01*
X3912Y2972D01*
Y2816D01*
X3856Y2760D01*
X3853D01*
X3847Y2757D01*
X3841Y2751D01*
X3839Y2745D01*
Y2737D01*
X3841Y2731D01*
X3847Y2725D01*
X3853Y2723D01*
X3861D01*
X3867Y2725D01*
X3872Y2729D01*
X3877Y2729D01*
X3877Y2729D01*
X3883Y2723D01*
X3889Y2720D01*
X3897D01*
X3903Y2723D01*
X3909Y2729D01*
X3911Y2735D01*
Y2736D01*
X3958Y2782D01*
X3961Y2787D01*
X3962Y2793D01*
Y2975D01*
X3966D01*
X3972Y2976D01*
X3977Y2979D01*
X3985Y2987D01*
X3987D01*
X3994Y2990D01*
X3999Y2995D01*
X4002Y3002D01*
Y3009D01*
X3999Y3016D01*
X3994Y3021D01*
X3987Y3024D01*
X3980D01*
X3973Y3021D01*
X3968Y3016D01*
X3966Y3011D01*
X3960Y3005D01*
X3954D01*
X3949Y3004D01*
X3947Y3006D01*
X3945Y3008D01*
X3945Y3009D01*
Y3017D01*
X3943Y3023D01*
X3937Y3029D01*
X3931Y3032D01*
X3923D01*
X3917Y3029D01*
X3911Y3023D01*
X3911Y3022D01*
X3909Y3021D01*
X3905Y3021D01*
X3900Y3026D01*
X3894Y3029D01*
X3886D01*
X3880Y3026D01*
X3875Y3021D01*
X3870Y3026D01*
X3864Y3029D01*
X3856D01*
X3850Y3026D01*
X3845Y3021D01*
X3840Y3026D01*
X3839Y3026D01*
X3838Y3031D01*
X4266Y3460D01*
X4962D01*
X4968Y3461D01*
X4973Y3464D01*
X5300Y3792D01*
X5309Y3786D01*
X5320Y3783D01*
X5332D01*
X5343Y3786D01*
X5352Y3792D01*
X5360Y3800D01*
X5366Y3809D01*
X5369Y3820D01*
Y3832D01*
X5366Y3843D01*
X5360Y3852D01*
X5352Y3860D01*
X5343Y3866D01*
X5332Y3869D01*
X5320D01*
X5309Y3866D01*
X5300Y3860D01*
X5292Y3852D01*
X5286Y3843D01*
X5283Y3832D01*
Y3820D01*
X5284Y3818D01*
X4956Y3490D01*
X4260D01*
X4254Y3489D01*
X4249Y3486D01*
X3355Y2592D01*
X3350Y2594D01*
Y2838D01*
X3760Y3248D01*
X3765Y3246D01*
X3767Y3241D01*
X3772Y3235D01*
X3779Y3233D01*
X3787D01*
X3793Y3235D01*
X3799Y3241D01*
X3801Y3247D01*
Y3255D01*
X3799Y3262D01*
X3793Y3267D01*
X3788Y3269D01*
X3786Y3274D01*
X3869Y3357D01*
X3890D01*
X3891Y3356D01*
X3897Y3353D01*
X3905D01*
X3911Y3356D01*
X3917Y3362D01*
X3920Y3368D01*
Y3375D01*
X3922Y3377D01*
X3924Y3377D01*
X3931Y3370D01*
Y3369D01*
X3934Y3363D01*
X3940Y3357D01*
X3946Y3355D01*
X3954D01*
X3960Y3357D01*
X3966Y3363D01*
X3968Y3369D01*
Y3377D01*
X3966Y3383D01*
X3960Y3389D01*
X3954Y3391D01*
X3953D01*
X3937Y3408D01*
X3932Y3411D01*
X3926Y3412D01*
X3870D01*
X3869Y3417D01*
X3885Y3433D01*
X3885Y3433D01*
X4016Y3565D01*
X4119D01*
X4120Y3564D01*
X4126Y3562D01*
X4134D01*
X4140Y3564D01*
X4146Y3570D01*
X4148Y3576D01*
Y3584D01*
X4146Y3590D01*
X4140Y3596D01*
X4134Y3599D01*
X4126D01*
X4120Y3596D01*
X4119Y3595D01*
X4010D01*
X4004Y3594D01*
X3999Y3591D01*
X3863Y3455D01*
X3863Y3455D01*
X3209Y2801D01*
X3206Y2796D01*
X3205Y2790D01*
Y2466D01*
X3203Y2462D01*
Y2455D01*
X3206Y2448D01*
X3211Y2443D01*
X3218Y2440D01*
X3225D01*
X3227Y2440D01*
X3230Y2436D01*
X3153Y2359D01*
X3152Y2360D01*
X3141Y2363D01*
X3129D01*
X3118Y2360D01*
X3109Y2354D01*
X3101Y2346D01*
X3095Y2337D01*
X3092Y2326D01*
Y2314D01*
X3095Y2303D01*
X3101Y2294D01*
X3109Y2286D01*
X3118Y2280D01*
X3129Y2277D01*
X3141D01*
X3152Y2280D01*
X3161Y2286D01*
X3169Y2294D01*
X3175Y2303D01*
X3178Y2314D01*
Y2326D01*
X3175Y2337D01*
X3174Y2338D01*
X3315Y2478D01*
X3320Y2477D01*
Y2427D01*
X3152Y2259D01*
X3152Y2260D01*
X3141Y2263D01*
X3129D01*
X3118Y2260D01*
X3109Y2254D01*
X3101Y2246D01*
X3095Y2237D01*
X3092Y2226D01*
Y2214D01*
X3095Y2203D01*
X3101Y2194D01*
X3109Y2186D01*
X3118Y2180D01*
X3129Y2177D01*
X3141D01*
X3152Y2180D01*
X3161Y2186D01*
X3169Y2194D01*
X3175Y2203D01*
X3178Y2214D01*
Y2226D01*
X3175Y2237D01*
X3174Y2238D01*
X3269Y2332D01*
X3274Y2331D01*
X3274Y2330D01*
X3280Y2324D01*
X3286Y2322D01*
X3294D01*
X3300Y2324D01*
X3306Y2330D01*
X3309Y2336D01*
Y2344D01*
X3306Y2350D01*
X3300Y2356D01*
X3299Y2356D01*
X3298Y2361D01*
X3335Y2399D01*
X3340Y2397D01*
Y1820D01*
X3209Y1689D01*
X3206Y1684D01*
X3205Y1679D01*
Y1246D01*
X3200Y1244D01*
X3163Y1281D01*
X3162Y1284D01*
X3163Y1288D01*
X3169Y1294D01*
X3175Y1303D01*
X3178Y1314D01*
Y1326D01*
X3175Y1337D01*
X3169Y1346D01*
X3161Y1354D01*
X3152Y1360D01*
X3141Y1363D01*
X3129D01*
X3118Y1360D01*
X3109Y1354D01*
X3101Y1346D01*
X3095Y1337D01*
X3092Y1326D01*
Y1323D01*
X3088Y1321D01*
X2798Y1612D01*
X2798Y1613D01*
X2803Y1615D01*
X2903Y1516D01*
X2903Y1516D01*
X3009Y1409D01*
X3014Y1406D01*
X3020Y1405D01*
X3095D01*
X3095Y1403D01*
X3101Y1394D01*
X3109Y1386D01*
X3118Y1380D01*
X3129Y1377D01*
X3141D01*
X3152Y1380D01*
X3161Y1386D01*
X3169Y1394D01*
X3175Y1403D01*
X3178Y1414D01*
Y1426D01*
X3175Y1437D01*
X3169Y1446D01*
X3161Y1454D01*
X3152Y1460D01*
X3141Y1463D01*
X3129D01*
X3118Y1460D01*
X3109Y1454D01*
X3101Y1446D01*
X3095Y1437D01*
X3095Y1435D01*
X3026D01*
X2924Y1537D01*
X2924Y1537D01*
X2823Y1639D01*
X2823Y1641D01*
Y1649D01*
X2821Y1655D01*
X2815Y1661D01*
X2809Y1663D01*
X2801D01*
X2799Y1663D01*
X2795Y1666D01*
Y2086D01*
X2999Y2289D01*
X3001Y2293D01*
X3003Y2293D01*
X3006Y2293D01*
X3007Y2293D01*
X3014Y2286D01*
X3023Y2280D01*
X3034Y2277D01*
X3046D01*
X3057Y2280D01*
X3066Y2286D01*
X3074Y2294D01*
X3080Y2303D01*
X3083Y2314D01*
Y2326D01*
X3080Y2337D01*
X3074Y2346D01*
X3066Y2354D01*
X3057Y2360D01*
X3046Y2363D01*
X3034D01*
X3023Y2360D01*
X3014Y2354D01*
X3008Y2349D01*
X3003Y2351D01*
Y2520D01*
X3002Y2526D01*
X2999Y2531D01*
X2801Y2728D01*
X2803Y2734D01*
X2804D01*
X2810Y2736D01*
X2811Y2737D01*
X3067D01*
X3073Y2738D01*
X3078Y2741D01*
X3117Y2781D01*
X3118Y2780D01*
X3129Y2777D01*
X3141D01*
X3152Y2780D01*
X3161Y2786D01*
X3169Y2794D01*
X3175Y2803D01*
X3178Y2814D01*
Y2826D01*
X3175Y2837D01*
X3169Y2846D01*
X3161Y2854D01*
X3152Y2860D01*
X3141Y2863D01*
X3129D01*
X3118Y2860D01*
X3109Y2854D01*
X3101Y2846D01*
X3095Y2837D01*
X3092Y2826D01*
Y2814D01*
X3095Y2803D01*
X3096Y2802D01*
X3061Y2767D01*
X2811D01*
X2810Y2768D01*
X2804Y2770D01*
X2796D01*
X2790Y2768D01*
X2784Y2762D01*
X2782Y2756D01*
Y2755D01*
X2776Y2753D01*
X2464Y3066D01*
X2459Y3069D01*
X2453Y3070D01*
X2196D01*
X1555Y3711D01*
Y3760D01*
X1554Y3766D01*
X1551Y3771D01*
X1516Y3806D01*
X1511Y3809D01*
X1505Y3810D01*
X1452D01*
X1446Y3809D01*
X1442Y3806D01*
X1439Y3803D01*
X1435D01*
X1429Y3800D01*
X1423Y3795D01*
X1423Y3793D01*
X1418Y3792D01*
X1402Y3808D01*
X1405Y3812D01*
X1406Y3812D01*
X1414D01*
X1420Y3814D01*
X1426Y3820D01*
X1429Y3826D01*
Y3834D01*
X1426Y3840D01*
X1421Y3845D01*
X1426Y3850D01*
X1429Y3856D01*
Y3864D01*
X1426Y3870D01*
X1428Y3875D01*
X1460D01*
X1466Y3876D01*
X1471Y3879D01*
X1555Y3963D01*
X1558Y3968D01*
X1559Y3974D01*
Y4166D01*
X1558Y4172D01*
X1555Y4177D01*
X1450Y4282D01*
X1445Y4285D01*
X1439Y4286D01*
X853D01*
X852Y4287D01*
X846Y4290D01*
D02*
G37*
G36*
X3889Y3909D02*
X3881D01*
X3875Y3906D01*
X3870Y3902D01*
X3865Y3906D01*
X3859Y3909D01*
X3851D01*
X3845Y3906D01*
X3840Y3902D01*
X3835Y3906D01*
X3829Y3909D01*
X3821D01*
X3815Y3906D01*
X3809Y3901D01*
X3806Y3894D01*
Y3887D01*
X3809Y3880D01*
X3813Y3876D01*
X3809Y3872D01*
X3806Y3865D01*
Y3858D01*
X3809Y3851D01*
X3813Y3847D01*
X3809Y3842D01*
X3806Y3836D01*
Y3828D01*
X3809Y3822D01*
X3813Y3817D01*
X3809Y3813D01*
X3806Y3806D01*
Y3799D01*
X3809Y3792D01*
X3813Y3788D01*
X3809Y3784D01*
X3806Y3777D01*
Y3770D01*
X3809Y3763D01*
X3813Y3759D01*
X3809Y3755D01*
X3806Y3748D01*
Y3741D01*
X3809Y3734D01*
X3813Y3730D01*
X3809Y3725D01*
X3806Y3719D01*
Y3711D01*
X3809Y3705D01*
X3815Y3699D01*
X3821Y3697D01*
X3829D01*
X3835Y3699D01*
X3840Y3704D01*
X3845Y3699D01*
X3851Y3697D01*
X3859D01*
X3865Y3699D01*
X3870Y3704D01*
X3875Y3699D01*
X3881Y3697D01*
X3889D01*
X3895Y3699D01*
X3901Y3705D01*
X3904Y3711D01*
Y3719D01*
X3901Y3725D01*
X3897Y3730D01*
X3901Y3734D01*
X3904Y3741D01*
Y3748D01*
X3901Y3755D01*
X3897Y3759D01*
X3901Y3763D01*
X3904Y3770D01*
Y3777D01*
X3901Y3784D01*
X3897Y3788D01*
X3901Y3792D01*
X3904Y3799D01*
Y3806D01*
X3901Y3813D01*
X3897Y3817D01*
X3901Y3822D01*
X3904Y3828D01*
Y3836D01*
X3901Y3842D01*
X3897Y3847D01*
X3901Y3851D01*
X3904Y3858D01*
Y3865D01*
X3901Y3872D01*
X3897Y3876D01*
X3901Y3880D01*
X3904Y3887D01*
Y3894D01*
X3901Y3901D01*
X3895Y3906D01*
X3889Y3909D01*
D02*
G37*
G36*
X4687Y3985D02*
X4676D01*
X4665Y3982D01*
X4656Y3976D01*
X4648Y3968D01*
X4642Y3959D01*
X4639Y3948D01*
Y3936D01*
X4642Y3925D01*
X4648Y3916D01*
X4656Y3908D01*
X4665Y3902D01*
X4676Y3899D01*
X4687D01*
X4698Y3902D01*
X4708Y3908D01*
X4716Y3916D01*
X4722Y3925D01*
X4725Y3936D01*
Y3948D01*
X4722Y3959D01*
X4716Y3968D01*
X4708Y3976D01*
X4698Y3982D01*
X4687Y3985D01*
D02*
G37*
G36*
X4491D02*
X4479D01*
X4468Y3982D01*
X4459Y3976D01*
X4451Y3968D01*
X4445Y3959D01*
X4442Y3948D01*
Y3936D01*
X4445Y3925D01*
X4451Y3916D01*
X4459Y3908D01*
X4468Y3902D01*
X4479Y3899D01*
X4491D01*
X4502Y3902D01*
X4511Y3908D01*
X4519Y3916D01*
X4525Y3925D01*
X4528Y3936D01*
Y3948D01*
X4525Y3959D01*
X4519Y3968D01*
X4511Y3976D01*
X4502Y3982D01*
X4491Y3985D01*
D02*
G37*
G36*
X4136Y3933D02*
X4124D01*
X4113Y3930D01*
X4104Y3924D01*
X4096Y3916D01*
X4090Y3907D01*
X4087Y3896D01*
Y3884D01*
X4090Y3873D01*
X4096Y3864D01*
X4104Y3856D01*
X4113Y3850D01*
X4124Y3847D01*
X4136D01*
X4147Y3850D01*
X4156Y3856D01*
X4164Y3864D01*
X4170Y3873D01*
X4173Y3884D01*
Y3896D01*
X4170Y3907D01*
X4164Y3916D01*
X4156Y3924D01*
X4147Y3930D01*
X4136Y3933D01*
D02*
G37*
G36*
X444Y3813D02*
X436D01*
X430Y3811D01*
X425Y3807D01*
X421Y3811D01*
X414Y3813D01*
X407D01*
X400Y3811D01*
X395Y3805D01*
X392Y3799D01*
Y3791D01*
X395Y3785D01*
X400Y3780D01*
X395Y3775D01*
X392Y3769D01*
Y3761D01*
X395Y3755D01*
X400Y3750D01*
X395Y3745D01*
X392Y3739D01*
Y3731D01*
X395Y3725D01*
X400Y3719D01*
X407Y3717D01*
X414D01*
X421Y3719D01*
X425Y3723D01*
X430Y3719D01*
X436Y3717D01*
X444D01*
X450Y3719D01*
X456Y3725D01*
X458Y3731D01*
Y3739D01*
X456Y3745D01*
X451Y3750D01*
X456Y3755D01*
X458Y3761D01*
Y3769D01*
X456Y3775D01*
X451Y3780D01*
X456Y3785D01*
X458Y3791D01*
Y3799D01*
X456Y3805D01*
X450Y3811D01*
X444Y3813D01*
D02*
G37*
G36*
X4136Y3833D02*
X4124D01*
X4113Y3830D01*
X4104Y3824D01*
X4096Y3816D01*
X4090Y3807D01*
X4087Y3796D01*
Y3784D01*
X4090Y3773D01*
X4096Y3764D01*
X4104Y3756D01*
X4113Y3750D01*
X4124Y3747D01*
X4136D01*
X4147Y3750D01*
X4156Y3756D01*
X4164Y3764D01*
X4170Y3773D01*
X4173Y3784D01*
Y3796D01*
X4170Y3807D01*
X4164Y3816D01*
X4156Y3824D01*
X4147Y3830D01*
X4136Y3833D01*
D02*
G37*
G36*
Y3733D02*
X4124D01*
X4113Y3730D01*
X4104Y3724D01*
X4096Y3716D01*
X4090Y3707D01*
X4087Y3696D01*
Y3684D01*
X4090Y3673D01*
X4096Y3664D01*
X4104Y3656D01*
X4113Y3650D01*
X4124Y3647D01*
X4136D01*
X4147Y3650D01*
X4156Y3656D01*
X4164Y3664D01*
X4170Y3673D01*
X4173Y3684D01*
Y3696D01*
X4170Y3707D01*
X4164Y3716D01*
X4156Y3724D01*
X4147Y3730D01*
X4136Y3733D01*
D02*
G37*
G36*
X5045Y3355D02*
X5037D01*
X5031Y3352D01*
X5026Y3348D01*
X5021Y3352D01*
X5015Y3355D01*
X5007D01*
X5001Y3352D01*
X4996Y3348D01*
X4991Y3352D01*
X4985Y3355D01*
X4977D01*
X4971Y3352D01*
X4966Y3348D01*
X4961Y3352D01*
X4955Y3355D01*
X4947D01*
X4941Y3352D01*
X4936Y3348D01*
X4931Y3352D01*
X4925Y3355D01*
X4917D01*
X4911Y3352D01*
X4905Y3347D01*
X4903Y3340D01*
Y3333D01*
X4905Y3326D01*
X4909Y3322D01*
X4905Y3318D01*
X4903Y3311D01*
Y3304D01*
X4905Y3297D01*
X4909Y3293D01*
X4905Y3289D01*
X4903Y3282D01*
Y3275D01*
X4905Y3268D01*
X4909Y3264D01*
X4905Y3259D01*
X4903Y3253D01*
Y3245D01*
X4905Y3239D01*
X4909Y3234D01*
X4905Y3230D01*
X4903Y3223D01*
Y3216D01*
X4905Y3209D01*
X4909Y3205D01*
X4905Y3201D01*
X4903Y3194D01*
Y3187D01*
X4905Y3180D01*
X4909Y3176D01*
X4905Y3172D01*
X4903Y3165D01*
Y3158D01*
X4905Y3151D01*
X4911Y3146D01*
X4917Y3143D01*
X4925D01*
X4931Y3146D01*
X4936Y3150D01*
X4941Y3146D01*
X4947Y3143D01*
X4955D01*
X4961Y3146D01*
X4966Y3150D01*
X4971Y3146D01*
X4977Y3143D01*
X4985D01*
X4991Y3146D01*
X4996Y3150D01*
X5001Y3146D01*
X5007Y3143D01*
X5015D01*
X5021Y3146D01*
X5026Y3150D01*
X5031Y3146D01*
X5037Y3143D01*
X5045D01*
X5051Y3146D01*
X5057Y3151D01*
X5060Y3158D01*
Y3165D01*
X5057Y3172D01*
X5053Y3176D01*
X5057Y3180D01*
X5060Y3187D01*
Y3194D01*
X5057Y3201D01*
X5053Y3205D01*
X5057Y3209D01*
X5060Y3216D01*
Y3223D01*
X5057Y3230D01*
X5053Y3234D01*
X5057Y3239D01*
X5060Y3245D01*
Y3253D01*
X5057Y3259D01*
X5053Y3264D01*
X5057Y3268D01*
X5060Y3275D01*
Y3282D01*
X5057Y3289D01*
X5053Y3293D01*
X5057Y3297D01*
X5060Y3304D01*
Y3311D01*
X5057Y3318D01*
X5053Y3322D01*
X5057Y3326D01*
X5060Y3333D01*
Y3340D01*
X5057Y3347D01*
X5051Y3352D01*
X5045Y3355D01*
D02*
G37*
G36*
X1004Y3298D02*
X996D01*
X990Y3295D01*
X985Y3290D01*
X980Y3295D01*
X974Y3298D01*
X966D01*
X960Y3295D01*
X954Y3290D01*
X951Y3283D01*
Y3276D01*
X954Y3269D01*
X958Y3265D01*
X954Y3260D01*
X951Y3254D01*
Y3246D01*
X954Y3240D01*
X960Y3234D01*
X966Y3231D01*
X974D01*
X980Y3234D01*
X985Y3239D01*
X990Y3234D01*
X996Y3231D01*
X1004D01*
X1010Y3234D01*
X1016Y3240D01*
X1018Y3246D01*
Y3254D01*
X1016Y3260D01*
X1012Y3265D01*
X1016Y3269D01*
X1018Y3276D01*
Y3283D01*
X1016Y3290D01*
X1010Y3295D01*
X1004Y3298D01*
D02*
G37*
G36*
X1638Y3173D02*
X1626D01*
X1616Y3170D01*
X1606Y3164D01*
X1598Y3156D01*
X1592Y3147D01*
X1589Y3136D01*
Y3124D01*
X1592Y3114D01*
X1598Y3104D01*
X1606Y3096D01*
X1616Y3090D01*
X1626Y3087D01*
X1638D01*
X1649Y3090D01*
X1658Y3096D01*
X1666Y3104D01*
X1672Y3114D01*
X1675Y3124D01*
Y3136D01*
X1672Y3147D01*
X1666Y3156D01*
X1658Y3164D01*
X1649Y3170D01*
X1638Y3173D01*
D02*
G37*
G36*
X4594Y3063D02*
X4586D01*
X4580Y3060D01*
X4575Y3055D01*
X4570Y3060D01*
X4564Y3063D01*
X4556D01*
X4550Y3060D01*
X4545Y3055D01*
X4540Y3060D01*
X4534Y3063D01*
X4526D01*
X4520Y3060D01*
X4514Y3055D01*
X4511Y3048D01*
Y3041D01*
X4514Y3034D01*
X4518Y3030D01*
X4514Y3025D01*
X4511Y3019D01*
Y3011D01*
X4514Y3005D01*
X4518Y3000D01*
X4514Y2996D01*
X4511Y2989D01*
Y2982D01*
X4514Y2975D01*
X4520Y2970D01*
X4526Y2967D01*
X4534D01*
X4540Y2970D01*
X4545Y2975D01*
X4550Y2970D01*
X4556Y2967D01*
X4564D01*
X4570Y2970D01*
X4575Y2975D01*
X4580Y2970D01*
X4586Y2967D01*
X4594D01*
X4600Y2970D01*
X4606Y2975D01*
X4609Y2982D01*
Y2989D01*
X4606Y2996D01*
X4602Y3000D01*
X4606Y3005D01*
X4609Y3011D01*
Y3019D01*
X4606Y3025D01*
X4602Y3030D01*
X4606Y3034D01*
X4609Y3041D01*
Y3048D01*
X4606Y3055D01*
X4600Y3060D01*
X4594Y3063D01*
D02*
G37*
G36*
X391Y3113D02*
X379D01*
X368Y3110D01*
X359Y3104D01*
X351Y3096D01*
X345Y3087D01*
X342Y3076D01*
Y3064D01*
X345Y3053D01*
X351Y3044D01*
X359Y3036D01*
X368Y3030D01*
X379Y3027D01*
X391D01*
X402Y3030D01*
X411Y3036D01*
X419Y3044D01*
X425Y3053D01*
X428Y3064D01*
Y3076D01*
X425Y3087D01*
X419Y3096D01*
X411Y3104D01*
X402Y3110D01*
X391Y3113D01*
D02*
G37*
G36*
X4766Y3064D02*
X4758D01*
X4752Y3062D01*
X4746Y3056D01*
X4744Y3050D01*
Y3049D01*
X4723Y3028D01*
X4675D01*
X4669Y3027D01*
X4664Y3024D01*
X4658Y3018D01*
X4653Y3020D01*
X4651Y3025D01*
X4645Y3031D01*
X4639Y3033D01*
X4631D01*
X4625Y3031D01*
X4619Y3025D01*
X4616Y3019D01*
Y3011D01*
X4619Y3005D01*
X4620Y3004D01*
Y2783D01*
X4619Y2782D01*
X4539D01*
X4533Y2781D01*
X4528Y2778D01*
X4514Y2764D01*
X4511Y2759D01*
X4510Y2759D01*
X4504Y2753D01*
X4502Y2747D01*
Y2739D01*
X4504Y2733D01*
X4510Y2727D01*
X4516Y2724D01*
X4524D01*
X4530Y2727D01*
X4534Y2731D01*
X4540Y2726D01*
X4546Y2724D01*
X4554D01*
X4560Y2726D01*
X4561Y2727D01*
X4634D01*
X4639Y2728D01*
X4644Y2731D01*
X4668Y2755D01*
X4671Y2760D01*
X4672Y2765D01*
Y2989D01*
X4681Y2998D01*
X4729D01*
X4735Y2999D01*
X4740Y3002D01*
X4765Y3027D01*
X4766D01*
X4773Y3030D01*
X4778Y3035D01*
X4781Y3042D01*
Y3050D01*
X4778Y3056D01*
X4773Y3062D01*
X4766Y3064D01*
D02*
G37*
G36*
X1746Y3073D02*
X1734D01*
X1723Y3070D01*
X1714Y3064D01*
X1706Y3056D01*
X1700Y3047D01*
X1697Y3036D01*
Y3024D01*
X1700Y3013D01*
X1706Y3004D01*
X1714Y2996D01*
X1723Y2990D01*
X1734Y2987D01*
X1746D01*
X1757Y2990D01*
X1766Y2996D01*
X1774Y3004D01*
X1780Y3013D01*
X1783Y3024D01*
Y3036D01*
X1780Y3047D01*
X1774Y3056D01*
X1766Y3064D01*
X1757Y3070D01*
X1746Y3073D01*
D02*
G37*
G36*
X391Y3013D02*
X379D01*
X368Y3010D01*
X359Y3004D01*
X351Y2996D01*
X345Y2987D01*
X342Y2976D01*
Y2964D01*
X345Y2953D01*
X351Y2944D01*
X359Y2936D01*
X368Y2930D01*
X379Y2927D01*
X391D01*
X402Y2930D01*
X411Y2936D01*
X419Y2944D01*
X425Y2953D01*
X428Y2964D01*
Y2976D01*
X425Y2987D01*
X419Y2996D01*
X411Y3004D01*
X402Y3010D01*
X391Y3013D01*
D02*
G37*
G36*
X1746Y2973D02*
X1734D01*
X1723Y2970D01*
X1714Y2964D01*
X1706Y2956D01*
X1700Y2947D01*
X1697Y2936D01*
Y2924D01*
X1700Y2913D01*
X1706Y2904D01*
X1714Y2896D01*
X1723Y2890D01*
X1734Y2887D01*
X1746D01*
X1757Y2890D01*
X1766Y2896D01*
X1774Y2904D01*
X1780Y2913D01*
X1783Y2924D01*
Y2936D01*
X1780Y2947D01*
X1774Y2956D01*
X1766Y2964D01*
X1757Y2970D01*
X1746Y2973D01*
D02*
G37*
G36*
Y2873D02*
X1734D01*
X1723Y2870D01*
X1714Y2864D01*
X1706Y2856D01*
X1700Y2847D01*
X1697Y2836D01*
Y2824D01*
X1700Y2813D01*
X1706Y2804D01*
X1714Y2796D01*
X1723Y2790D01*
X1734Y2787D01*
X1746D01*
X1757Y2790D01*
X1766Y2796D01*
X1774Y2804D01*
X1780Y2813D01*
X1783Y2824D01*
Y2836D01*
X1780Y2847D01*
X1774Y2856D01*
X1766Y2864D01*
X1757Y2870D01*
X1746Y2873D01*
D02*
G37*
G36*
X734Y2724D02*
X726D01*
X720Y2721D01*
X715Y2717D01*
X711Y2721D01*
X704Y2724D01*
X697D01*
X690Y2721D01*
X685Y2715D01*
X682Y2709D01*
Y2701D01*
X685Y2695D01*
X690Y2690D01*
X685Y2685D01*
X682Y2679D01*
Y2671D01*
X685Y2665D01*
X690Y2660D01*
X685Y2655D01*
X682Y2649D01*
Y2641D01*
X685Y2635D01*
X690Y2629D01*
X697Y2626D01*
X704D01*
X711Y2629D01*
X715Y2633D01*
X720Y2629D01*
X726Y2626D01*
X734D01*
X740Y2629D01*
X746Y2635D01*
X748Y2641D01*
Y2649D01*
X746Y2655D01*
X741Y2660D01*
X746Y2665D01*
X748Y2671D01*
Y2679D01*
X746Y2685D01*
X741Y2690D01*
X746Y2695D01*
X748Y2701D01*
Y2709D01*
X746Y2715D01*
X740Y2721D01*
X734Y2724D01*
D02*
G37*
G36*
X3141Y2763D02*
X3129D01*
X3118Y2760D01*
X3109Y2754D01*
X3101Y2746D01*
X3095Y2737D01*
X3092Y2726D01*
Y2714D01*
X3095Y2703D01*
X3101Y2694D01*
X3109Y2686D01*
X3118Y2680D01*
X3129Y2677D01*
X3141D01*
X3152Y2680D01*
X3161Y2686D01*
X3169Y2694D01*
X3175Y2703D01*
X3178Y2714D01*
Y2726D01*
X3175Y2737D01*
X3169Y2746D01*
X3161Y2754D01*
X3152Y2760D01*
X3141Y2763D01*
D02*
G37*
G36*
X396Y2708D02*
X384D01*
X373Y2705D01*
X364Y2699D01*
X356Y2691D01*
X350Y2682D01*
X347Y2671D01*
Y2659D01*
X350Y2648D01*
X356Y2639D01*
X364Y2631D01*
X373Y2625D01*
X384Y2622D01*
X396D01*
X407Y2625D01*
X416Y2631D01*
X424Y2639D01*
X430Y2648D01*
X433Y2659D01*
Y2671D01*
X430Y2682D01*
X424Y2691D01*
X416Y2699D01*
X407Y2705D01*
X396Y2708D01*
D02*
G37*
G36*
X4659Y2618D02*
X4651D01*
X4645Y2616D01*
X4640Y2611D01*
X4635Y2616D01*
X4629Y2618D01*
X4621D01*
X4615Y2616D01*
X4610Y2611D01*
X4605Y2616D01*
X4599Y2618D01*
X4591D01*
X4585Y2616D01*
X4579Y2610D01*
X4576Y2604D01*
Y2596D01*
X4579Y2590D01*
X4583Y2585D01*
X4579Y2581D01*
X4577Y2574D01*
Y2567D01*
X4579Y2560D01*
X4585Y2555D01*
X4591Y2552D01*
X4599D01*
X4606Y2555D01*
X4610Y2560D01*
X4615Y2555D01*
X4621Y2552D01*
X4629D01*
X4635Y2555D01*
X4640Y2560D01*
X4645Y2555D01*
X4651Y2552D01*
X4659D01*
X4665Y2555D01*
X4671Y2560D01*
X4674Y2567D01*
Y2574D01*
X4671Y2581D01*
X4667Y2585D01*
X4671Y2590D01*
X4674Y2596D01*
Y2604D01*
X4671Y2610D01*
X4665Y2616D01*
X4659Y2618D01*
D02*
G37*
G36*
X3141Y2663D02*
X3129D01*
X3118Y2660D01*
X3109Y2654D01*
X3101Y2646D01*
X3095Y2637D01*
X3092Y2626D01*
Y2614D01*
X3095Y2603D01*
X3101Y2594D01*
X3109Y2586D01*
X3118Y2580D01*
X3129Y2577D01*
X3141D01*
X3152Y2580D01*
X3161Y2586D01*
X3169Y2594D01*
X3175Y2603D01*
X3178Y2614D01*
Y2626D01*
X3175Y2637D01*
X3169Y2646D01*
X3161Y2654D01*
X3152Y2660D01*
X3141Y2663D01*
D02*
G37*
G36*
X396Y2608D02*
X384D01*
X373Y2605D01*
X364Y2599D01*
X356Y2591D01*
X350Y2582D01*
X347Y2571D01*
Y2559D01*
X350Y2548D01*
X356Y2539D01*
X364Y2531D01*
X373Y2525D01*
X384Y2522D01*
X396D01*
X407Y2525D01*
X416Y2531D01*
X424Y2539D01*
X430Y2548D01*
X433Y2559D01*
Y2571D01*
X430Y2582D01*
X424Y2591D01*
X416Y2599D01*
X407Y2605D01*
X396Y2608D01*
D02*
G37*
G36*
X3141Y2563D02*
X3129D01*
X3118Y2560D01*
X3109Y2554D01*
X3101Y2546D01*
X3095Y2537D01*
X3092Y2526D01*
Y2514D01*
X3095Y2503D01*
X3101Y2494D01*
X3109Y2486D01*
X3118Y2480D01*
X3129Y2477D01*
X3141D01*
X3152Y2480D01*
X3161Y2486D01*
X3169Y2494D01*
X3175Y2503D01*
X3178Y2514D01*
Y2526D01*
X3175Y2537D01*
X3169Y2546D01*
X3161Y2554D01*
X3152Y2560D01*
X3141Y2563D01*
D02*
G37*
G36*
X6512Y2624D02*
X6498D01*
X6483Y2621D01*
X6469Y2615D01*
X6457Y2607D01*
X6447Y2597D01*
X6439Y2585D01*
X6433Y2571D01*
X6430Y2556D01*
Y2542D01*
X6433Y2527D01*
X6439Y2513D01*
X6447Y2501D01*
X6457Y2491D01*
X6469Y2483D01*
X6483Y2477D01*
X6498Y2474D01*
X6512D01*
X6527Y2477D01*
X6541Y2483D01*
X6553Y2491D01*
X6563Y2501D01*
X6571Y2513D01*
X6577Y2527D01*
X6580Y2542D01*
Y2556D01*
X6577Y2571D01*
X6571Y2585D01*
X6563Y2597D01*
X6553Y2607D01*
X6541Y2615D01*
X6527Y2621D01*
X6512Y2624D01*
D02*
G37*
G36*
X3141Y2463D02*
X3129D01*
X3118Y2460D01*
X3109Y2454D01*
X3101Y2446D01*
X3095Y2437D01*
X3092Y2426D01*
Y2414D01*
X3095Y2403D01*
X3101Y2394D01*
X3109Y2386D01*
X3118Y2380D01*
X3129Y2377D01*
X3141D01*
X3152Y2380D01*
X3161Y2386D01*
X3169Y2394D01*
X3175Y2403D01*
X3178Y2414D01*
Y2426D01*
X3175Y2437D01*
X3169Y2446D01*
X3161Y2454D01*
X3152Y2460D01*
X3141Y2463D01*
D02*
G37*
G36*
X1531Y2183D02*
X1519D01*
X1508Y2180D01*
X1499Y2174D01*
X1491Y2166D01*
X1485Y2157D01*
X1482Y2146D01*
Y2134D01*
X1485Y2123D01*
X1491Y2114D01*
X1499Y2106D01*
X1508Y2100D01*
X1519Y2097D01*
X1531D01*
X1542Y2100D01*
X1551Y2106D01*
X1559Y2114D01*
X1565Y2123D01*
X1568Y2134D01*
Y2146D01*
X1565Y2157D01*
X1559Y2166D01*
X1551Y2174D01*
X1542Y2180D01*
X1531Y2183D01*
D02*
G37*
G36*
X3141Y2163D02*
X3129D01*
X3118Y2160D01*
X3109Y2154D01*
X3101Y2146D01*
X3095Y2137D01*
X3092Y2126D01*
Y2114D01*
X3095Y2103D01*
X3101Y2094D01*
X3109Y2086D01*
X3118Y2080D01*
X3129Y2077D01*
X3141D01*
X3152Y2080D01*
X3161Y2086D01*
X3169Y2094D01*
X3175Y2103D01*
X3178Y2114D01*
Y2126D01*
X3175Y2137D01*
X3169Y2146D01*
X3161Y2154D01*
X3152Y2160D01*
X3141Y2163D01*
D02*
G37*
G36*
X1531Y2083D02*
X1519D01*
X1508Y2080D01*
X1499Y2074D01*
X1491Y2066D01*
X1485Y2057D01*
X1482Y2046D01*
Y2034D01*
X1485Y2023D01*
X1491Y2014D01*
X1499Y2006D01*
X1508Y2000D01*
X1519Y1997D01*
X1531D01*
X1542Y2000D01*
X1551Y2006D01*
X1559Y2014D01*
X1565Y2023D01*
X1568Y2034D01*
Y2046D01*
X1565Y2057D01*
X1559Y2066D01*
X1551Y2074D01*
X1542Y2080D01*
X1531Y2083D01*
D02*
G37*
G36*
X3141Y2063D02*
X3129D01*
X3118Y2060D01*
X3109Y2054D01*
X3101Y2046D01*
X3095Y2037D01*
X3092Y2026D01*
Y2014D01*
X3095Y2003D01*
X3101Y1994D01*
X3109Y1986D01*
X3118Y1980D01*
X3129Y1977D01*
X3141D01*
X3152Y1980D01*
X3161Y1986D01*
X3169Y1994D01*
X3175Y2003D01*
X3178Y2014D01*
Y2026D01*
X3175Y2037D01*
X3169Y2046D01*
X3161Y2054D01*
X3152Y2060D01*
X3141Y2063D01*
D02*
G37*
G36*
X2541D02*
X2529D01*
X2518Y2060D01*
X2509Y2054D01*
X2501Y2046D01*
X2495Y2037D01*
X2495Y2035D01*
X2405D01*
X2399Y2034D01*
X2394Y2031D01*
X1906Y1542D01*
X1905D01*
X1898Y1539D01*
X1893Y1534D01*
X1890Y1527D01*
Y1520D01*
X1893Y1513D01*
X1898Y1508D01*
X1905Y1505D01*
X1912D01*
X1919Y1508D01*
X1921Y1510D01*
X1925Y1512D01*
X1927Y1510D01*
X1931Y1506D01*
X1937Y1503D01*
X1945D01*
X1951Y1506D01*
X1957Y1512D01*
X1959Y1518D01*
Y1519D01*
X2396Y1956D01*
X2503D01*
X2505Y1951D01*
X2501Y1946D01*
X2495Y1937D01*
X2492Y1926D01*
Y1914D01*
X2495Y1903D01*
X2501Y1894D01*
X2509Y1886D01*
X2518Y1880D01*
X2529Y1877D01*
X2541D01*
X2552Y1880D01*
X2561Y1886D01*
X2569Y1894D01*
X2575Y1903D01*
X2578Y1914D01*
Y1926D01*
X2575Y1937D01*
X2569Y1946D01*
X2565Y1951D01*
X2567Y1956D01*
X2618D01*
X2622Y1954D01*
X2629D01*
X2636Y1957D01*
X2641Y1962D01*
X2644Y1969D01*
Y1976D01*
X2641Y1983D01*
X2636Y1988D01*
X2629Y1991D01*
X2622D01*
X2615Y1988D01*
X2613Y1986D01*
X2568D01*
X2566Y1991D01*
X2569Y1994D01*
X2575Y2003D01*
X2578Y2014D01*
Y2026D01*
X2575Y2037D01*
X2569Y2046D01*
X2561Y2054D01*
X2552Y2060D01*
X2541Y2063D01*
D02*
G37*
G36*
X922Y1901D02*
X914D01*
X908Y1898D01*
X903Y1894D01*
X899Y1898D01*
X892Y1901D01*
X885D01*
X878Y1898D01*
X873Y1892D01*
X870Y1886D01*
Y1878D01*
X873Y1872D01*
X878Y1867D01*
X873Y1862D01*
X870Y1856D01*
Y1848D01*
X873Y1842D01*
X878Y1837D01*
X873Y1832D01*
X870Y1826D01*
Y1818D01*
X873Y1812D01*
X878Y1806D01*
X885Y1804D01*
X892D01*
X899Y1806D01*
X903Y1810D01*
X908Y1806D01*
X914Y1804D01*
X922D01*
X928Y1806D01*
X934Y1812D01*
X937Y1818D01*
Y1826D01*
X934Y1832D01*
X929Y1837D01*
X934Y1842D01*
X937Y1848D01*
Y1856D01*
X934Y1862D01*
X929Y1867D01*
X934Y1872D01*
X937Y1878D01*
Y1886D01*
X934Y1892D01*
X928Y1898D01*
X922Y1901D01*
D02*
G37*
G36*
X3141Y1963D02*
X3129D01*
X3118Y1960D01*
X3109Y1954D01*
X3101Y1946D01*
X3095Y1937D01*
X3092Y1926D01*
Y1914D01*
X3095Y1903D01*
X3101Y1894D01*
X3109Y1886D01*
X3118Y1880D01*
X3129Y1877D01*
X3141D01*
X3152Y1880D01*
X3161Y1886D01*
X3169Y1894D01*
X3175Y1903D01*
X3178Y1914D01*
Y1926D01*
X3175Y1937D01*
X3169Y1946D01*
X3161Y1954D01*
X3152Y1960D01*
X3141Y1963D01*
D02*
G37*
G36*
X3284Y1859D02*
X3276D01*
X3270Y1856D01*
X3264Y1850D01*
X3261Y1844D01*
Y1836D01*
X3264Y1830D01*
X3270Y1824D01*
X3276Y1821D01*
X3284D01*
X3290Y1824D01*
X3296Y1830D01*
X3299Y1836D01*
Y1844D01*
X3296Y1850D01*
X3290Y1856D01*
X3284Y1859D01*
D02*
G37*
G36*
X1531Y1883D02*
X1519D01*
X1508Y1880D01*
X1499Y1874D01*
X1491Y1866D01*
X1485Y1857D01*
X1482Y1846D01*
Y1834D01*
X1485Y1823D01*
X1491Y1814D01*
X1499Y1806D01*
X1508Y1800D01*
X1519Y1797D01*
X1531D01*
X1542Y1800D01*
X1551Y1806D01*
X1559Y1814D01*
X1565Y1823D01*
X1568Y1834D01*
Y1846D01*
X1565Y1857D01*
X1559Y1866D01*
X1551Y1874D01*
X1542Y1880D01*
X1531Y1883D01*
D02*
G37*
G36*
X3141Y1863D02*
X3129D01*
X3118Y1860D01*
X3109Y1854D01*
X3101Y1846D01*
X3095Y1837D01*
X3092Y1826D01*
Y1814D01*
X3095Y1803D01*
X3101Y1794D01*
X3109Y1786D01*
X3118Y1780D01*
X3129Y1777D01*
X3141D01*
X3152Y1780D01*
X3161Y1786D01*
X3169Y1794D01*
X3175Y1803D01*
X3178Y1814D01*
Y1826D01*
X3175Y1837D01*
X3169Y1846D01*
X3161Y1854D01*
X3152Y1860D01*
X3141Y1863D01*
D02*
G37*
G36*
X2541D02*
X2529D01*
X2518Y1860D01*
X2509Y1854D01*
X2501Y1846D01*
X2495Y1837D01*
X2492Y1826D01*
Y1814D01*
X2495Y1803D01*
X2501Y1794D01*
X2509Y1786D01*
X2518Y1780D01*
X2529Y1777D01*
X2541D01*
X2552Y1780D01*
X2561Y1786D01*
X2569Y1794D01*
X2575Y1803D01*
X2578Y1814D01*
Y1826D01*
X2575Y1837D01*
X2569Y1846D01*
X2561Y1854D01*
X2552Y1860D01*
X2541Y1863D01*
D02*
G37*
G36*
X2434Y1788D02*
X2426D01*
X2420Y1786D01*
X2414Y1780D01*
X2411Y1774D01*
Y1766D01*
X2414Y1760D01*
X2420Y1754D01*
X2426Y1752D01*
X2434D01*
X2440Y1754D01*
X2446Y1760D01*
X2448Y1766D01*
Y1774D01*
X2446Y1780D01*
X2440Y1786D01*
X2434Y1788D01*
D02*
G37*
G36*
X1531Y1783D02*
X1519D01*
X1508Y1780D01*
X1499Y1774D01*
X1491Y1766D01*
X1485Y1757D01*
X1482Y1746D01*
Y1734D01*
X1485Y1723D01*
X1491Y1714D01*
X1499Y1706D01*
X1508Y1700D01*
X1519Y1697D01*
X1531D01*
X1542Y1700D01*
X1551Y1706D01*
X1559Y1714D01*
X1565Y1723D01*
X1568Y1734D01*
Y1746D01*
X1565Y1757D01*
X1559Y1766D01*
X1551Y1774D01*
X1542Y1780D01*
X1531Y1783D01*
D02*
G37*
G36*
X3141Y1763D02*
X3129D01*
X3118Y1760D01*
X3109Y1754D01*
X3101Y1746D01*
X3095Y1737D01*
X3092Y1726D01*
Y1714D01*
X3095Y1703D01*
X3101Y1694D01*
X3109Y1686D01*
X3118Y1680D01*
X3129Y1677D01*
X3141D01*
X3152Y1680D01*
X3161Y1686D01*
X3169Y1694D01*
X3175Y1703D01*
X3178Y1714D01*
Y1726D01*
X3175Y1737D01*
X3169Y1746D01*
X3161Y1754D01*
X3152Y1760D01*
X3141Y1763D01*
D02*
G37*
G36*
X2541D02*
X2529D01*
X2518Y1760D01*
X2509Y1754D01*
X2501Y1746D01*
X2495Y1737D01*
X2492Y1726D01*
Y1714D01*
X2495Y1703D01*
X2501Y1694D01*
X2509Y1686D01*
X2518Y1680D01*
X2529Y1677D01*
X2541D01*
X2552Y1680D01*
X2561Y1686D01*
X2569Y1694D01*
X2575Y1703D01*
X2578Y1714D01*
Y1726D01*
X2575Y1737D01*
X2569Y1746D01*
X2561Y1754D01*
X2552Y1760D01*
X2541Y1763D01*
D02*
G37*
G36*
X1531Y1683D02*
X1519D01*
X1508Y1680D01*
X1499Y1674D01*
X1491Y1666D01*
X1485Y1657D01*
X1482Y1646D01*
Y1634D01*
X1485Y1623D01*
X1491Y1614D01*
X1499Y1606D01*
X1508Y1600D01*
X1519Y1597D01*
X1531D01*
X1542Y1600D01*
X1551Y1606D01*
X1559Y1614D01*
X1565Y1623D01*
X1568Y1634D01*
Y1646D01*
X1565Y1657D01*
X1559Y1666D01*
X1551Y1674D01*
X1542Y1680D01*
X1531Y1683D01*
D02*
G37*
G36*
X3141Y1663D02*
X3129D01*
X3118Y1660D01*
X3109Y1654D01*
X3101Y1646D01*
X3095Y1637D01*
X3092Y1626D01*
Y1614D01*
X3095Y1603D01*
X3101Y1594D01*
X3109Y1586D01*
X3118Y1580D01*
X3129Y1577D01*
X3141D01*
X3152Y1580D01*
X3161Y1586D01*
X3169Y1594D01*
X3175Y1603D01*
X3178Y1614D01*
Y1626D01*
X3175Y1637D01*
X3169Y1646D01*
X3161Y1654D01*
X3152Y1660D01*
X3141Y1663D01*
D02*
G37*
G36*
X2541D02*
X2529D01*
X2518Y1660D01*
X2509Y1654D01*
X2501Y1646D01*
X2495Y1637D01*
X2492Y1626D01*
Y1614D01*
X2495Y1603D01*
X2501Y1594D01*
X2509Y1586D01*
X2518Y1580D01*
X2529Y1577D01*
X2541D01*
X2552Y1580D01*
X2561Y1586D01*
X2569Y1594D01*
X2575Y1603D01*
X2578Y1614D01*
Y1626D01*
X2575Y1637D01*
X2569Y1646D01*
X2561Y1654D01*
X2552Y1660D01*
X2541Y1663D01*
D02*
G37*
G36*
X1531Y1583D02*
X1519D01*
X1508Y1580D01*
X1499Y1574D01*
X1491Y1566D01*
X1485Y1557D01*
X1482Y1546D01*
Y1534D01*
X1485Y1523D01*
X1491Y1514D01*
X1499Y1506D01*
X1508Y1500D01*
X1519Y1497D01*
X1531D01*
X1542Y1500D01*
X1551Y1506D01*
X1559Y1514D01*
X1565Y1523D01*
X1568Y1534D01*
Y1546D01*
X1565Y1557D01*
X1559Y1566D01*
X1551Y1574D01*
X1542Y1580D01*
X1531Y1583D01*
D02*
G37*
G36*
X3141Y1563D02*
X3129D01*
X3118Y1560D01*
X3109Y1554D01*
X3101Y1546D01*
X3095Y1537D01*
X3092Y1526D01*
Y1514D01*
X3095Y1503D01*
X3101Y1494D01*
X3109Y1486D01*
X3118Y1480D01*
X3129Y1477D01*
X3141D01*
X3152Y1480D01*
X3161Y1486D01*
X3169Y1494D01*
X3175Y1503D01*
X3178Y1514D01*
Y1526D01*
X3175Y1537D01*
X3169Y1546D01*
X3161Y1554D01*
X3152Y1560D01*
X3141Y1563D01*
D02*
G37*
G36*
X2541D02*
X2529D01*
X2518Y1560D01*
X2509Y1554D01*
X2501Y1546D01*
X2495Y1537D01*
X2492Y1526D01*
Y1514D01*
X2495Y1503D01*
X2501Y1494D01*
X2509Y1486D01*
X2518Y1480D01*
X2529Y1477D01*
X2541D01*
X2552Y1480D01*
X2561Y1486D01*
X2569Y1494D01*
X2575Y1503D01*
X2578Y1514D01*
Y1526D01*
X2575Y1537D01*
X2569Y1546D01*
X2561Y1554D01*
X2552Y1560D01*
X2541Y1563D01*
D02*
G37*
G36*
X2180Y1565D02*
X2172D01*
X2166Y1562D01*
X2160Y1557D01*
X2158Y1550D01*
Y1542D01*
X2160Y1536D01*
X2166Y1530D01*
X2172Y1528D01*
X2180D01*
X2187Y1530D01*
X2187Y1531D01*
X2327D01*
X2439Y1419D01*
Y1419D01*
X2442Y1412D01*
X2447Y1407D01*
X2454Y1404D01*
X2461D01*
X2468Y1407D01*
X2473Y1412D01*
X2476Y1419D01*
Y1426D01*
X2473Y1433D01*
X2468Y1438D01*
X2461Y1441D01*
X2460D01*
X2345Y1557D01*
X2340Y1560D01*
X2334Y1561D01*
X2187D01*
X2187Y1562D01*
X2180Y1565D01*
D02*
G37*
G36*
X2541Y1463D02*
X2529D01*
X2518Y1460D01*
X2509Y1454D01*
X2501Y1446D01*
X2495Y1437D01*
X2492Y1426D01*
Y1414D01*
X2495Y1403D01*
X2501Y1394D01*
X2509Y1386D01*
X2518Y1380D01*
X2529Y1377D01*
X2541D01*
X2552Y1380D01*
X2561Y1386D01*
X2569Y1394D01*
X2575Y1403D01*
X2578Y1414D01*
Y1426D01*
X2575Y1437D01*
X2569Y1446D01*
X2561Y1454D01*
X2552Y1460D01*
X2541Y1463D01*
D02*
G37*
G36*
X1157Y1280D02*
X1149D01*
X1142Y1277D01*
X1137Y1272D01*
X1134Y1265D01*
Y1257D01*
X1137Y1251D01*
X1142Y1245D01*
X1149Y1243D01*
X1157D01*
X1163Y1245D01*
X1169Y1251D01*
X1171Y1257D01*
Y1265D01*
X1169Y1272D01*
X1163Y1277D01*
X1157Y1280D01*
D02*
G37*
G36*
X864Y1229D02*
X856D01*
X850Y1226D01*
X845Y1222D01*
X841Y1226D01*
X834Y1229D01*
X827D01*
X820Y1226D01*
X815Y1220D01*
X812Y1214D01*
Y1206D01*
X815Y1200D01*
X820Y1195D01*
X815Y1190D01*
X812Y1184D01*
Y1176D01*
X815Y1170D01*
X820Y1165D01*
X815Y1160D01*
X812Y1154D01*
Y1146D01*
X813Y1144D01*
X810Y1140D01*
X591D01*
X591Y1141D01*
X585Y1147D01*
X579Y1149D01*
X571D01*
X565Y1147D01*
X559Y1141D01*
X557Y1135D01*
Y1127D01*
X559Y1120D01*
X564Y1115D01*
X559Y1110D01*
X557Y1104D01*
Y1096D01*
X559Y1090D01*
X565Y1084D01*
X571Y1082D01*
X579D01*
X585Y1084D01*
X586Y1085D01*
X784D01*
X856Y1013D01*
Y1013D01*
X858Y1006D01*
X864Y1001D01*
X870Y998D01*
X878D01*
X884Y1001D01*
X890Y1006D01*
X893Y1013D01*
Y1020D01*
X890Y1027D01*
X884Y1032D01*
X878Y1035D01*
X877D01*
X807Y1105D01*
X809Y1110D01*
X850D01*
X851Y1108D01*
X853Y1105D01*
X858Y1100D01*
X865Y1097D01*
X872D01*
X879Y1100D01*
X884Y1105D01*
X887Y1112D01*
Y1119D01*
X884Y1126D01*
X879Y1131D01*
X876Y1133D01*
X875Y1139D01*
X876Y1140D01*
X878Y1146D01*
Y1154D01*
X876Y1160D01*
X871Y1165D01*
X876Y1170D01*
X878Y1176D01*
Y1184D01*
X876Y1190D01*
X871Y1195D01*
X876Y1200D01*
X878Y1206D01*
Y1214D01*
X876Y1220D01*
X870Y1226D01*
X864Y1229D01*
D02*
G37*
G36*
X2334D02*
X2326D01*
X2320Y1226D01*
X2314Y1220D01*
X2312Y1214D01*
Y1206D01*
X2314Y1200D01*
X2320Y1194D01*
X2326Y1191D01*
X2334D01*
X2340Y1194D01*
X2346Y1200D01*
X2349Y1206D01*
Y1214D01*
X2346Y1220D01*
X2340Y1226D01*
X2334Y1229D01*
D02*
G37*
G36*
X2541Y1263D02*
X2529D01*
X2518Y1260D01*
X2509Y1254D01*
X2501Y1246D01*
X2495Y1237D01*
X2492Y1226D01*
Y1214D01*
X2495Y1203D01*
X2501Y1194D01*
X2509Y1186D01*
X2518Y1180D01*
X2529Y1177D01*
X2541D01*
X2552Y1180D01*
X2561Y1186D01*
X2569Y1194D01*
X2575Y1203D01*
X2578Y1214D01*
Y1226D01*
X2575Y1237D01*
X2569Y1246D01*
X2561Y1254D01*
X2552Y1260D01*
X2541Y1263D01*
D02*
G37*
G36*
X434Y1083D02*
X426D01*
X420Y1080D01*
X415Y1076D01*
X411Y1080D01*
X404Y1083D01*
X397D01*
X390Y1080D01*
X385Y1075D01*
X382Y1068D01*
Y1061D01*
X385Y1054D01*
X390Y1049D01*
X385Y1045D01*
X382Y1038D01*
Y1031D01*
X385Y1024D01*
X390Y1019D01*
X385Y1015D01*
X382Y1008D01*
Y1001D01*
X385Y994D01*
X390Y989D01*
X397Y986D01*
X404D01*
X411Y989D01*
X415Y993D01*
X420Y989D01*
X426Y986D01*
X434D01*
X440Y989D01*
X446Y994D01*
X449Y1001D01*
Y1008D01*
X446Y1015D01*
X441Y1019D01*
X446Y1024D01*
X449Y1031D01*
Y1038D01*
X446Y1045D01*
X441Y1049D01*
X446Y1054D01*
X449Y1061D01*
Y1068D01*
X446Y1075D01*
X440Y1080D01*
X434Y1083D01*
D02*
G37*
G36*
X2334Y1018D02*
X2327D01*
X2320Y1016D01*
X2316Y1012D01*
X2312Y1016D01*
X2305Y1018D01*
X2298D01*
X2291Y1016D01*
X2287Y1012D01*
X2282Y1016D01*
X2276Y1018D01*
X2268D01*
X2262Y1016D01*
X2257Y1012D01*
X2253Y1016D01*
X2246Y1018D01*
X2239D01*
X2232Y1016D01*
X2228Y1012D01*
X2224Y1016D01*
X2217Y1018D01*
X2210D01*
X2203Y1016D01*
X2198Y1010D01*
X2195Y1004D01*
Y996D01*
X2198Y990D01*
X2202Y985D01*
X2198Y980D01*
X2195Y974D01*
Y966D01*
X2198Y960D01*
X2202Y955D01*
X2198Y950D01*
X2195Y944D01*
Y936D01*
X2198Y930D01*
X2203Y924D01*
X2210Y922D01*
X2217D01*
X2224Y924D01*
X2228Y928D01*
X2232Y924D01*
X2239Y922D01*
X2246D01*
X2253Y924D01*
X2257Y928D01*
X2262Y924D01*
X2268Y922D01*
X2276D01*
X2282Y924D01*
X2287Y928D01*
X2291Y924D01*
X2298Y922D01*
X2305D01*
X2312Y924D01*
X2316Y928D01*
X2320Y924D01*
X2327Y922D01*
X2334D01*
X2341Y924D01*
X2346Y930D01*
X2349Y936D01*
Y944D01*
X2346Y950D01*
X2342Y955D01*
X2346Y960D01*
X2349Y966D01*
Y974D01*
X2346Y980D01*
X2342Y985D01*
X2346Y990D01*
X2349Y996D01*
Y1004D01*
X2346Y1010D01*
X2341Y1016D01*
X2334Y1018D01*
D02*
G37*
G36*
X2541Y963D02*
X2529D01*
X2518Y960D01*
X2509Y954D01*
X2501Y946D01*
X2495Y937D01*
X2492Y926D01*
Y914D01*
X2495Y903D01*
X2501Y894D01*
X2509Y886D01*
X2518Y880D01*
X2529Y877D01*
X2541D01*
X2552Y880D01*
X2561Y886D01*
X2569Y894D01*
X2575Y903D01*
X2578Y914D01*
Y926D01*
X2575Y937D01*
X2569Y946D01*
X2561Y954D01*
X2552Y960D01*
X2541Y963D01*
D02*
G37*
G36*
Y863D02*
X2529D01*
X2518Y860D01*
X2509Y854D01*
X2501Y846D01*
X2495Y837D01*
X2492Y826D01*
Y814D01*
X2495Y803D01*
X2501Y794D01*
X2509Y786D01*
X2518Y780D01*
X2529Y777D01*
X2541D01*
X2552Y780D01*
X2561Y786D01*
X2569Y794D01*
X2575Y803D01*
X2578Y814D01*
Y826D01*
X2575Y837D01*
X2569Y846D01*
X2561Y854D01*
X2552Y860D01*
X2541Y863D01*
D02*
G37*
G36*
X2266Y793D02*
X2254D01*
X2243Y790D01*
X2234Y784D01*
X2226Y776D01*
X2220Y767D01*
X2217Y756D01*
Y744D01*
X2220Y733D01*
X2226Y724D01*
X2234Y716D01*
X2243Y710D01*
X2254Y707D01*
X2266D01*
X2277Y710D01*
X2286Y716D01*
X2294Y724D01*
X2300Y733D01*
X2303Y744D01*
Y756D01*
X2300Y767D01*
X2294Y776D01*
X2286Y784D01*
X2277Y790D01*
X2266Y793D01*
D02*
G37*
G36*
X2541Y763D02*
X2529D01*
X2518Y760D01*
X2509Y754D01*
X2501Y746D01*
X2495Y737D01*
X2492Y726D01*
Y714D01*
X2495Y703D01*
X2501Y694D01*
X2509Y686D01*
X2518Y680D01*
X2529Y677D01*
X2541D01*
X2552Y680D01*
X2561Y686D01*
X2569Y694D01*
X2575Y703D01*
X2578Y714D01*
Y726D01*
X2575Y737D01*
X2569Y746D01*
X2561Y754D01*
X2552Y760D01*
X2541Y763D01*
D02*
G37*
G36*
X2266Y693D02*
X2254D01*
X2243Y690D01*
X2234Y684D01*
X2226Y676D01*
X2220Y667D01*
X2217Y656D01*
Y644D01*
X2220Y633D01*
X2226Y624D01*
X2234Y616D01*
X2243Y610D01*
X2254Y607D01*
X2266D01*
X2277Y610D01*
X2286Y616D01*
X2294Y624D01*
X2300Y633D01*
X2303Y644D01*
Y656D01*
X2300Y667D01*
X2294Y676D01*
X2286Y684D01*
X2277Y690D01*
X2266Y693D01*
D02*
G37*
G36*
X2641Y663D02*
X2629D01*
X2618Y660D01*
X2609Y654D01*
X2601Y646D01*
X2595Y637D01*
X2592Y626D01*
Y614D01*
X2595Y603D01*
X2601Y594D01*
X2609Y586D01*
X2618Y580D01*
X2629Y577D01*
X2641D01*
X2652Y580D01*
X2661Y586D01*
X2669Y594D01*
X2675Y603D01*
X2678Y614D01*
Y626D01*
X2675Y637D01*
X2669Y646D01*
X2661Y654D01*
X2652Y660D01*
X2641Y663D01*
D02*
G37*
G36*
X2541Y563D02*
X2529D01*
X2518Y560D01*
X2509Y554D01*
X2501Y546D01*
X2495Y537D01*
X2492Y526D01*
Y514D01*
X2495Y503D01*
X2501Y494D01*
X2509Y486D01*
X2518Y480D01*
X2529Y477D01*
X2541D01*
X2552Y480D01*
X2561Y486D01*
X2569Y494D01*
X2575Y503D01*
X2578Y514D01*
Y526D01*
X2575Y537D01*
X2569Y546D01*
X2561Y554D01*
X2552Y560D01*
X2541Y563D01*
D02*
G37*
G36*
X438Y506D02*
X424D01*
X409Y503D01*
X395Y497D01*
X383Y489D01*
X373Y478D01*
X365Y466D01*
X359Y453D01*
X356Y438D01*
Y423D01*
X359Y409D01*
X365Y395D01*
X373Y383D01*
X383Y372D01*
X395Y364D01*
X409Y359D01*
X424Y356D01*
X438D01*
X453Y359D01*
X466Y364D01*
X479Y372D01*
X489Y383D01*
X497Y395D01*
X503Y409D01*
X506Y423D01*
Y438D01*
X503Y453D01*
X497Y466D01*
X489Y478D01*
X479Y489D01*
X466Y497D01*
X453Y503D01*
X438Y506D01*
D02*
G37*
G36*
X3350Y488D02*
X3336D01*
X3321Y485D01*
X3307Y479D01*
X3295Y471D01*
X3285Y461D01*
X3277Y449D01*
X3271Y435D01*
X3268Y420D01*
Y406D01*
X3271Y391D01*
X3277Y377D01*
X3285Y365D01*
X3295Y355D01*
X3307Y347D01*
X3321Y341D01*
X3336Y338D01*
X3350D01*
X3365Y341D01*
X3379Y347D01*
X3391Y355D01*
X3401Y365D01*
X3409Y377D01*
X3415Y391D01*
X3418Y406D01*
Y420D01*
X3415Y435D01*
X3409Y449D01*
X3401Y461D01*
X3391Y471D01*
X3379Y479D01*
X3365Y485D01*
X3350Y488D01*
D02*
G37*
G36*
X2464Y2378D02*
X2457D01*
X2450Y2375D01*
X2445Y2370D01*
X2442Y2363D01*
Y2362D01*
X1744Y1664D01*
X1741Y1659D01*
X1740Y1653D01*
Y420D01*
X1738Y420D01*
X1729Y414D01*
X1721Y406D01*
X1715Y397D01*
X1712Y386D01*
Y374D01*
X1715Y363D01*
X1721Y354D01*
X1729Y346D01*
X1738Y340D01*
X1749Y337D01*
X1761D01*
X1772Y340D01*
X1781Y346D01*
X1789Y354D01*
X1795Y363D01*
X1798Y374D01*
Y386D01*
X1795Y397D01*
X1789Y406D01*
X1781Y414D01*
X1772Y420D01*
X1770Y420D01*
Y1647D01*
X2465Y2341D01*
X2471Y2344D01*
X2476Y2349D01*
X2479Y2356D01*
Y2363D01*
X2476Y2370D01*
X2471Y2375D01*
X2464Y2378D01*
D02*
G37*
G36*
X1661Y423D02*
X1649D01*
X1638Y420D01*
X1629Y414D01*
X1621Y406D01*
X1615Y397D01*
X1612Y386D01*
Y374D01*
X1615Y363D01*
X1621Y354D01*
X1629Y346D01*
X1638Y340D01*
X1649Y337D01*
X1661D01*
X1672Y340D01*
X1681Y346D01*
X1689Y354D01*
X1695Y363D01*
X1698Y374D01*
Y386D01*
X1695Y397D01*
X1689Y406D01*
X1681Y414D01*
X1672Y420D01*
X1661Y423D01*
D02*
G37*
G36*
X1561D02*
X1549D01*
X1538Y420D01*
X1529Y414D01*
X1521Y406D01*
X1515Y397D01*
X1512Y386D01*
Y374D01*
X1515Y363D01*
X1521Y354D01*
X1529Y346D01*
X1538Y340D01*
X1549Y337D01*
X1561D01*
X1572Y340D01*
X1581Y346D01*
X1589Y354D01*
X1595Y363D01*
X1598Y374D01*
Y386D01*
X1595Y397D01*
X1589Y406D01*
X1581Y414D01*
X1572Y420D01*
X1561Y423D01*
D02*
G37*
G36*
X1461D02*
X1449D01*
X1438Y420D01*
X1429Y414D01*
X1421Y406D01*
X1415Y397D01*
X1412Y386D01*
Y374D01*
X1415Y363D01*
X1421Y354D01*
X1429Y346D01*
X1438Y340D01*
X1449Y337D01*
X1461D01*
X1472Y340D01*
X1481Y346D01*
X1489Y354D01*
X1495Y363D01*
X1498Y374D01*
Y386D01*
X1495Y397D01*
X1489Y406D01*
X1481Y414D01*
X1472Y420D01*
X1461Y423D01*
D02*
G37*
G36*
X1161D02*
X1149D01*
X1138Y420D01*
X1129Y414D01*
X1121Y406D01*
X1115Y397D01*
X1112Y386D01*
Y374D01*
X1115Y363D01*
X1121Y354D01*
X1129Y346D01*
X1138Y340D01*
X1149Y337D01*
X1161D01*
X1172Y340D01*
X1181Y346D01*
X1189Y354D01*
X1195Y363D01*
X1198Y374D01*
Y386D01*
X1195Y397D01*
X1189Y406D01*
X1181Y414D01*
X1172Y420D01*
X1161Y423D01*
D02*
G37*
G36*
X1061D02*
X1049D01*
X1038Y420D01*
X1029Y414D01*
X1021Y406D01*
X1015Y397D01*
X1012Y386D01*
Y374D01*
X1015Y363D01*
X1021Y354D01*
X1029Y346D01*
X1038Y340D01*
X1049Y337D01*
X1061D01*
X1072Y340D01*
X1081Y346D01*
X1089Y354D01*
X1095Y363D01*
X1098Y374D01*
Y386D01*
X1095Y397D01*
X1089Y406D01*
X1081Y414D01*
X1072Y420D01*
X1061Y423D01*
D02*
G37*
%LPD*%
G36*
X2714Y2286D02*
X2723Y2280D01*
X2734Y2277D01*
X2746D01*
X2757Y2280D01*
X2766Y2286D01*
X2768Y2287D01*
X2772Y2285D01*
Y2244D01*
X2729Y2201D01*
X2726Y2196D01*
X2725Y2190D01*
Y1591D01*
X2726Y1585D01*
X2729Y1580D01*
X3047Y1262D01*
Y1205D01*
X3043Y1203D01*
X3041Y1204D01*
X3031Y1210D01*
X3021Y1213D01*
X3009D01*
X2998Y1210D01*
X2989Y1204D01*
X2981Y1196D01*
X2975Y1187D01*
X2972Y1176D01*
Y1164D01*
X2975Y1153D01*
X2981Y1144D01*
X2989Y1136D01*
X2998Y1130D01*
X3009Y1127D01*
X3021D01*
X3031Y1130D01*
X3041Y1136D01*
X3043Y1137D01*
X3047Y1135D01*
Y1105D01*
X3043Y1103D01*
X3041Y1104D01*
X3031Y1110D01*
X3021Y1113D01*
X3009D01*
X2998Y1110D01*
X2989Y1104D01*
X2981Y1096D01*
X2975Y1087D01*
X2972Y1076D01*
Y1064D01*
X2975Y1053D01*
X2981Y1044D01*
X2989Y1036D01*
X2998Y1030D01*
X3009Y1027D01*
X3021D01*
X3031Y1030D01*
X3041Y1036D01*
X3043Y1037D01*
X3047Y1035D01*
Y1005D01*
X3043Y1003D01*
X3041Y1004D01*
X3031Y1010D01*
X3021Y1013D01*
X3009D01*
X2998Y1010D01*
X2989Y1004D01*
X2981Y996D01*
X2975Y987D01*
X2972Y976D01*
Y973D01*
X2968Y971D01*
X2703Y1236D01*
Y2289D01*
X2708Y2291D01*
X2714Y2286D01*
D02*
G37*
D16*
X4010Y3580D02*
X4130D01*
X3874Y3444D02*
X4010Y3580D01*
X3874Y3444D02*
X3874D01*
X3220Y2790D02*
X3874Y3444D01*
X3220Y2460D02*
Y2790D01*
X3315Y2500D02*
Y2853D01*
X3335Y2845D02*
X3862Y3372D01*
X3859Y3397D02*
X3926D01*
X3315Y2853D02*
X3859Y3397D01*
X3335Y2420D02*
Y2845D01*
X3862Y3372D02*
X3901D01*
X3966Y2990D02*
X3982Y3006D01*
X3984D01*
X3954Y2990D02*
X3966D01*
X3947Y2983D02*
X3954Y2990D01*
X4260Y3475D02*
X4962D01*
X5313Y3826D01*
X5326D01*
X2800Y2752D02*
X3067D01*
X3135Y2820D01*
X2988Y2300D02*
Y2520D01*
X2299Y2889D02*
X2562D01*
X2890Y2285D02*
Y2590D01*
X2524Y2955D02*
X2890Y2590D01*
X2453Y3055D02*
X2988Y2520D01*
X2788Y2238D02*
Y2664D01*
X2190Y3055D02*
X2453D01*
X2261Y2955D02*
X2524D01*
X2562Y2889D02*
X2788Y2664D01*
X2688Y1230D02*
Y2686D01*
X2602Y2772D02*
X2688Y2686D01*
X2740Y1591D02*
Y2190D01*
Y1591D02*
X3063Y1268D01*
X2740Y2190D02*
X2788Y2238D01*
X2760Y2155D02*
X2890Y2285D01*
X2760Y1599D02*
Y2155D01*
X2780Y1607D02*
X3115Y1272D01*
X2760Y1599D02*
X3107Y1252D01*
X2780Y2092D02*
X2988Y2300D01*
X2780Y1607D02*
Y2092D01*
X2390Y1971D02*
X2627D01*
X1941Y1522D02*
X2390Y1971D01*
X1909Y1524D02*
X2405Y2020D01*
X2535D01*
X2805Y1645D02*
X2807Y1643D01*
Y1633D02*
X2913Y1527D01*
X2807Y1633D02*
Y1643D01*
X2688Y1230D02*
X3000Y918D01*
X1072Y3719D02*
X1211D01*
X1688Y3241D01*
Y3214D02*
Y3241D01*
Y3214D02*
X1725Y3178D01*
X2326Y2672D02*
X2550D01*
X1821Y3178D02*
X2326Y2672D01*
X1725Y3178D02*
X1821D01*
X2550Y2672D02*
X2583Y2640D01*
X2535Y2120D02*
X2583Y2168D01*
Y2640D01*
X1725Y3278D02*
X1849D01*
X1690Y3312D02*
Y3434D01*
X1370Y3818D02*
X2299Y2889D01*
X1350Y3810D02*
X2388Y2772D01*
X1540Y3705D02*
X2190Y3055D01*
X1329Y3795D02*
X1690Y3434D01*
X1520Y3697D02*
X2261Y2955D01*
X1690Y3312D02*
X1725Y3278D01*
X1540Y3705D02*
Y3760D01*
X1520Y3697D02*
Y3710D01*
X1849Y3278D02*
X2375Y2752D01*
X1329Y3795D02*
Y3866D01*
X1350Y3810D02*
Y3935D01*
X2375Y2752D02*
X2500D01*
X2388Y2772D02*
X2602D01*
X1370Y3818D02*
Y3900D01*
X2500Y2752D02*
X2532Y2720D01*
X2535D01*
X1505Y3795D02*
X1540Y3760D01*
X1370Y3900D02*
X1505Y4035D01*
X1350Y3935D02*
X1450Y4035D01*
X1463Y3767D02*
X1520Y3710D01*
X1186Y4009D02*
X1329Y3866D01*
X1915Y314D02*
X2030Y429D01*
X1355Y380D02*
X1421Y314D01*
X1915D01*
X2098Y407D02*
X2111D01*
X2112Y405D01*
X2004Y313D02*
X2098Y407D01*
X1264Y380D02*
X1355Y289D01*
X2039D02*
X2154Y405D01*
X1355Y289D02*
X2039D01*
X1255Y380D02*
X1264D01*
X2154Y405D02*
X3169D01*
X3243Y479D01*
X2030Y429D02*
X3134D01*
X3219Y514D01*
X4004Y2524D02*
X4300Y2820D01*
X3516Y2524D02*
X4004D01*
X3395Y2403D02*
X3516Y2524D01*
X4300Y2820D02*
Y2891D01*
X3135Y2220D02*
X3335Y2420D01*
X3220Y1679D02*
X3355Y1814D01*
X3375Y1805D02*
Y2411D01*
X3262Y1664D02*
X3395Y1797D01*
X3242Y1672D02*
X3375Y1805D01*
X3355Y1814D02*
Y2570D01*
X3375Y2411D02*
X3508Y2544D01*
X3395Y1797D02*
Y2403D01*
X3262Y679D02*
Y1664D01*
X3220Y837D02*
Y1679D01*
X3242Y759D02*
Y1672D01*
X3155Y572D02*
X3262Y679D01*
X2983Y572D02*
X3155D01*
X2535Y1020D02*
X2983Y572D01*
X3155Y672D02*
X3242Y759D01*
X3135Y2220D02*
Y2220D01*
X3508Y2544D02*
X3993D01*
X4280Y2831D01*
Y3114D01*
X4569Y3403D01*
X4683Y3274D02*
Y3403D01*
X4300Y2891D02*
X4683Y3274D01*
X3150Y768D02*
X3220Y837D01*
X3135Y1020D02*
X3195Y1080D01*
X3150Y1272D02*
X3195Y1228D01*
Y1080D02*
Y1228D01*
X2542Y1113D02*
X2576D01*
X2535Y1120D02*
X2542Y1113D01*
X2576D02*
X3017Y672D01*
X3155D01*
X4569Y3403D02*
X4635D01*
X3355Y2570D02*
X4260Y3475D01*
X3135Y2320D02*
X3315Y2500D01*
X3926Y3397D02*
X3950Y3373D01*
X1755Y1653D02*
X2461Y2359D01*
X1755Y380D02*
Y1653D01*
X2945Y772D02*
X2995Y722D01*
X2535Y1320D02*
X2945Y910D01*
Y772D02*
Y910D01*
X3115Y768D02*
X3150D01*
X3070Y722D02*
X3115Y768D01*
X2995Y722D02*
X3070D01*
X3859Y2741D02*
X3927Y2809D01*
Y3013D01*
X3857Y2741D02*
X3859D01*
X1442Y3784D02*
X1452Y3795D01*
X1505D01*
X1439Y3784D02*
X1442D01*
X1544Y3974D02*
Y4166D01*
X1439Y4271D02*
X1544Y4166D01*
X1460Y3890D02*
X1544Y3974D01*
X842Y4271D02*
X1439D01*
X1410Y3890D02*
X1460D01*
X2200Y2740D02*
X2520Y2420D01*
X1123Y2880D02*
X1243Y2760D01*
X2210D02*
X2450Y2520D01*
X1243Y2760D02*
X2210D01*
X1180Y2740D02*
X2200D01*
X1090Y2830D02*
X1180Y2740D01*
X856Y1125D02*
X866Y1116D01*
X575Y1131D02*
X578D01*
X584Y1125D02*
X856D01*
X578Y1131D02*
X584Y1125D01*
X2450Y2520D02*
X2535D01*
X2520Y2420D02*
X2535D01*
X1090Y2880D02*
X1123D01*
X3124Y831D02*
X3135Y820D01*
X3124Y831D02*
Y851D01*
X3057Y918D02*
X3124Y851D01*
X3000Y918D02*
X3057D01*
X3063Y992D02*
Y1268D01*
Y992D02*
X3135Y920D01*
X2913Y1527D02*
X3020Y1420D01*
X3135D01*
X3115Y1272D02*
X3150D01*
X2913Y1527D02*
Y1527D01*
X3135Y1220D02*
Y1225D01*
X3108Y1252D02*
X3135Y1225D01*
X3107Y1252D02*
X3108D01*
X2176Y1546D02*
X2334D01*
X2457Y1423D01*
X575Y1100D02*
X790D01*
X874Y1016D01*
X866Y1116D02*
X868D01*
X3893Y2739D02*
X3947Y2793D01*
Y2983D01*
X642Y3845D02*
X863D01*
X586Y3900D02*
X642Y3845D01*
X585Y3852D02*
X623Y3814D01*
X806D02*
X866Y3753D01*
X623Y3814D02*
X806D01*
X3927Y3013D02*
X3927Y3013D01*
X4525Y2753D02*
X4539Y2767D01*
X4525Y2751D02*
Y2753D01*
X4520Y2743D02*
Y2746D01*
X4550Y2742D02*
X4634D01*
X4520Y2746D02*
X4525Y2751D01*
X4634Y2742D02*
X4657Y2765D01*
X4539Y2767D02*
X4625D01*
X4635Y2777D02*
Y3015D01*
X4625Y2767D02*
X4635Y2777D01*
X4657Y2765D02*
Y2995D01*
X4675Y3013D01*
X4729D02*
X4762Y3046D01*
X4675Y3013D02*
X4729D01*
D78*
X4130Y3690D02*
D03*
Y3790D02*
D03*
Y3890D02*
D03*
X4485Y3942D02*
D03*
X4879D02*
D03*
X4682D02*
D03*
X1632Y3230D02*
D03*
Y3130D02*
D03*
Y3030D02*
D03*
Y2930D02*
D03*
X1740Y3330D02*
D03*
Y3230D02*
D03*
Y3130D02*
D03*
Y3030D02*
D03*
Y2930D02*
D03*
Y2830D02*
D03*
X1755Y380D02*
D03*
X1655D02*
D03*
X1555D02*
D03*
X1455D02*
D03*
X1255D02*
D03*
X1355D02*
D03*
X1055D02*
D03*
X1155D02*
D03*
X2260Y650D02*
D03*
Y750D02*
D03*
X1525Y2140D02*
D03*
Y2040D02*
D03*
Y1940D02*
D03*
Y1840D02*
D03*
Y1740D02*
D03*
Y1640D02*
D03*
Y1540D02*
D03*
X2535Y1520D02*
D03*
Y1420D02*
D03*
X3135Y2120D02*
D03*
Y2020D02*
D03*
Y520D02*
D03*
X2535Y620D02*
D03*
X5326Y3926D02*
D03*
X385Y2870D02*
D03*
X390Y2465D02*
D03*
X2535Y2220D02*
D03*
X3135Y1820D02*
D03*
Y1920D02*
D03*
Y1720D02*
D03*
Y1420D02*
D03*
Y1320D02*
D03*
Y1620D02*
D03*
Y1520D02*
D03*
Y2520D02*
D03*
Y2620D02*
D03*
Y2420D02*
D03*
Y2820D02*
D03*
Y2720D02*
D03*
Y2320D02*
D03*
Y2220D02*
D03*
X2940Y2320D02*
D03*
X3040D02*
D03*
X3135Y820D02*
D03*
Y720D02*
D03*
Y620D02*
D03*
Y1120D02*
D03*
Y1220D02*
D03*
Y1020D02*
D03*
X3015Y1170D02*
D03*
Y1070D02*
D03*
X3135Y920D02*
D03*
X3015Y770D02*
D03*
Y970D02*
D03*
Y870D02*
D03*
X2740Y2320D02*
D03*
X2640D02*
D03*
X2840D02*
D03*
X2535Y1720D02*
D03*
Y1620D02*
D03*
Y1920D02*
D03*
Y1820D02*
D03*
Y2520D02*
D03*
Y2620D02*
D03*
Y2420D02*
D03*
Y2820D02*
D03*
Y2720D02*
D03*
Y2120D02*
D03*
Y2020D02*
D03*
Y2320D02*
D03*
Y720D02*
D03*
Y820D02*
D03*
Y920D02*
D03*
X2635Y620D02*
D03*
X2535Y520D02*
D03*
Y1120D02*
D03*
Y1020D02*
D03*
Y1320D02*
D03*
Y1220D02*
D03*
X5326Y3826D02*
D03*
X385Y3070D02*
D03*
Y2970D02*
D03*
X390Y2665D02*
D03*
Y2565D02*
D03*
D79*
X6035Y4040D02*
D03*
X6135D02*
D03*
X5566D02*
D03*
X5666D02*
D03*
D80*
X6235D02*
D03*
X5766D02*
D03*
D81*
X4130Y3580D02*
D03*
X4050Y3603D02*
D03*
X3783Y3251D02*
D03*
X3728Y3194D02*
D03*
X3600Y3300D02*
D03*
X3222Y2458D02*
D03*
X3758Y3194D02*
D03*
X3984Y3006D02*
D03*
X3927Y3013D02*
D03*
X5041Y3337D02*
D03*
Y3307D02*
D03*
Y3278D02*
D03*
Y3249D02*
D03*
Y3220D02*
D03*
Y3161D02*
D03*
Y3191D02*
D03*
X5011Y3337D02*
D03*
Y3307D02*
D03*
Y3278D02*
D03*
Y3249D02*
D03*
Y3220D02*
D03*
Y3161D02*
D03*
Y3191D02*
D03*
X4981D02*
D03*
Y3161D02*
D03*
Y3220D02*
D03*
Y3249D02*
D03*
X4951Y3220D02*
D03*
X4921D02*
D03*
X4981Y3278D02*
D03*
X4951Y3249D02*
D03*
X4981Y3307D02*
D03*
X4921D02*
D03*
Y3337D02*
D03*
Y3278D02*
D03*
Y3249D02*
D03*
X4981Y3337D02*
D03*
X4951Y3307D02*
D03*
Y3337D02*
D03*
Y3278D02*
D03*
X4921Y3191D02*
D03*
X4951D02*
D03*
X4921Y3161D02*
D03*
X4951D02*
D03*
X1500Y900D02*
D03*
X1372Y4036D02*
D03*
X1343D02*
D03*
X3668Y2651D02*
D03*
Y2680D02*
D03*
Y2621D02*
D03*
Y2592D02*
D03*
Y2563D02*
D03*
X2800Y2752D02*
D03*
X2626Y1973D02*
D03*
X2251Y1799D02*
D03*
X1941Y1522D02*
D03*
X1650Y1200D02*
D03*
X2842Y1800D02*
D03*
X2805Y1645D02*
D03*
X1909Y1524D02*
D03*
X1072Y3719D02*
D03*
X1186Y4009D02*
D03*
X2004Y313D02*
D03*
X2112Y405D02*
D03*
X2700Y312D02*
D03*
X3000D02*
D03*
X1200Y300D02*
D03*
X3243Y479D02*
D03*
X3219Y514D02*
D03*
X3309Y1491D02*
D03*
X3450Y1800D02*
D03*
X2850Y4200D02*
D03*
X3000Y1500D02*
D03*
Y2100D02*
D03*
X3150Y3000D02*
D03*
X3000Y3300D02*
D03*
X3150Y3600D02*
D03*
X3000Y3900D02*
D03*
X3150Y4200D02*
D03*
X3300Y300D02*
D03*
X3450Y600D02*
D03*
X3300Y900D02*
D03*
X3450Y1200D02*
D03*
X3300Y2100D02*
D03*
X3450Y3600D02*
D03*
X3300Y3900D02*
D03*
X3450Y4200D02*
D03*
X3750D02*
D03*
X4050Y3000D02*
D03*
Y4200D02*
D03*
X4350Y3000D02*
D03*
X4200Y3300D02*
D03*
X4350Y3600D02*
D03*
Y4200D02*
D03*
X4650Y3600D02*
D03*
X4800Y2700D02*
D03*
X4950Y4200D02*
D03*
X5100Y2700D02*
D03*
X5250Y3600D02*
D03*
Y4200D02*
D03*
X5550Y3600D02*
D03*
Y4200D02*
D03*
X5700Y3900D02*
D03*
X5850Y4200D02*
D03*
X6000Y3900D02*
D03*
X6150Y4200D02*
D03*
X6450Y3600D02*
D03*
X6300Y3900D02*
D03*
X6450Y4200D02*
D03*
X1665Y3615D02*
D03*
X450Y3000D02*
D03*
X300Y3300D02*
D03*
Y3900D02*
D03*
X450Y4200D02*
D03*
X600Y300D02*
D03*
X750Y600D02*
D03*
X600Y900D02*
D03*
Y1500D02*
D03*
X750Y1800D02*
D03*
X600Y2100D02*
D03*
X750Y2400D02*
D03*
X600Y2700D02*
D03*
Y3300D02*
D03*
X750Y4200D02*
D03*
X900Y300D02*
D03*
Y1500D02*
D03*
X1050Y1800D02*
D03*
X900Y2100D02*
D03*
X1050Y2400D02*
D03*
X900Y2700D02*
D03*
X1050Y3000D02*
D03*
X900Y3300D02*
D03*
X1050Y3600D02*
D03*
Y4200D02*
D03*
X1200Y900D02*
D03*
X1350Y1200D02*
D03*
Y1800D02*
D03*
X1200Y2100D02*
D03*
X1350Y2400D02*
D03*
X1200Y2700D02*
D03*
X1350Y4200D02*
D03*
X1650Y1800D02*
D03*
Y2400D02*
D03*
X1500Y2700D02*
D03*
X1650Y4200D02*
D03*
X1950Y1200D02*
D03*
X1800Y1500D02*
D03*
Y2100D02*
D03*
X1950Y2400D02*
D03*
X1800Y2700D02*
D03*
X1950Y3600D02*
D03*
Y4200D02*
D03*
X2100Y900D02*
D03*
Y1500D02*
D03*
Y2100D02*
D03*
X2250Y2400D02*
D03*
Y3600D02*
D03*
Y4200D02*
D03*
X2400Y2100D02*
D03*
X2550Y3600D02*
D03*
Y4200D02*
D03*
X2850Y600D02*
D03*
Y1200D02*
D03*
Y3000D02*
D03*
X2700Y3300D02*
D03*
X2850Y3600D02*
D03*
X2700Y3900D02*
D03*
X450Y600D02*
D03*
X300Y900D02*
D03*
Y1500D02*
D03*
X450Y1800D02*
D03*
X300Y2100D02*
D03*
X450Y2400D02*
D03*
X300Y2700D02*
D03*
X1200Y3295D02*
D03*
X3446Y2401D02*
D03*
X5410Y3910D02*
D03*
X2330Y1210D02*
D03*
X4445Y3210D02*
D03*
X4475D02*
D03*
X3785Y3199D02*
D03*
X3725Y3170D02*
D03*
X3755D02*
D03*
X3785D02*
D03*
X1450Y4035D02*
D03*
X1505D02*
D03*
X586Y3691D02*
D03*
X1872Y3927D02*
D03*
X1900Y3925D02*
D03*
X1051Y1308D02*
D03*
Y1278D02*
D03*
Y1248D02*
D03*
X1022D02*
D03*
X1014Y4040D02*
D03*
Y4010D02*
D03*
Y3980D02*
D03*
X1043D02*
D03*
Y4010D02*
D03*
Y4040D02*
D03*
X1022Y1308D02*
D03*
Y1278D02*
D03*
X1463Y3767D02*
D03*
X1439Y3784D02*
D03*
X401Y1004D02*
D03*
X3983Y2599D02*
D03*
X3923D02*
D03*
X3953Y2569D02*
D03*
Y2599D02*
D03*
X3983Y2569D02*
D03*
X4595Y2600D02*
D03*
X4625D02*
D03*
X4655D02*
D03*
X4625Y2571D02*
D03*
X4655D02*
D03*
X4595Y2571D02*
D03*
X4475Y3239D02*
D03*
X4445D02*
D03*
X1930Y3925D02*
D03*
X701Y2645D02*
D03*
X730D02*
D03*
X701Y2675D02*
D03*
Y2705D02*
D03*
X730Y2675D02*
D03*
Y2705D02*
D03*
X411Y3735D02*
D03*
X440D02*
D03*
X411Y3765D02*
D03*
X440D02*
D03*
Y3795D02*
D03*
X411D02*
D03*
X430Y1004D02*
D03*
X401Y1034D02*
D03*
Y1064D02*
D03*
X430Y1034D02*
D03*
Y1064D02*
D03*
X3923Y2569D02*
D03*
X1160Y3970D02*
D03*
X4530Y3044D02*
D03*
X4560D02*
D03*
X4590D02*
D03*
X2397Y4260D02*
D03*
X2272Y970D02*
D03*
X2330D02*
D03*
X2301D02*
D03*
X2330Y940D02*
D03*
X2243Y1000D02*
D03*
X2272D02*
D03*
X2330D02*
D03*
X2301D02*
D03*
Y940D02*
D03*
X3280Y1840D02*
D03*
X2430Y1770D02*
D03*
X3290Y2340D02*
D03*
X1410Y3830D02*
D03*
Y3890D02*
D03*
X2243Y970D02*
D03*
X2214Y1000D02*
D03*
X2272Y940D02*
D03*
X2243D02*
D03*
X2214D02*
D03*
Y970D02*
D03*
X970Y3279D02*
D03*
Y3250D02*
D03*
X1000Y3279D02*
D03*
Y3250D02*
D03*
X842Y4271D02*
D03*
X1637Y4266D02*
D03*
X1410Y3860D02*
D03*
X1153Y1261D02*
D03*
X4503Y3301D02*
D03*
X831Y3880D02*
D03*
Y3910D02*
D03*
Y3940D02*
D03*
X860Y3880D02*
D03*
Y3910D02*
D03*
Y3940D02*
D03*
X831Y1150D02*
D03*
Y1180D02*
D03*
Y1210D02*
D03*
X860Y1150D02*
D03*
Y1180D02*
D03*
Y1210D02*
D03*
X3890Y2981D02*
D03*
X3860D02*
D03*
X3830D02*
D03*
X3890Y3010D02*
D03*
X3860D02*
D03*
X3830D02*
D03*
X4590Y2986D02*
D03*
X4560D02*
D03*
X4530D02*
D03*
X4590Y3015D02*
D03*
X4560D02*
D03*
X4530D02*
D03*
X3820Y4011D02*
D03*
X3790D02*
D03*
X3760D02*
D03*
X3820Y4040D02*
D03*
X3790D02*
D03*
X3760D02*
D03*
X3885Y3861D02*
D03*
X3855D02*
D03*
X3885Y3891D02*
D03*
X3855D02*
D03*
X3825Y3861D02*
D03*
Y3891D02*
D03*
Y3832D02*
D03*
Y3803D02*
D03*
X3855Y3832D02*
D03*
X3885D02*
D03*
X3825Y3773D02*
D03*
X3855Y3803D02*
D03*
X3825Y3744D02*
D03*
X3885D02*
D03*
Y3715D02*
D03*
Y3773D02*
D03*
Y3803D02*
D03*
X3825Y3715D02*
D03*
X3855Y3744D02*
D03*
Y3715D02*
D03*
Y3773D02*
D03*
X2160Y3934D02*
D03*
Y3905D02*
D03*
X2190Y3934D02*
D03*
X2220D02*
D03*
X2190Y3905D02*
D03*
X2220D02*
D03*
X1870Y3954D02*
D03*
X1900D02*
D03*
X1930D02*
D03*
X3893Y2739D02*
D03*
X868Y1116D02*
D03*
X874Y1016D02*
D03*
X575Y1131D02*
D03*
Y1100D02*
D03*
X577Y1019D02*
D03*
Y1048D02*
D03*
Y990D02*
D03*
Y960D02*
D03*
X585Y3719D02*
D03*
Y3749D02*
D03*
Y3807D02*
D03*
Y3778D02*
D03*
X4074Y2742D02*
D03*
X4045D02*
D03*
X4016D02*
D03*
X3957D02*
D03*
X3986D02*
D03*
X4703D02*
D03*
X4674D02*
D03*
X4733D02*
D03*
X4762D02*
D03*
X4791D02*
D03*
X577Y931D02*
D03*
X2176Y1546D02*
D03*
X2457Y1423D02*
D03*
X1090Y2880D02*
D03*
Y2830D02*
D03*
X4762Y3046D02*
D03*
X4635Y3015D02*
D03*
X4520Y2743D02*
D03*
X4550Y2742D02*
D03*
X586Y3900D02*
D03*
X585Y3852D02*
D03*
X866Y3753D02*
D03*
X863Y3845D02*
D03*
X3857Y2741D02*
D03*
X4506Y3242D02*
D03*
X4331Y2616D02*
D03*
Y2674D02*
D03*
X3950Y3373D02*
D03*
X4331Y2645D02*
D03*
Y2733D02*
D03*
X3901Y3372D02*
D03*
X4331Y2704D02*
D03*
X889Y1822D02*
D03*
Y1852D02*
D03*
Y1882D02*
D03*
X918Y1822D02*
D03*
Y1852D02*
D03*
Y1882D02*
D03*
X4505Y3214D02*
D03*
X2461Y2359D02*
D03*
X4635Y3403D02*
D03*
X4683D02*
D03*
D82*
X6505Y2549D02*
D03*
X6502Y4310D02*
D03*
X3343Y413D02*
D03*
X431Y431D02*
D03*
X434Y4298D02*
D03*
M02*
