G04*
G04 #@! TF.GenerationSoftware,Altium Limited,Altium Designer,23.1.1 (15)*
G04*
G04 Layer_Color=8388736*
%FSLAX23Y23*%
%MOIN*%
G70*
G04*
G04 #@! TF.SameCoordinates,B68BBF77-7371-4CB0-954A-CE103CC9DB12*
G04*
G04*
G04 #@! TF.FilePolarity,Positive*
G04*
G01*
G75*
%ADD16C,0.010*%
D16*
X6645Y4368D02*
G03*
X6626Y4414I-65J0D01*
G01*
X6613Y4427D02*
G03*
X6570Y4445I-43J-43D01*
G01*
X6621Y2460D02*
G03*
X6645Y2518I-58J58D01*
G01*
X6547Y2425D02*
G03*
X6614Y2453I0J94D01*
G01*
X3493Y2395D02*
G03*
X3475Y2351I44J-44D01*
G01*
X3548Y2425D02*
G03*
X3505Y2407I0J-61D01*
G01*
X3398Y270D02*
G03*
X3446Y290I0J68D01*
G01*
X3453Y297D02*
G03*
X3475Y350I-53J53D01*
G01*
X297Y291D02*
G03*
X348Y270I51J51D01*
G01*
X270Y345D02*
G03*
X289Y299I65J0D01*
G01*
X287Y4425D02*
G03*
X270Y4384I41J-41D01*
G01*
X329Y4445D02*
G03*
X291Y4429I0J-53D01*
G01*
X6613Y4427D02*
X6626Y4414D01*
X6645Y2523D02*
Y4368D01*
X6614Y2453D02*
X6621Y2460D01*
X6645Y2518D02*
Y2523D01*
X3493Y2395D02*
X3505Y2407D01*
X3548Y2425D02*
X3563D01*
X6547D01*
X3475Y350D02*
Y2351D01*
X3446Y290D02*
X3453Y297D01*
X289Y299D02*
X297Y291D01*
X348Y270D02*
X3398D01*
X270Y345D02*
Y4384D01*
X287Y4425D02*
X291Y4429D01*
X329Y4445D02*
X6570D01*
M02*
