G04*
G04 #@! TF.GenerationSoftware,Altium Limited,Altium Designer,23.1.1 (15)*
G04*
G04 Layer_Color=16711935*
%FSLAX23Y23*%
%MOIN*%
G70*
G04*
G04 #@! TF.SameCoordinates,15EB6A63-CFD6-40EC-87C0-43203FAF91A2*
G04*
G04*
G04 #@! TF.FilePolarity,Negative*
G04*
G01*
G75*
%ADD68C,0.074*%
%ADD69C,0.084*%
%ADD70R,0.084X0.084*%
%ADD71C,0.138*%
D68*
X4130Y3690D02*
D03*
Y3790D02*
D03*
Y3890D02*
D03*
X4485Y3942D02*
D03*
X4879D02*
D03*
X4682D02*
D03*
X1632Y3230D02*
D03*
Y3130D02*
D03*
Y3030D02*
D03*
Y2930D02*
D03*
X1740Y3330D02*
D03*
Y3230D02*
D03*
Y3130D02*
D03*
Y3030D02*
D03*
Y2930D02*
D03*
Y2830D02*
D03*
X1755Y380D02*
D03*
X1655D02*
D03*
X1555D02*
D03*
X1455D02*
D03*
X1255D02*
D03*
X1355D02*
D03*
X1055D02*
D03*
X1155D02*
D03*
X2260Y650D02*
D03*
Y750D02*
D03*
X1525Y2140D02*
D03*
Y2040D02*
D03*
Y1940D02*
D03*
Y1840D02*
D03*
Y1740D02*
D03*
Y1640D02*
D03*
Y1540D02*
D03*
X2535Y1520D02*
D03*
Y1420D02*
D03*
X3135Y2120D02*
D03*
Y2020D02*
D03*
Y520D02*
D03*
X2535Y620D02*
D03*
X5326Y3926D02*
D03*
X385Y2870D02*
D03*
X390Y2465D02*
D03*
X2535Y2220D02*
D03*
X3135Y1820D02*
D03*
Y1920D02*
D03*
Y1720D02*
D03*
Y1420D02*
D03*
Y1320D02*
D03*
Y1620D02*
D03*
Y1520D02*
D03*
Y2520D02*
D03*
Y2620D02*
D03*
Y2420D02*
D03*
Y2820D02*
D03*
Y2720D02*
D03*
Y2320D02*
D03*
Y2220D02*
D03*
X2940Y2320D02*
D03*
X3040D02*
D03*
X3135Y820D02*
D03*
Y720D02*
D03*
Y620D02*
D03*
Y1120D02*
D03*
Y1220D02*
D03*
Y1020D02*
D03*
X3015Y1170D02*
D03*
Y1070D02*
D03*
X3135Y920D02*
D03*
X3015Y770D02*
D03*
Y970D02*
D03*
Y870D02*
D03*
X2740Y2320D02*
D03*
X2640D02*
D03*
X2840D02*
D03*
X2535Y1720D02*
D03*
Y1620D02*
D03*
Y1920D02*
D03*
Y1820D02*
D03*
Y2520D02*
D03*
Y2620D02*
D03*
Y2420D02*
D03*
Y2820D02*
D03*
Y2720D02*
D03*
Y2120D02*
D03*
Y2020D02*
D03*
Y2320D02*
D03*
Y720D02*
D03*
Y820D02*
D03*
Y920D02*
D03*
X2635Y620D02*
D03*
X2535Y520D02*
D03*
Y1120D02*
D03*
Y1020D02*
D03*
Y1320D02*
D03*
Y1220D02*
D03*
X5326Y3826D02*
D03*
X385Y3070D02*
D03*
Y2970D02*
D03*
X390Y2665D02*
D03*
Y2565D02*
D03*
D69*
X6035Y4040D02*
D03*
X6135D02*
D03*
X5566D02*
D03*
X5666D02*
D03*
D70*
X6235D02*
D03*
X5766D02*
D03*
D71*
X6505Y2549D02*
D03*
X6502Y4310D02*
D03*
X3343Y413D02*
D03*
X431Y431D02*
D03*
X434Y4298D02*
D03*
M02*
